SplineFontDB: 3.2
FontName: ATM078-Regular
FullName: ATM078-Regular
FamilyName: ATM 078
Weight: Book
Copyright: AzhaguThamizh
Version: 1.001
ItalicAngle: -11
UnderlinePosition: -271
UnderlineWidth: 102
Ascent: 1600
Descent: 400
InvalidEm: 0
sfntRevision: 0x00010042
LayerCount: 2
Layer: 0 1 "Back" 1
Layer: 1 1 "Fore" 0
XUID: [1021 192 2086997156 12519]
StyleMap: 0x0040
FSType: 8
OS2Version: 3
OS2_WeightWidthSlopeOnly: 0
OS2_UseTypoMetrics: 0
CreationTime: 1536309260
ModificationTime: 1545748275
PfmFamily: 17
TTFWeight: 400
TTFWidth: 5
LineGap: 0
VLineGap: 0
Panose: 2 11 6 4 2 2 2 2 2 4
OS2TypoAscent: 2000
OS2TypoAOffset: 0
OS2TypoDescent: -1320
OS2TypoDOffset: 0
OS2TypoLinegap: 0
OS2WinAscent: 2000
OS2WinAOffset: 0
OS2WinDescent: 744
OS2WinDOffset: 0
HheadAscent: 2000
HheadAOffset: 0
HheadDescent: -1320
HheadDOffset: 0
OS2SubXSize: 1400
OS2SubYSize: 1300
OS2SubXOff: 0
OS2SubYOff: 0
OS2SupXSize: 1400
OS2SupYSize: 1300
OS2SupXOff: 0
OS2SupYOff: 0
OS2StrikeYSize: 100
OS2StrikeYPos: 518
OS2CapHeight: 1586
OS2XHeight: -200
OS2Vendor: '    '
OS2CodePages: 00000001.00000000
OS2UnicodeRanges: 00100003.00000000.00000000.00000000
Lookup: 4 0 0 "'akhn' Akhand in Tamil2 lookup 0" { "'akhn' Akhand in Tamil2 lookup 0 subtable"  } ['akhn' ('tml2' <'dflt' > ) ]
Lookup: 4 0 0 "'akhn' Akhand in Tamil lookup 1" { "'akhn' Akhand in Tamil lookup 1 subtable"  } ['akhn' ('taml' <'dflt' > ) ]
Lookup: 4 0 0 "'half' Half Forms in Tamil lookup 2" { "'half' Half Forms in Tamil lookup 2 subtable"  } ['half' ('taml' <'dflt' > ) ]
Lookup: 4 0 0 "'haln' Halant Forms in Tamil2 lookup 3" { "'haln' Halant Forms in Tamil2 lookup 3 subtable"  } ['haln' ('tml2' <'dflt' > ) ]
Lookup: 4 0 0 "'haln' Halant Forms in Tamil lookup 4" { "'haln' Halant Forms in Tamil lookup 4 subtable"  } ['haln' ('taml' <'dflt' > ) ]
Lookup: 4 0 0 "'abvs' Above Base Substitutions lookup 5" { "'abvs' Above Base Substitutions lookup 5 subtable"  } ['abvs' ('taml' <'dflt' > 'tml2' <'dflt' > ) ]

StartChar: .notdef
Encoding: 65536 -1 0
Width: 1600
Flags: W
LayerCount: 2
Fore
SplineSet
100 0 m 1,0,-1
 100 1600 l 1,1,-1
 1500 1600 l 1,2,-1
 1500 0 l 1,3,-1
 100 0 l 1,0,-1
1400 100 m 1,4,-1
 1400 1500 l 1,5,-1
 200 1500 l 1,6,-1
 200 100 l 1,7,-1
 1400 100 l 1,4,-1
EndSplineSet
EndChar

StartChar: exclam
Encoding: 33 33 4
Width: 684
GlyphClass: 2
Flags: W
LayerCount: 2
Fore
SplineSet
342 -98 m 0,0,1
 297 -98 297 -98 265.5 -66.5 c 128,-1,2
 234 -35 234 -35 234 10 c 0,3,4
 234 62 234 62 268.5 99.5 c 128,-1,5
 303 137 303 137 352 137 c 0,6,7
 396 137 396 137 427.5 105.5 c 128,-1,8
 459 74 459 74 459 29 c 0,9,10
 459 -23 459 -23 425 -60.5 c 128,-1,11
 391 -98 391 -98 342 -98 c 0,0,1
400 254 m 0,12,13
 389 254 389 254 380 260 c 128,-1,14
 371 266 371 266 371 273 c 0,15,16
 385 355 385 355 392.5 417 c 128,-1,17
 400 479 400 479 400 518 c 2,18,-1
 400 801 l 2,19,20
 400 857 400 857 395.5 898 c 128,-1,21
 391 939 391 939 381 967 c 0,22,23
 371 994 371 994 366 1010.5 c 128,-1,24
 361 1027 361 1027 361 1035 c 0,25,26
 361 1051 361 1051 376 1062.5 c 128,-1,27
 391 1074 391 1074 410 1074 c 2,28,-1
 488 1074 l 2,29,30
 521 1074 521 1074 543.5 1051.5 c 128,-1,31
 566 1029 566 1029 566 996 c 0,32,33
 566 900 566 900 534 723.5 c 128,-1,34
 502 547 502 547 439 293 c 0,35,36
 434 275 434 275 423 264.5 c 128,-1,37
 412 254 412 254 400 254 c 0,12,13
EndSplineSet
EndChar

StartChar: quotedbl
Encoding: 34 34 5
Width: 840
GlyphClass: 2
Flags: W
LayerCount: 2
Fore
SplineSet
646 784 m 1,0,-1
 674 1070 l 1,1,-1
 690 1200 l 2,2,3
 698 1264 698 1264 735 1309 c 128,-1,4
 772 1354 772 1354 832 1354 c 0,5,6
 896 1354 896 1354 904 1288 c 0,7,8
 904 1262 904 1262 890 1222 c 0,9,10
 858 1126 858 1126 830 1070 c 2,11,-1
 692 784 l 1,12,-1
 646 784 l 1,0,-1
288 784 m 1,13,-1
 318 1074 l 2,14,15
 330 1192 330 1192 334 1210 c 0,16,17
 350 1292 350 1292 396 1328 c 1,18,19
 438 1354 438 1354 472 1354 c 0,20,21
 546 1354 546 1354 546 1286 c 0,22,23
 546 1248 546 1248 464 1072 c 2,24,-1
 330 784 l 1,25,-1
 288 784 l 1,13,-1
EndSplineSet
EndChar

StartChar: numbersign
Encoding: 35 35 6
Width: 1068
GlyphClass: 2
Flags: W
LayerCount: 2
Fore
SplineSet
998 278 m 1,0,-1
 746 278 l 1,1,-1
 680 -36 l 1,2,-1
 584 -36 l 1,3,-1
 650 278 l 1,4,-1
 320 278 l 1,5,-1
 254 -36 l 1,6,-1
 158 -36 l 1,7,-1
 224 278 l 1,8,-1
 68 278 l 1,9,-1
 68 374 l 1,10,-1
 244 374 l 1,11,-1
 304 664 l 1,12,-1
 68 664 l 1,13,-1
 68 760 l 1,14,-1
 324 760 l 1,15,-1
 392 1076 l 1,16,-1
 488 1076 l 1,17,-1
 420 760 l 1,18,-1
 748 760 l 1,19,-1
 814 1076 l 1,20,-1
 910 1076 l 1,21,-1
 844 760 l 1,22,-1
 998 760 l 1,23,-1
 998 664 l 1,24,-1
 826 664 l 1,25,-1
 764 374 l 1,26,-1
 998 374 l 1,27,-1
 998 278 l 1,0,-1
730 664 m 1,28,-1
 400 664 l 1,29,-1
 340 374 l 1,30,-1
 668 374 l 1,31,-1
 730 664 l 1,28,-1
EndSplineSet
EndChar

StartChar: dollar
Encoding: 36 36 7
Width: 932
GlyphClass: 2
Flags: W
LayerCount: 2
Fore
SplineSet
774 296 m 2,0,1
 760 170 760 170 636 82 c 0,2,3
 534 12 534 12 392 -16 c 1,4,-1
 376 -90 l 1,5,-1
 314 -90 l 1,6,-1
 328 -20 l 1,7,-1
 302 -20 l 1,8,-1
 242 -18 l 1,9,-1
 210 -18 l 1,10,11
 194 -12 194 -12 188 -10 c 0,12,13
 112 6 112 6 30 46 c 1,14,-1
 46 88 l 1,15,-1
 66 160 l 1,16,-1
 86 242 l 1,17,-1
 130 242 l 1,18,-1
 124 188 l 1,19,20
 124 104 124 104 190 60 c 0,21,22
 248 20 248 20 336 20 c 1,23,-1
 432 464 l 1,24,25
 172 562 172 562 172 724 c 0,26,27
 172 760 172 760 176 776 c 0,28,29
 206 900 206 900 322 982 c 0,30,31
 424 1054 424 1054 562 1074 c 1,32,-1
 574 1134 l 1,33,-1
 636 1134 l 1,34,-1
 624 1074 l 1,35,36
 774 1074 774 1074 882 1008 c 1,37,-1
 830 830 l 1,38,-1
 786 830 l 1,39,-1
 788 868 l 2,40,41
 796 1030 796 1030 614 1030 c 1,42,-1
 524 602 l 1,43,44
 652 546 652 546 696 512 c 0,45,46
 780 448 780 448 780 350 c 1,47,-1
 774 296 l 2,0,1
468 630 m 1,48,-1
 552 1028 l 1,49,50
 362 996 362 996 314 824 c 1,51,-1
 310 792 l 1,52,53
 310 736 310 736 360 690 c 0,54,55
 388 664 388 664 468 630 c 1,48,-1
638 238 m 1,56,-1
 642 278 l 1,57,58
 642 364 642 364 488 438 c 1,59,-1
 398 20 l 1,60,61
 484 34 484 34 550 94 c 128,-1,62
 616 154 616 154 638 238 c 1,56,-1
EndSplineSet
EndChar

StartChar: percent
Encoding: 37 37 8
Width: 1201
GlyphClass: 2
Flags: W
LayerCount: 2
Fore
SplineSet
898 0 m 0,0,1
 770 0 770 0 692.5 29.5 c 128,-1,2
 615 59 615 59 615 107 c 0,3,4
 615 227 615 227 697 348 c 128,-1,5
 779 469 779 469 859 469 c 0,6,7
 943 469 943 469 1013.5 358.5 c 128,-1,8
 1084 248 1084 248 1084 117 c 0,9,10
 1084 64 1084 64 1033 32 c 128,-1,11
 982 0 982 0 898 0 c 0,0,1
859 68 m 0,12,13
 887 68 887 68 902.5 82 c 128,-1,14
 918 96 918 96 918 117 c 0,15,16
 918 195 918 195 877 268.5 c 128,-1,17
 836 342 836 342 791 342 c 0,18,19
 752 342 752 342 713 269.5 c 128,-1,20
 674 197 674 197 674 127 c 0,21,22
 674 105 674 105 732.5 86.5 c 128,-1,23
 791 68 791 68 859 68 c 0,12,13
410 762 m 0,24,25
 277 762 277 762 197 791 c 128,-1,26
 117 820 117 820 117 869 c 0,27,28
 117 988 117 988 199 1109 c 128,-1,29
 281 1230 281 1230 361 1230 c 0,30,31
 445 1230 445 1230 515.5 1120 c 128,-1,32
 586 1010 586 1010 586 879 c 0,33,34
 586 826 586 826 538 794 c 128,-1,35
 490 762 490 762 410 762 c 0,24,25
361 830 m 0,36,37
 389 830 389 830 404.5 843.5 c 128,-1,38
 420 857 420 857 420 879 c 0,39,40
 420 957 420 957 379 1030.5 c 128,-1,41
 338 1104 338 1104 293 1104 c 0,42,43
 254 1104 254 1104 215 1031.5 c 128,-1,44
 176 959 176 959 176 889 c 0,45,46
 176 867 176 867 234.5 848.5 c 128,-1,47
 293 830 293 830 361 830 c 0,36,37
342 0 m 0,48,49
 326 0 326 0 314.5 9 c 128,-1,50
 303 18 303 18 303 29 c 0,51,52
 303 45 303 45 312.5 69.5 c 128,-1,53
 322 94 322 94 342 127 c 2,54,-1
 898 1172 l 2,55,56
 916 1207 916 1207 934.5 1228.5 c 128,-1,57
 953 1250 953 1250 967 1250 c 0,58,59
 982 1250 982 1250 994 1238.5 c 128,-1,60
 1006 1227 1006 1227 1006 1211 c 0,61,62
 1006 1197 1006 1197 984.5 1161 c 128,-1,63
 963 1125 963 1125 957 1113 c 2,64,-1
 400 68 l 2,65,66
 381 35 381 35 366.5 17.5 c 128,-1,67
 352 0 352 0 342 0 c 0,48,49
EndSplineSet
EndChar

StartChar: ampersand
Encoding: 38 38 9
Width: 1034
GlyphClass: 2
Flags: W
LayerCount: 2
Fore
SplineSet
1006 -4 m 1,0,-1
 928 0 l 1,1,-1
 850 0 l 1,2,-1
 754 -4 l 1,3,-1
 676 98 l 1,4,5
 598 32 598 32 524 2 c 1,6,-1
 462 -14 l 2,7,8
 424 -24 424 -24 370 -24 c 0,9,10
 228 -24 228 -24 132 60 c 128,-1,11
 36 144 36 144 36 284 c 0,12,13
 36 470 36 470 260 586 c 2,14,-1
 310 612 l 1,15,-1
 248 730 l 1,16,-1
 232 778 l 1,17,-1
 226 828 l 1,18,19
 226 938 226 938 324 1010 c 0,20,21
 414 1076 414 1076 528 1076 c 0,22,23
 604 1076 604 1076 664 1029 c 128,-1,24
 724 982 724 982 724 908 c 0,25,26
 724 806 724 806 626 746 c 2,27,-1
 552 700 l 1,28,-1
 452 644 l 1,29,-1
 568 472 l 1,30,-1
 748 228 l 1,31,32
 812 312 812 312 812 416 c 256,33,34
 812 520 812 520 716 516 c 2,35,-1
 676 514 l 1,36,-1
 688 552 l 1,37,-1
 1006 552 l 1,38,-1
 1006 514 l 1,39,-1
 968 514 l 2,40,41
 916 514 916 514 892 486 c 0,42,43
 878 470 878 470 862 408 c 2,44,-1
 848 352 l 2,45,46
 840 322 840 322 828 300 c 0,47,48
 814 262 814 262 772 200 c 1,49,-1
 862 98 l 1,50,-1
 888 72 l 1,51,-1
 934 44 l 2,52,53
 950 32 950 32 980 32 c 2,54,-1
 1006 32 l 1,55,-1
 1006 -4 l 1,0,-1
590 890 m 0,56,57
 590 950 590 950 558 992 c 128,-1,58
 526 1034 526 1034 468 1034 c 0,59,60
 414 1034 414 1034 376 996 c 128,-1,61
 338 958 338 958 338 904 c 0,62,63
 338 874 338 874 342 858 c 2,64,-1
 360 806 l 2,65,66
 378 756 378 756 434 672 c 1,67,68
 500 712 500 712 530 744 c 0,69,70
 590 808 590 808 590 890 c 0,56,57
652 124 m 1,71,-1
 484 348 l 1,72,-1
 422 440 l 1,73,-1
 330 582 l 1,74,75
 178 470 178 470 178 326 c 0,76,77
 178 210 178 210 264 132 c 128,-1,78
 350 54 350 54 468 54 c 0,79,80
 522 54 522 54 580 78 c 0,81,82
 604 88 604 88 610 94 c 2,83,-1
 652 124 l 1,71,-1
EndSplineSet
EndChar

StartChar: quotesingle
Encoding: 39 39 10
Width: 428
GlyphClass: 2
Flags: W
LayerCount: 2
Fore
SplineSet
262 784 m 1,0,-1
 292 1074 l 2,1,2
 300 1144 300 1144 324 1264 c 1,3,4
 342 1322 342 1322 408 1346 c 0,5,6
 430 1354 430 1354 446 1354 c 0,7,8
 514 1354 514 1354 522 1286 c 0,9,10
 522 1256 522 1256 512 1236 c 1,11,12
 504 1208 504 1208 440 1072 c 2,13,-1
 306 784 l 1,14,-1
 262 784 l 1,0,-1
EndSplineSet
EndChar

StartChar: parenleft
Encoding: 40 40 11
Width: 615
GlyphClass: 2
Flags: W
LayerCount: 2
Fore
SplineSet
479 -352 m 0,0,1
 467 -352 467 -352 451.5 -342 c 128,-1,2
 436 -332 436 -332 420 -313 c 0,3,4
 273 -139 273 -139 195 45.5 c 128,-1,5
 117 230 117 230 117 400 c 0,6,7
 117 551 117 551 167 715 c 128,-1,8
 217 879 217 879 312 1045 c 0,9,10
 338 1088 338 1088 357.5 1110.5 c 128,-1,11
 377 1133 377 1133 391 1133 c 0,12,13
 402 1133 402 1133 411 1124 c 128,-1,14
 420 1115 420 1115 420 1104 c 0,15,16
 420 1096 420 1096 405.5 1072.5 c 128,-1,17
 391 1049 391 1049 381 1025 c 0,18,19
 328 934 328 934 300.5 772.5 c 128,-1,20
 273 611 273 611 273 391 c 0,21,22
 273 201 273 201 321 36 c 128,-1,23
 369 -129 369 -129 459 -254 c 0,24,25
 469 -271 469 -271 483.5 -292.5 c 128,-1,26
 498 -314 498 -314 498 -322 c 0,27,28
 498 -334 498 -334 492 -343 c 128,-1,29
 486 -352 486 -352 479 -352 c 0,0,1
EndSplineSet
EndChar

StartChar: parenright
Encoding: 41 41 12
Width: 615
GlyphClass: 2
Flags: W
LayerCount: 2
Fore
SplineSet
225 -352 m 0,0,1
 213 -352 213 -352 204 -343 c 128,-1,2
 195 -334 195 -334 195 -322 c 0,3,4
 195 -314 195 -314 209 -290 c 128,-1,5
 223 -266 223 -266 234 -244 c 0,6,7
 287 -152 287 -152 314.5 9 c 128,-1,8
 342 170 342 170 342 391 c 0,9,10
 342 570 342 570 294 735 c 128,-1,11
 246 900 246 900 156 1035 c 0,12,13
 146 1053 146 1053 131.5 1074.5 c 128,-1,14
 117 1096 117 1096 117 1104 c 0,15,16
 117 1115 117 1115 123 1124 c 128,-1,17
 129 1133 129 1133 137 1133 c 0,18,19
 148 1133 148 1133 164 1123 c 128,-1,20
 180 1113 180 1113 195 1094 c 0,21,22
 342 920 342 920 420 735.5 c 128,-1,23
 498 551 498 551 498 381 c 0,24,25
 498 230 498 230 448 66 c 128,-1,26
 398 -98 398 -98 303 -264 c 0,27,28
 277 -307 277 -307 257.5 -329.5 c 128,-1,29
 238 -352 238 -352 225 -352 c 0,0,1
EndSplineSet
EndChar

StartChar: asterisk
Encoding: 42 42 13
Width: 850
GlyphClass: 2
Flags: W
LayerCount: 2
Fore
SplineSet
400 684 m 1,0,-1
 410 967 l 1,1,-1
 293 771 l 1,2,-1
 117 879 l 1,3,-1
 361 1016 l 1,4,-1
 146 1006 l 1,5,-1
 127 1221 l 1,6,-1
 371 1084 l 1,7,-1
 244 1260 l 1,8,-1
 439 1367 l 1,9,-1
 449 1104 l 1,10,-1
 537 1289 l 1,11,-1
 732 1182 l 1,12,-1
 479 1035 l 1,13,-1
 693 1055 l 1,14,-1
 703 840 l 1,15,-1
 459 986 l 1,16,-1
 576 811 l 1,17,-1
 400 684 l 1,0,-1
EndSplineSet
EndChar

StartChar: plus
Encoding: 43 43 14
Width: 1016
GlyphClass: 2
Flags: W
LayerCount: 2
Fore
SplineSet
566 78 m 1,0,-1
 430 0 l 1,1,-1
 430 312 l 1,2,-1
 117 312 l 1,3,-1
 205 449 l 1,4,-1
 430 449 l 1,5,-1
 430 703 l 1,6,-1
 566 781 l 1,7,-1
 566 449 l 1,8,-1
 898 449 l 1,9,-1
 811 312 l 1,10,-1
 566 312 l 1,11,-1
 566 78 l 1,0,-1
EndSplineSet
EndChar

StartChar: comma
Encoding: 44 44 15
Width: 508
GlyphClass: 2
Flags: W
LayerCount: 2
Fore
SplineSet
146 -293 m 0,0,1
 135 -293 135 -293 126 -284 c 128,-1,2
 117 -275 117 -275 117 -264 c 0,3,4
 117 -248 117 -248 127 -228.5 c 128,-1,5
 137 -209 137 -209 156 -186 c 1,6,-1
 205 -107 l 2,7,8
 225 -74 225 -74 234.5 -49.5 c 128,-1,9
 244 -25 244 -25 244 -10 c 0,10,11
 244 0 244 0 224.5 26.5 c 128,-1,12
 205 53 205 53 195 68 c 0,13,14
 176 92 176 92 166 116.5 c 128,-1,15
 156 141 156 141 156 166 c 0,16,17
 156 207 156 207 190.5 235.5 c 128,-1,18
 225 264 225 264 273 264 c 0,19,20
 322 264 322 264 356.5 226.5 c 128,-1,21
 391 189 391 189 391 137 c 0,22,23
 391 86 391 86 346 -5 c 128,-1,24
 301 -96 301 -96 215 -225 c 0,25,26
 197 -256 197 -256 178.5 -274.5 c 128,-1,27
 160 -293 160 -293 146 -293 c 0,0,1
EndSplineSet
EndChar

StartChar: hyphen
Encoding: 45 45 16
Width: 830
GlyphClass: 2
Flags: W
LayerCount: 2
Fore
SplineSet
117 391 m 1,0,-1
 195 527 l 1,1,-1
 713 527 l 1,2,-1
 635 391 l 1,3,-1
 117 391 l 1,0,-1
EndSplineSet
EndChar

StartChar: period
Encoding: 46 46 17
Width: 459
GlyphClass: 2
Flags: W
LayerCount: 2
Fore
SplineSet
215 -10 m 0,0,1
 174 -10 174 -10 145.5 21.5 c 128,-1,2
 117 53 117 53 117 98 c 0,3,4
 117 162 117 162 154 208 c 128,-1,5
 191 254 191 254 244 254 c 0,6,7
 285 254 285 254 313.5 225.5 c 128,-1,8
 342 197 342 197 342 156 c 0,9,10
 342 88 342 88 305 39 c 128,-1,11
 268 -10 268 -10 215 -10 c 0,0,1
EndSplineSet
EndChar

StartChar: slash
Encoding: 47 47 18
Width: 723
GlyphClass: 2
Flags: W
LayerCount: 2
Fore
SplineSet
146 -303 m 0,0,1
 135 -303 135 -303 126 -291 c 128,-1,2
 117 -279 117 -279 117 -264 c 0,3,4
 117 -250 117 -250 124 -223.5 c 128,-1,5
 131 -197 131 -197 146 -156 c 2,6,-1
 527 1201 l 2,7,8
 535 1227 535 1227 546 1243.5 c 128,-1,9
 557 1260 557 1260 566 1260 c 0,10,11
 582 1260 582 1260 593.5 1251 c 128,-1,12
 605 1242 605 1242 605 1230 c 0,13,14
 605 1211 605 1211 600.5 1181.5 c 128,-1,15
 596 1152 596 1152 586 1113 c 2,16,-1
 186 -234 l 2,17,18
 178 -264 178 -264 167 -283.5 c 128,-1,19
 156 -303 156 -303 146 -303 c 0,0,1
EndSplineSet
EndChar

StartChar: zero
Encoding: 48 48 19
Width: 880
GlyphClass: 2
Flags: W
LayerCount: 2
Fore
SplineSet
435 -18 m 0,0,1
 309 -18 309 -18 191.5 166 c 128,-1,2
 74 350 74 350 74 546 c 0,3,4
 74 734 74 734 191.5 909 c 128,-1,5
 309 1084 309 1084 435 1084 c 0,6,7
 566 1084 566 1084 686 909 c 128,-1,8
 806 734 806 734 806 546 c 0,9,10
 806 350 806 350 686 166 c 128,-1,11
 566 -18 566 -18 435 -18 c 0,0,1
435 53 m 0,12,13
 520 53 520 53 574.5 193 c 128,-1,14
 629 333 629 333 629 546 c 0,15,16
 629 752 629 752 574.5 887 c 128,-1,17
 520 1022 520 1022 435 1022 c 0,18,19
 351 1022 351 1022 296.5 887 c 128,-1,20
 242 752 242 752 242 546 c 0,21,22
 242 333 242 333 296.5 193 c 128,-1,23
 351 53 351 53 435 53 c 0,12,13
EndSplineSet
EndChar

StartChar: one
Encoding: 49 49 20
Width: 882
GlyphClass: 2
Flags: W
LayerCount: 2
Fore
SplineSet
467 0 m 2,0,1
 453 0 453 0 442.5 10.5 c 128,-1,2
 432 21 432 21 432 35 c 0,3,4
 432 43 432 43 433.5 55.5 c 128,-1,5
 435 68 435 68 441 97 c 0,6,7
 449 146 449 146 454 188.5 c 128,-1,8
 459 231 459 231 459 264 c 2,9,-1
 459 713 l 2,10,11
 459 803 459 803 450.5 877.5 c 128,-1,12
 442 952 442 952 432 952 c 0,13,14
 416 952 416 952 397.5 923.5 c 128,-1,15
 379 895 379 895 352 838 c 0,16,17
 338 806 338 806 321.5 755.5 c 128,-1,18
 305 705 305 705 291 705 c 256,19,20
 277 705 277 705 266.5 713 c 128,-1,21
 256 721 256 721 256 731 c 0,22,23
 256 821 256 821 348.5 956.5 c 128,-1,24
 441 1092 441 1092 503 1092 c 2,25,-1
 582 1092 l 2,26,27
 590 1092 590 1092 597 1082.5 c 128,-1,28
 604 1073 604 1073 608 1057 c 0,29,30
 617 1008 617 1008 621 922 c 128,-1,31
 625 836 625 836 625 713 c 2,32,-1
 625 370 l 2,33,34
 625 261 625 261 621 181.5 c 128,-1,35
 617 102 617 102 608 53 c 0,36,37
 601 28 601 28 594.5 14 c 128,-1,38
 588 0 588 0 582 0 c 2,39,-1
 467 0 l 2,0,1
EndSplineSet
EndChar

StartChar: two
Encoding: 50 50 21
Width: 880
GlyphClass: 2
Flags: W
LayerCount: 2
Fore
SplineSet
127 0 m 2,0,1
 117 0 117 0 108.5 10.5 c 128,-1,2
 100 21 100 21 100 35 c 0,3,4
 100 107 100 107 160 197 c 128,-1,5
 220 287 220 287 330 379 c 0,6,7
 451 481 451 481 518 599 c 128,-1,8
 585 717 585 717 585 828 c 0,9,10
 585 932 585 932 553.5 994.5 c 128,-1,11
 522 1057 522 1057 470 1057 c 0,12,13
 387 1057 387 1057 312.5 1025 c 128,-1,14
 238 993 238 993 189 934 c 1,15,16
 224 947 224 947 275 953.5 c 128,-1,17
 326 960 326 960 391 960 c 0,18,19
 424 960 424 960 443 936.5 c 128,-1,20
 462 913 462 913 462 873 c 0,21,22
 462 783 462 783 395 682.5 c 128,-1,23
 328 582 328 582 268 582 c 0,24,25
 207 582 207 582 145 656.5 c 128,-1,26
 83 731 83 731 83 803 c 0,27,28
 83 941 83 941 203.5 1025.5 c 128,-1,29
 324 1110 324 1110 523 1110 c 0,30,31
 636 1110 636 1110 699 1045 c 128,-1,32
 762 980 762 980 762 864 c 0,33,34
 762 746 762 746 673.5 615 c 128,-1,35
 585 484 585 484 427 370 c 0,36,37
 356 319 356 319 307.5 270.5 c 128,-1,38
 259 222 259 222 233 176 c 1,39,-1
 674 176 l 2,40,41
 692 176 692 176 706.5 188.5 c 128,-1,42
 721 201 721 201 727 220 c 0,43,44
 732 240 732 240 745 252 c 128,-1,45
 758 264 758 264 770 264 c 0,46,47
 781 264 781 264 789 256 c 128,-1,48
 797 248 797 248 797 238 c 0,49,50
 797 225 797 225 790 207.5 c 128,-1,51
 783 190 783 190 770 168 c 0,52,53
 760 148 760 148 751 120 c 128,-1,54
 742 92 742 92 734 53 c 0,55,56
 731 29 731 29 721 14.5 c 128,-1,57
 711 0 711 0 699 0 c 2,58,-1
 127 0 l 2,0,1
189 705 m 0,59,60
 217 705 217 705 255.5 773 c 128,-1,61
 294 841 294 841 294 890 c 0,62,63
 294 897 294 897 288.5 902.5 c 128,-1,64
 283 908 283 908 277 908 c 0,65,66
 235 908 235 908 202 899 c 128,-1,67
 169 890 169 890 153 873 c 1,68,69
 144 857 144 857 139.5 837.5 c 128,-1,70
 135 818 135 818 135 793 c 0,71,72
 135 756 135 756 151.5 730.5 c 128,-1,73
 168 705 168 705 189 705 c 0,59,60
EndSplineSet
EndChar

StartChar: three
Encoding: 51 51 22
Width: 880
GlyphClass: 2
Flags: W
LayerCount: 2
Fore
SplineSet
427 -18 m 0,0,1
 324 -18 324 -18 199 82.5 c 128,-1,2
 74 183 74 183 74 264 c 0,3,4
 74 340 74 340 130.5 417 c 128,-1,5
 187 494 187 494 242 494 c 256,6,7
 297 494 297 494 366 419 c 128,-1,8
 435 344 435 344 435 281 c 0,9,10
 435 229 435 229 397 179 c 128,-1,11
 359 129 359 129 294 97 c 1,12,13
 315 72 315 72 348 58.5 c 128,-1,14
 381 45 381 45 418 45 c 0,15,16
 479 45 479 45 554 153.5 c 128,-1,17
 629 262 629 262 629 352 c 0,18,19
 629 406 629 406 591 457.5 c 128,-1,20
 553 509 553 509 488 546 c 0,21,22
 464 560 464 560 449.5 574 c 128,-1,23
 435 588 435 588 435 599 c 0,24,25
 435 633 435 633 498.5 723.5 c 128,-1,26
 562 814 562 814 612 899 c 1,27,-1
 215 899 l 2,28,29
 205 899 205 899 190.5 890.5 c 128,-1,30
 176 882 176 882 162 864 c 0,31,32
 159 860 159 860 150 849 c 128,-1,33
 141 838 141 838 135 838 c 0,34,35
 122 838 122 838 111 845.5 c 128,-1,36
 100 853 100 853 100 864 c 0,37,38
 100 882 100 882 128.5 925.5 c 128,-1,39
 157 969 157 969 171 997 c 0,40,41
 192 1034 192 1034 213.5 1054 c 128,-1,42
 235 1074 235 1074 250 1074 c 2,43,-1
 727 1074 l 2,44,45
 748 1074 748 1074 763.5 1066.5 c 128,-1,46
 779 1059 779 1059 779 1049 c 0,47,48
 779 1035 779 1035 770.5 1015 c 128,-1,49
 762 995 762 995 744 969 c 0,50,51
 694 895 694 895 609.5 774 c 128,-1,52
 525 653 525 653 506 608 c 1,53,54
 641 559 641 559 723.5 474 c 128,-1,55
 806 389 806 389 806 299 c 0,56,57
 806 201 806 201 675.5 91.5 c 128,-1,58
 545 -18 545 -18 427 -18 c 0,0,1
242 132 m 1,59,60
 266 157 266 157 280 194 c 128,-1,61
 294 231 294 231 294 274 c 0,62,63
 294 322 294 322 274 373 c 128,-1,64
 254 424 254 424 233 424 c 0,65,66
 203 424 203 424 165 370.5 c 128,-1,67
 127 317 127 317 127 274 c 0,68,69
 127 238 127 238 158 200 c 128,-1,70
 189 162 189 162 242 132 c 1,59,60
EndSplineSet
EndChar

StartChar: four
Encoding: 52 52 23
Width: 880
GlyphClass: 2
Flags: W
LayerCount: 2
Fore
SplineSet
488 0 m 2,0,1
 474 0 474 0 463.5 8 c 128,-1,2
 453 16 453 16 453 27 c 0,3,4
 453 76 453 76 461.5 172 c 128,-1,5
 470 268 470 268 470 317 c 1,6,-1
 127 317 l 2,7,8
 109 317 109 317 96 330.5 c 128,-1,9
 83 344 83 344 83 361 c 0,10,11
 83 377 83 377 94 406 c 128,-1,12
 105 435 105 435 127 476 c 2,13,-1
 391 987 l 2,14,15
 412 1030 412 1030 429.5 1052 c 128,-1,16
 447 1074 447 1074 462 1074 c 2,17,-1
 568 1074 l 2,18,19
 598 1074 598 1074 618 1007.5 c 128,-1,20
 638 941 638 941 638 845 c 2,21,-1
 638 370 l 1,22,-1
 770 370 l 2,23,24
 781 370 781 370 789 362 c 128,-1,25
 797 354 797 354 797 344 c 0,26,27
 797 333 797 333 789 325 c 128,-1,28
 781 317 781 317 770 317 c 2,29,-1
 638 317 l 1,30,-1
 620 62 l 2,31,32
 620 37 620 37 612 18.5 c 128,-1,33
 604 0 604 0 594 0 c 2,34,-1
 488 0 l 2,0,1
180 370 m 2,35,-1
 470 370 l 1,36,-1
 470 917 l 2,37,38
 470 927 470 927 465 935 c 128,-1,39
 460 943 460 943 453 943 c 0,40,41
 441 943 441 943 425.5 921 c 128,-1,42
 410 899 410 899 391 855 c 2,43,-1
 180 441 l 2,44,45
 171 425 171 425 166.5 411.5 c 128,-1,46
 162 398 162 398 162 388 c 0,47,48
 162 381 162 381 167 375.5 c 128,-1,49
 172 370 172 370 180 370 c 2,35,-1
EndSplineSet
EndChar

StartChar: five
Encoding: 53 53 24
Width: 882
GlyphClass: 2
Flags: W
LayerCount: 2
Fore
SplineSet
379 -18 m 0,0,1
 293 -18 293 -18 195 76.5 c 128,-1,2
 97 171 97 171 97 256 c 0,3,4
 97 317 97 317 187 400.5 c 128,-1,5
 277 484 277 484 344 484 c 0,6,7
 385 484 385 484 413 435.5 c 128,-1,8
 441 387 441 387 441 317 c 0,9,10
 441 252 441 252 406 187.5 c 128,-1,11
 371 123 371 123 309 70 c 1,12,13
 317 55 317 55 338 45 c 128,-1,14
 359 35 359 35 388 35 c 0,15,16
 472 35 472 35 557.5 206 c 128,-1,17
 643 377 643 377 643 546 c 0,18,19
 643 608 643 608 610 651.5 c 128,-1,20
 577 695 577 695 529 695 c 0,21,22
 474 695 474 695 422 684.5 c 128,-1,23
 370 674 370 674 326 653 c 0,24,25
 291 635 291 635 264 626 c 128,-1,26
 237 617 237 617 220 617 c 0,27,28
 207 617 207 617 196 627.5 c 128,-1,29
 185 638 185 638 185 653 c 256,30,31
 185 668 185 668 189.5 700 c 128,-1,32
 194 732 194 732 203 785 c 0,33,34
 215 858 215 858 222 920.5 c 128,-1,35
 229 983 229 983 229 1032 c 0,36,37
 229 1041 229 1041 239.5 1049 c 128,-1,38
 250 1057 250 1057 264 1057 c 2,39,-1
 678 1057 l 2,40,41
 695 1057 695 1057 709 1049 c 128,-1,42
 723 1041 723 1041 723 1032 c 0,43,44
 723 1016 723 1016 718 998 c 128,-1,45
 713 980 713 980 705 960 c 0,46,47
 693 925 693 925 675.5 903.5 c 128,-1,48
 658 882 658 882 643 882 c 2,49,-1
 299 882 l 2,50,51
 275 882 275 882 264.5 830.5 c 128,-1,52
 254 779 254 779 246 678 c 1,53,54
 334 717 334 717 406 737.5 c 128,-1,55
 478 758 478 758 529 758 c 0,56,57
 640 758 640 758 712.5 653 c 128,-1,58
 785 548 785 548 785 388 c 0,59,60
 785 238 785 238 657 110 c 128,-1,61
 529 -18 529 -18 379 -18 c 0,0,1
256 105 m 1,62,63
 277 142 277 142 288 178.5 c 128,-1,64
 299 215 299 215 299 246 c 0,65,66
 299 293 299 293 284.5 340.5 c 128,-1,67
 270 388 270 388 256 388 c 0,68,69
 231 388 231 388 190.5 336.5 c 128,-1,70
 150 285 150 285 150 256 c 0,71,72
 150 218 150 218 178.5 178.5 c 128,-1,73
 207 139 207 139 256 105 c 1,62,63
EndSplineSet
EndChar

StartChar: six
Encoding: 54 54 25
Width: 882
GlyphClass: 2
Flags: W
LayerCount: 2
Fore
SplineSet
449 -18 m 0,0,1
 315 -18 315 -18 201.5 126 c 128,-1,2
 88 270 88 270 88 441 c 0,3,4
 88 620 88 620 259 832.5 c 128,-1,5
 430 1045 430 1045 599 1074 c 0,6,7
 610 1074 610 1074 617.5 1061.5 c 128,-1,8
 625 1049 625 1049 625 1032 c 0,9,10
 625 1024 625 1024 612 1018 c 128,-1,11
 599 1012 599 1012 573 1004 c 0,12,13
 439 940 439 940 360 820.5 c 128,-1,14
 281 701 281 701 281 564 c 1,15,16
 338 631 338 631 393.5 668 c 128,-1,17
 449 705 449 705 494 705 c 0,18,19
 592 705 592 705 692.5 589.5 c 128,-1,20
 793 474 793 474 793 361 c 0,21,22
 793 252 793 252 670.5 117 c 128,-1,23
 548 -18 548 -18 449 -18 c 0,0,1
441 45 m 0,24,25
 509 45 509 45 558.5 135 c 128,-1,26
 608 225 608 225 608 352 c 0,27,28
 608 460 608 460 566.5 551.5 c 128,-1,29
 525 643 525 643 476 643 c 0,30,31
 420 643 420 643 342 553.5 c 128,-1,32
 264 464 264 464 264 396 c 0,33,34
 264 237 264 237 312.5 141 c 128,-1,35
 361 45 361 45 441 45 c 0,24,25
EndSplineSet
EndChar

StartChar: seven
Encoding: 55 55 26
Width: 880
GlyphClass: 2
Flags: W
LayerCount: 2
Fore
SplineSet
373 0 m 2,0,1
 356 0 356 0 343 10.5 c 128,-1,2
 330 21 330 21 330 35 c 0,3,4
 330 287 330 287 390.5 522.5 c 128,-1,5
 451 758 451 758 568 960 c 0,6,7
 571 965 571 965 582.5 985.5 c 128,-1,8
 594 1006 594 1006 594 1014 c 0,9,10
 594 1024 594 1024 583.5 1031.5 c 128,-1,11
 573 1039 573 1039 559 1039 c 2,12,-1
 365 1022 l 2,13,14
 333 1017 333 1017 296 980 c 128,-1,15
 259 943 259 943 224 882 c 0,16,17
 217 869 217 869 193 827 c 128,-1,18
 169 785 169 785 153 785 c 0,19,20
 142 785 142 785 134.5 793 c 128,-1,21
 127 801 127 801 127 810 c 0,22,23
 127 823 127 823 131 839 c 128,-1,24
 135 855 135 855 144 873 c 0,25,26
 150 886 150 886 156 935.5 c 128,-1,27
 162 985 162 985 171 1032 c 0,28,29
 174 1054 174 1054 191.5 1069 c 128,-1,30
 209 1084 209 1084 233 1084 c 2,31,-1
 699 1092 l 2,32,33
 721 1092 721 1092 736.5 1076.5 c 128,-1,34
 752 1061 752 1061 752 1039 c 0,35,36
 752 1026 752 1026 743 1004 c 128,-1,37
 734 982 734 982 717 952 c 0,38,39
 614 771 614 771 560 541 c 128,-1,40
 506 311 506 311 506 45 c 0,41,42
 506 27 506 27 492.5 13.5 c 128,-1,43
 479 0 479 0 462 0 c 2,44,-1
 373 0 l 2,0,1
EndSplineSet
EndChar

StartChar: eight
Encoding: 56 56 27
Width: 882
GlyphClass: 2
Flags: W
LayerCount: 2
Fore
SplineSet
459 -27 m 0,0,1
 314 -27 314 -27 192 65 c 128,-1,2
 70 157 70 157 70 264 c 0,3,4
 70 324 70 324 131 399 c 128,-1,5
 192 474 192 474 299 546 c 1,6,-1
 246 590 l 2,7,8
 201 623 201 623 175.5 665 c 128,-1,9
 150 707 150 707 150 749 c 0,10,11
 150 860 150 860 253 972 c 128,-1,12
 356 1084 356 1084 459 1084 c 0,13,14
 532 1084 532 1084 645 974.5 c 128,-1,15
 758 865 758 865 758 793 c 0,16,17
 758 758 758 758 712 700.5 c 128,-1,18
 666 643 666 643 582 573 c 1,19,-1
 678 503 l 2,20,21
 740 460 740 460 775 411.5 c 128,-1,22
 810 363 810 363 810 317 c 0,23,24
 810 205 810 205 692.5 89 c 128,-1,25
 575 -27 575 -27 459 -27 c 0,0,1
441 35 m 0,26,27
 529 35 529 35 591 89.5 c 128,-1,28
 653 144 653 144 653 220 c 0,29,30
 653 270 653 270 628.5 313 c 128,-1,31
 604 356 604 356 564 379 c 2,32,-1
 344 529 l 1,33,34
 293 486 293 486 265.5 417 c 128,-1,35
 238 348 238 348 238 264 c 0,36,37
 238 161 238 161 294 98 c 128,-1,38
 350 35 350 35 441 35 c 0,26,27
546 590 m 1,39,40
 580 623 580 623 598.5 676 c 128,-1,41
 617 729 617 729 617 793 c 0,42,43
 617 884 617 884 567.5 949 c 128,-1,44
 518 1014 518 1014 449 1014 c 0,45,46
 385 1014 385 1014 338 975 c 128,-1,47
 291 936 291 936 291 882 c 0,48,49
 291 812 291 812 316.5 758.5 c 128,-1,50
 342 705 342 705 388 678 c 2,51,-1
 546 590 l 1,39,40
EndSplineSet
EndChar

StartChar: nine
Encoding: 57 57 28
Width: 882
GlyphClass: 2
Flags: W
LayerCount: 2
Fore
SplineSet
264 -18 m 0,0,1
 254 -18 254 -18 246 -10 c 128,-1,2
 238 -2 238 -2 238 9 c 0,3,4
 238 18 238 18 247.5 24.5 c 128,-1,5
 257 31 257 31 274 35 c 0,6,7
 407 58 407 58 494.5 173.5 c 128,-1,8
 582 289 582 289 582 441 c 1,9,10
 520 389 520 389 465 361.5 c 128,-1,11
 410 334 410 334 370 334 c 0,12,13
 289 334 289 334 188.5 457 c 128,-1,14
 88 580 88 580 88 678 c 0,15,16
 88 807 88 807 206 937 c 128,-1,17
 324 1067 324 1067 441 1067 c 0,18,19
 557 1067 557 1067 675 904.5 c 128,-1,20
 793 742 793 742 793 582 c 0,21,22
 793 371 793 371 621 176.5 c 128,-1,23
 449 -18 449 -18 264 -18 c 0,0,1
379 396 m 0,24,25
 425 396 425 396 487.5 440 c 128,-1,26
 550 484 550 484 617 564 c 1,27,-1
 617 705 l 2,28,29
 617 820 617 820 566.5 917 c 128,-1,30
 516 1014 516 1014 459 1014 c 0,31,32
 393 1014 393 1014 333.5 908.5 c 128,-1,33
 274 803 274 803 274 688 c 0,34,35
 274 580 274 580 307 488 c 128,-1,36
 340 396 340 396 379 396 c 0,24,25
EndSplineSet
EndChar

StartChar: colon
Encoding: 58 58 29
Width: 557
GlyphClass: 2
Flags: W
LayerCount: 2
Fore
SplineSet
215 -10 m 0,0,1
 174 -10 174 -10 145.5 21.5 c 128,-1,2
 117 53 117 53 117 98 c 0,3,4
 117 162 117 162 154 208 c 128,-1,5
 191 254 191 254 244 254 c 0,6,7
 285 254 285 254 313.5 225.5 c 128,-1,8
 342 197 342 197 342 156 c 0,9,10
 342 88 342 88 305 39 c 128,-1,11
 268 -10 268 -10 215 -10 c 0,0,1
312 420 m 0,12,13
 271 420 271 420 243 451 c 128,-1,14
 215 482 215 482 215 527 c 0,15,16
 215 592 215 592 252 638 c 128,-1,17
 289 684 289 684 342 684 c 0,18,19
 383 684 383 684 411 655.5 c 128,-1,20
 439 627 439 627 439 586 c 0,21,22
 439 518 439 518 402 469 c 128,-1,23
 365 420 365 420 312 420 c 0,12,13
EndSplineSet
EndChar

StartChar: semicolon
Encoding: 59 59 30
Width: 703
GlyphClass: 2
Flags: W
LayerCount: 2
Fore
SplineSet
264 -293 m 0,0,1
 252 -293 252 -293 243 -284 c 128,-1,2
 234 -275 234 -275 234 -264 c 0,3,4
 234 -248 234 -248 244 -228.5 c 128,-1,5
 254 -209 254 -209 273 -186 c 1,6,-1
 322 -107 l 2,7,8
 342 -74 342 -74 351.5 -49.5 c 128,-1,9
 361 -25 361 -25 361 -10 c 0,10,11
 361 0 361 0 341.5 26.5 c 128,-1,12
 322 53 322 53 312 68 c 0,13,14
 293 92 293 92 283 116.5 c 128,-1,15
 273 141 273 141 273 166 c 0,16,17
 273 207 273 207 307.5 235.5 c 128,-1,18
 342 264 342 264 391 264 c 0,19,20
 439 264 439 264 473.5 226.5 c 128,-1,21
 508 189 508 189 508 137 c 0,22,23
 508 86 508 86 463 -5 c 128,-1,24
 418 -96 418 -96 332 -225 c 0,25,26
 314 -256 314 -256 295.5 -274.5 c 128,-1,27
 277 -293 277 -293 264 -293 c 0,0,1
459 518 m 0,28,29
 418 518 418 518 389.5 549 c 128,-1,30
 361 580 361 580 361 625 c 0,31,32
 361 689 361 689 398.5 735 c 128,-1,33
 436 781 436 781 488 781 c 0,34,35
 529 781 529 781 557.5 753 c 128,-1,36
 586 725 586 725 586 684 c 0,37,38
 586 615 586 615 549 566.5 c 128,-1,39
 512 518 512 518 459 518 c 0,28,29
EndSplineSet
EndChar

StartChar: less
Encoding: 60 60 31
Width: 1068
GlyphClass: 2
Flags: W
LayerCount: 2
Fore
SplineSet
732 908 m 1,0,-1
 806 836 l 1,1,-1
 486 516 l 1,2,-1
 804 200 l 1,3,-1
 732 128 l 1,4,-1
 342 516 l 1,5,-1
 732 908 l 1,0,-1
EndSplineSet
EndChar

StartChar: equal
Encoding: 61 61 32
Width: 908
GlyphClass: 2
Flags: W
LayerCount: 2
Fore
SplineSet
117 195 m 1,0,-1
 195 332 l 1,1,-1
 791 332 l 1,2,-1
 713 195 l 1,3,-1
 117 195 l 1,0,-1
117 488 m 1,4,-1
 195 625 l 1,5,-1
 791 625 l 1,6,-1
 713 488 l 1,7,-1
 117 488 l 1,4,-1
EndSplineSet
EndChar

StartChar: greater
Encoding: 62 62 33
Width: 1068
GlyphClass: 2
Flags: W
LayerCount: 2
Fore
SplineSet
866 516 m 1,0,-1
 476 128 l 1,1,-1
 404 200 l 1,2,-1
 722 516 l 1,3,-1
 402 836 l 1,4,-1
 476 908 l 1,5,-1
 866 516 l 1,0,-1
EndSplineSet
EndChar

StartChar: question
Encoding: 63 63 34
Width: 1035
GlyphClass: 2
Flags: W
LayerCount: 2
Fore
SplineSet
498 -78 m 0,0,1
 449 -78 449 -78 415 -44 c 128,-1,2
 381 -10 381 -10 381 39 c 0,3,4
 381 92 381 92 421 129 c 128,-1,5
 461 166 461 166 518 166 c 0,6,7
 562 166 562 166 593.5 135 c 128,-1,8
 625 104 625 104 625 59 c 0,9,10
 625 2 625 2 588 -38 c 128,-1,11
 551 -78 551 -78 498 -78 c 0,0,1
537 234 m 256,12,13
 525 234 525 234 516.5 246 c 128,-1,14
 508 258 508 258 508 273 c 0,15,16
 508 318 508 318 533.5 375 c 128,-1,17
 559 432 559 432 605 498 c 1,18,19
 676 582 676 582 714 677.5 c 128,-1,20
 752 773 752 773 752 869 c 0,21,22
 752 945 752 945 706 1000 c 128,-1,23
 660 1055 660 1055 596 1055 c 0,24,25
 545 1055 545 1055 509 1042 c 128,-1,26
 473 1029 473 1029 459 1006 c 1,27,28
 527 1006 527 1006 576 963 c 128,-1,29
 625 920 625 920 625 859 c 0,30,31
 625 779 625 779 526.5 697 c 128,-1,32
 428 615 428 615 332 615 c 0,33,34
 291 615 291 615 262.5 655 c 128,-1,35
 234 695 234 695 234 752 c 0,36,37
 234 883 234 883 341.5 993.5 c 128,-1,38
 449 1104 449 1104 576 1104 c 256,39,40
 703 1104 703 1104 810.5 1015 c 128,-1,41
 918 926 918 926 918 820 c 0,42,43
 918 762 918 762 880 698.5 c 128,-1,44
 842 635 842 635 771 576 c 0,45,46
 674 494 674 494 620 417 c 128,-1,47
 566 340 566 340 566 283 c 0,48,49
 566 264 566 264 557.5 249 c 128,-1,50
 549 234 549 234 537 234 c 256,12,13
342 752 m 0,51,52
 391 752 391 752 449.5 807.5 c 128,-1,53
 508 863 508 863 508 908 c 0,54,55
 508 934 508 934 479.5 953.5 c 128,-1,56
 451 973 451 973 410 977 c 1,57,58
 355 936 355 936 324 887 c 128,-1,59
 293 838 293 838 293 791 c 0,60,61
 293 775 293 775 307.5 763.5 c 128,-1,62
 322 752 322 752 342 752 c 0,51,52
EndSplineSet
EndChar

StartChar: at
Encoding: 64 64 35
Width: 1760
GlyphClass: 2
Flags: W
LayerCount: 2
Fore
SplineSet
936 128 m 1,0,1
 800 -2 800 -2 668 -2 c 0,2,3
 504 -2 504 -2 462 164 c 0,4,5
 450 212 450 212 450 262 c 2,6,-1
 450 314 l 1,7,-1
 458 348 l 2,8,9
 488 476 488 476 575 601 c 128,-1,10
 662 726 662 726 772 786 c 128,-1,11
 882 846 882 846 970 846 c 0,12,13
 1112 846 1112 846 1176 702 c 1,14,-1
 1228 824 l 1,15,-1
 1368 824 l 1,16,-1
 1094 180 l 1,17,18
 1094 160 1094 160 1102 142 c 1,19,20
 1112 132 1112 132 1138 128 c 1,21,22
 1184 128 1184 128 1258 174 c 0,23,24
 1356 236 1356 236 1434 343 c 128,-1,25
 1512 450 1512 450 1532 560 c 2,26,-1
 1540 604 l 1,27,-1
 1542 656 l 2,28,29
 1544 726 1544 726 1518 802 c 0,30,31
 1476 924 1476 924 1338 992 c 0,32,33
 1220 1052 1220 1052 1078 1052 c 0,34,35
 786 1052 786 1052 567 861 c 128,-1,36
 348 670 348 670 284 380 c 0,37,38
 266 298 266 298 266 224 c 0,39,40
 266 -50 266 -50 492 -154 c 0,41,42
 636 -220 636 -220 828 -220 c 0,43,44
 1204 -220 1204 -220 1428 14 c 1,45,-1
 1568 14 l 1,46,47
 1444 -182 1444 -182 1138 -286 c 0,48,49
 992 -336 992 -336 804 -336 c 0,50,51
 448 -336 448 -336 278 -162 c 0,52,53
 146 -26 146 -26 146 196 c 0,54,55
 146 464 146 464 320 730 c 0,56,57
 454 936 454 936 661 1051 c 128,-1,58
 868 1166 868 1166 1110 1166 c 0,59,60
 1524 1166 1524 1166 1634 852 c 0,61,62
 1662 770 1662 770 1660 686 c 2,63,-1
 1658 624 l 1,64,-1
 1646 556 l 2,65,66
 1608 342 1608 342 1402 156 c 0,67,68
 1224 -4 1224 -4 1058 -4 c 2,69,-1
 1036 -4 l 1,70,-1
 1006 0 l 2,71,72
 960 6 960 6 934 60 c 1,73,-1
 932 86 l 1,74,-1
 936 128 l 1,0,1
602 340 m 2,75,-1
 596 302 l 1,76,-1
 594 264 l 2,77,78
 590 202 590 202 625 158 c 128,-1,79
 660 114 660 114 720 114 c 0,80,81
 844 114 844 114 926 218 c 1,82,83
 978 258 978 258 1028 350 c 0,84,85
 1076 436 1076 436 1088 508 c 2,86,-1
 1094 542 l 1,87,-1
 1096 578 l 2,88,89
 1100 642 1100 642 1060 687 c 128,-1,90
 1020 732 1020 732 956 732 c 0,91,92
 800 732 800 732 660 490 c 0,93,94
 612 408 612 408 602 340 c 2,75,-1
EndSplineSet
EndChar

StartChar: bracketleft
Encoding: 91 91 36
Width: 556
GlyphClass: 2
Flags: W
LayerCount: 2
Fore
SplineSet
50 -398 m 1,0,-1
 442 1432 l 1,1,-1
 830 1432 l 1,2,-1
 798 1286 l 1,3,-1
 586 1286 l 1,4,-1
 258 -252 l 1,5,-1
 470 -252 l 1,6,-1
 438 -398 l 1,7,-1
 50 -398 l 1,0,-1
EndSplineSet
EndChar

StartChar: backslash
Encoding: 92 92 37
Width: 556
GlyphClass: 2
Flags: W
LayerCount: 2
Fore
SplineSet
416 -24 m 1,0,-1
 0 1456 l 1,1,-1
 142 1456 l 1,2,-1
 556 -24 l 1,3,-1
 416 -24 l 1,0,-1
EndSplineSet
EndChar

StartChar: bracketright
Encoding: 93 93 38
Width: 556
GlyphClass: 2
Flags: W
LayerCount: 2
Fore
SplineSet
340 -398 m 1,0,-1
 -48 -398 l 1,1,-1
 -16 -252 l 1,2,-1
 196 -252 l 1,3,-1
 524 1286 l 1,4,-1
 312 1286 l 1,5,-1
 344 1432 l 1,6,-1
 732 1432 l 1,7,-1
 340 -398 l 1,0,-1
EndSplineSet
EndChar

StartChar: asciicircum
Encoding: 94 94 39
Width: 938
GlyphClass: 2
Flags: W
LayerCount: 2
Fore
SplineSet
234 674 m 1,0,-1
 52 674 l 1,1,-1
 398 1456 l 1,2,-1
 540 1456 l 1,3,-1
 886 674 l 1,4,-1
 708 674 l 1,5,-1
 468 1256 l 1,6,-1
 234 674 l 1,0,-1
EndSplineSet
EndChar

StartChar: underscore
Encoding: 95 95 40
Width: 1112
GlyphClass: 2
Flags: W
LayerCount: 2
Fore
SplineSet
-30 -398 m 1,0,-1
 -30 -270 l 1,1,-1
 1134 -270 l 1,2,-1
 1134 -398 l 1,3,-1
 -30 -398 l 1,0,-1
EndSplineSet
EndChar

StartChar: grave
Encoding: 96 96 41
Width: 666
GlyphClass: 2
Flags: W
LayerCount: 2
Fore
SplineSet
454 1166 m 1,0,-1
 312 1166 l 1,1,-1
 86 1440 l 1,2,-1
 322 1440 l 1,3,-1
 454 1166 l 1,0,-1
EndSplineSet
EndChar

StartChar: braceleft
Encoding: 123 123 42
Width: 668
GlyphClass: 2
Flags: W
LayerCount: 2
Fore
SplineSet
184 598 m 1,0,1
 336 598 336 598 400 744 c 1,2,-1
 434 854 l 1,3,-1
 466 974 l 2,4,5
 480 1042 480 1042 520 1202 c 0,6,7
 550 1312 550 1312 650 1396 c 0,8,9
 686 1426 686 1426 756 1446 c 1,10,-1
 804 1454 l 1,11,-1
 878 1456 l 1,12,-1
 934 1456 l 1,13,-1
 900 1302 l 1,14,-1
 868 1302 l 2,15,16
 770 1302 770 1302 724 1264 c 0,17,18
 690 1236 690 1236 658 1102 c 2,19,-1
 644 1042 l 1,20,-1
 614 898 l 1,21,-1
 596 824 l 2,22,23
 590 800 590 800 578 780 c 0,24,25
 536 676 536 676 484 623 c 128,-1,26
 432 570 432 570 328 518 c 1,27,28
 468 460 468 460 468 296 c 0,29,30
 468 244 468 244 438 78 c 2,31,-1
 392 -178 l 1,32,33
 392 -220 392 -220 414 -242 c 1,34,-1
 450 -258 l 1,35,36
 486 -268 486 -268 532 -268 c 2,37,-1
 564 -268 l 1,38,-1
 532 -420 l 1,39,-1
 476 -420 l 2,40,41
 378 -420 378 -420 342 -406 c 0,42,43
 292 -386 292 -386 256 -334 c 1,44,-1
 234 -278 l 1,45,-1
 226 -206 l 1,46,47
 226 -160 226 -160 244 -72 c 2,48,-1
 268 46 l 1,49,-1
 296 194 l 1,50,-1
 304 290 l 2,51,52
 310 352 310 352 264 398 c 1,53,54
 214 438 214 438 150 438 c 1,55,-1
 184 598 l 1,0,1
EndSplineSet
EndChar

StartChar: bar
Encoding: 124 124 43
Width: 520
GlyphClass: 2
Flags: W
LayerCount: 2
Fore
SplineSet
184 -420 m 1,0,-1
 184 1456 l 1,1,-1
 336 1456 l 1,2,-1
 336 -420 l 1,3,-1
 184 -420 l 1,0,-1
EndSplineSet
EndChar

StartChar: braceright
Encoding: 125 125 44
Width: 668
GlyphClass: 2
Flags: W
LayerCount: 2
Fore
SplineSet
740 598 m 1,0,-1
 706 438 l 1,1,2
 632 438 632 438 570 398 c 128,-1,3
 508 358 508 358 486 290 c 2,4,-1
 456 200 l 1,5,-1
 372 -154 l 2,6,7
 354 -230 354 -230 310 -282 c 2,8,-1
 274 -324 l 1,9,-1
 234 -364 l 1,10,-1
 194 -386 l 1,11,-1
 134 -410 l 1,12,-1
 86 -418 l 1,13,-1
 10 -420 l 1,14,-1
 -44 -420 l 1,15,-1
 -12 -268 l 1,16,-1
 18 -268 l 2,17,18
 116 -268 116 -268 159 -231 c 128,-1,19
 202 -194 202 -194 230 -66 c 2,20,-1
 272 124 l 1,21,-1
 304 244 l 2,22,23
 354 432 354 432 558 518 c 1,24,25
 460 566 460 566 432 656 c 0,26,27
 422 688 422 688 422 748 c 0,28,29
 422 838 422 838 448 958 c 2,30,-1
 474 1078 l 1,31,-1
 486 1142 l 1,32,-1
 496 1212 l 1,33,-1
 496 1222 l 2,34,35
 496 1302 496 1302 354 1302 c 2,36,-1
 324 1302 l 1,37,-1
 358 1456 l 1,38,-1
 412 1456 l 2,39,40
 584 1456 584 1456 634 1370 c 0,41,42
 660 1326 660 1326 660 1240 c 1,43,-1
 650 1138 l 1,44,-1
 592 834 l 1,45,-1
 582 742 l 1,46,47
 582 686 582 686 624 638 c 1,48,49
 646 620 646 620 674 608 c 1,50,-1
 704 600 l 1,51,-1
 740 598 l 1,0,-1
EndSplineSet
EndChar

StartChar: asciitilde
Encoding: 126 126 45
Width: 1168
GlyphClass: 2
Flags: W
LayerCount: 2
Fore
SplineSet
84 544 m 1,0,-1
 84 744 l 1,1,2
 190 862 190 862 356 862 c 0,3,4
 402 862 402 862 480 844 c 1,5,6
 526 826 526 826 664 776 c 2,7,-1
 764 740 l 1,8,-1
 806 730 l 1,9,-1
 832 730 l 2,10,11
 950 730 950 730 1084 864 c 1,12,-1
 1084 658 l 1,13,14
 1024 604 1024 604 960 572 c 1,15,16
 876 544 876 544 814 546 c 2,17,-1
 758 548 l 1,18,-1
 726 548 l 1,19,20
 718 552 718 552 704 556 c 0,21,22
 662 568 662 568 524 628 c 0,23,24
 414 676 414 676 340 676 c 0,25,26
 276 676 276 676 222 650 c 1,27,-1
 162 612 l 1,28,-1
 136 592 l 1,29,-1
 84 544 l 1,0,-1
EndSplineSet
EndChar

StartChar: cent
Encoding: 162 162 46
Width: 721
GlyphClass: 2
Flags: W
LayerCount: 2
Fore
SplineSet
598 156 m 1,0,1
 537 71 537 71 467 31 c 128,-1,2
 397 -9 397 -9 304 -17 c 1,3,-1
 228 -265 l 1,4,-1
 187 -265 l 1,5,-1
 262 -17 l 1,6,7
 177 -8 177 -8 128.5 47 c 128,-1,8
 80 102 80 102 80 188 c 0,9,10
 80 345 80 345 191.5 478.5 c 128,-1,11
 303 612 303 612 457 638 c 1,12,-1
 541 917 l 1,13,-1
 580 917 l 1,14,-1
 499 638 l 1,15,16
 580 638 580 638 616.5 607 c 128,-1,17
 653 576 653 576 653 523 c 0,18,19
 653 482 653 482 631.5 455.5 c 128,-1,20
 610 429 610 429 580 429 c 0,21,22
 557 429 557 429 544 442 c 128,-1,23
 531 455 531 455 531 476 c 0,24,25
 531 491 531 491 536 502 c 128,-1,26
 541 513 541 513 560.5 534.5 c 128,-1,27
 580 556 580 556 580 570 c 0,28,29
 580 578 580 578 575 585 c 0,30,31
 565 596 565 596 549.5 601 c 128,-1,32
 534 606 534 606 489 606 c 1,33,-1
 322 49 l 1,34,-1
 352 47 l 1,35,36
 470 47 470 47 580 173 c 1,37,-1
 598 156 l 1,0,1
284 57 m 1,38,-1
 445 598 l 1,39,40
 383 570 383 570 342 533 c 0,41,42
 274 467 274 467 237 380.5 c 128,-1,43
 200 294 200 294 200 205 c 0,44,45
 200 146 200 146 224 108 c 0,46,47
 243 81 243 81 284 57 c 1,38,-1
EndSplineSet
EndChar

StartChar: multiply
Encoding: 215 215 47
Width: 975
GlyphClass: 2
Flags: W
LayerCount: 2
Fore
SplineSet
267 230 m 1,0,-1
 515 479 l 1,1,-1
 267 728 l 1,2,-1
 308 768 l 1,3,-1
 556 520 l 1,4,-1
 805 768 l 1,5,-1
 844 728 l 1,6,-1
 595 480 l 1,7,-1
 845 230 l 1,8,-1
 805 190 l 1,9,-1
 555 439 l 1,10,-1
 307 190 l 1,11,-1
 267 230 l 1,0,-1
EndSplineSet
EndChar

StartChar: divide
Encoding: 247 247 48
Width: 1053
GlyphClass: 2
Flags: W
LayerCount: 2
Fore
SplineSet
416 107 m 0,0,1
 416 152 416 152 447.5 183.5 c 128,-1,2
 479 215 479 215 523 215 c 0,3,4
 568 215 568 215 599.5 186.5 c 128,-1,5
 631 158 631 158 631 117 c 0,6,7
 631 72 631 72 602.5 41 c 128,-1,8
 574 10 574 10 533 10 c 0,9,10
 484 10 484 10 450 38 c 128,-1,11
 416 66 416 66 416 107 c 0,0,1
117 330 m 1,12,-1
 117 451 l 1,13,-1
 936 451 l 1,14,-1
 936 330 l 1,15,-1
 117 330 l 1,12,-1
416 664 m 0,16,17
 416 709 416 709 447.5 740 c 128,-1,18
 479 771 479 771 523 771 c 0,19,20
 568 771 568 771 599.5 743 c 128,-1,21
 631 715 631 715 631 674 c 0,22,23
 631 629 631 629 602.5 597.5 c 128,-1,24
 574 566 574 566 533 566 c 0,25,26
 484 566 484 566 450 594.5 c 128,-1,27
 416 623 416 623 416 664 c 0,16,17
EndSplineSet
EndChar

StartChar: tm_visarga
Encoding: 2947 2947 49
Width: 1244
GlyphClass: 2
Flags: W
LayerCount: 2
Fore
SplineSet
312 0 m 0,0,1
 187 0 187 0 113 29.5 c 128,-1,2
 39 59 39 59 39 107 c 0,3,4
 39 227 39 227 117 348 c 128,-1,5
 195 469 195 469 273 469 c 0,6,7
 357 469 357 469 427.5 361.5 c 128,-1,8
 498 254 498 254 498 127 c 0,9,10
 498 70 498 70 447 35 c 128,-1,11
 396 0 396 0 312 0 c 0,0,1
273 68 m 0,12,13
 301 68 301 68 316.5 82 c 128,-1,14
 332 96 332 96 332 117 c 0,15,16
 332 195 332 195 291 268.5 c 128,-1,17
 250 342 250 342 205 342 c 0,18,19
 166 342 166 342 127 269.5 c 128,-1,20
 88 197 88 197 88 127 c 0,21,22
 88 105 88 105 146.5 86.5 c 128,-1,23
 205 68 205 68 273 68 c 0,12,13
1016 0 m 0,24,25
 887 0 887 0 809.5 29.5 c 128,-1,26
 732 59 732 59 732 107 c 0,27,28
 732 227 732 227 814 348 c 128,-1,29
 896 469 896 469 977 469 c 0,30,31
 1061 469 1061 469 1131 358.5 c 128,-1,32
 1201 248 1201 248 1201 117 c 0,33,34
 1201 64 1201 64 1150.5 32 c 128,-1,35
 1100 0 1100 0 1016 0 c 0,24,25
977 68 m 0,36,37
 1004 68 1004 68 1019.5 82 c 128,-1,38
 1035 96 1035 96 1035 117 c 0,39,40
 1035 195 1035 195 994 268.5 c 128,-1,41
 953 342 953 342 908 342 c 0,42,43
 869 342 869 342 830 269.5 c 128,-1,44
 791 197 791 197 791 127 c 0,45,46
 791 105 791 105 849.5 86.5 c 128,-1,47
 908 68 908 68 977 68 c 0,36,37
674 762 m 0,48,49
 541 762 541 762 461 791 c 128,-1,50
 381 820 381 820 381 869 c 0,51,52
 381 988 381 988 463 1109 c 128,-1,53
 545 1230 545 1230 625 1230 c 0,54,55
 709 1230 709 1230 779.5 1120 c 128,-1,56
 850 1010 850 1010 850 879 c 0,57,58
 850 826 850 826 802 794 c 128,-1,59
 754 762 754 762 674 762 c 0,48,49
625 830 m 0,60,61
 652 830 652 830 668 843.5 c 128,-1,62
 684 857 684 857 684 879 c 0,63,64
 684 957 684 957 643 1030.5 c 128,-1,65
 602 1104 602 1104 557 1104 c 0,66,67
 518 1104 518 1104 478.5 1031.5 c 128,-1,68
 439 959 439 959 439 889 c 0,69,70
 439 867 439 867 498 848.5 c 128,-1,71
 557 830 557 830 625 830 c 0,60,61
EndSplineSet
EndChar

StartChar: tm_a
Encoding: 2949 2949 50
Width: 1680
GlyphClass: 2
Flags: W
LayerCount: 2
Fore
SplineSet
1391 -127 m 2,0,1
 1375 -127 1375 -127 1363.5 -112.5 c 128,-1,2
 1352 -98 1352 -98 1352 -78 c 0,3,4
 1352 -39 1352 -39 1354.5 -11.5 c 128,-1,5
 1357 16 1357 16 1361 29 c 0,6,7
 1371 84 1371 84 1376 133 c 128,-1,8
 1381 182 1381 182 1381 225 c 1,9,10
 1326 215 1326 215 1272.5 210 c 128,-1,11
 1219 205 1219 205 1166 205 c 1,12,13
 1064 55 1064 55 875 -31 c 128,-1,14
 686 -117 686 -117 453 -117 c 0,15,16
 271 -117 271 -117 152 -42 c 128,-1,17
 33 33 33 33 33 146 c 0,18,19
 33 203 33 203 76 238 c 128,-1,20
 119 273 119 273 189 273 c 2,21,-1
 1000 273 l 1,22,23
 1029 312 1029 312 1044 370 c 128,-1,24
 1059 428 1059 428 1059 498 c 0,25,26
 1059 627 1059 627 994.5 704 c 128,-1,27
 930 781 930 781 824 781 c 0,28,29
 723 781 723 781 656.5 709 c 128,-1,30
 590 637 590 637 590 527 c 0,31,32
 590 494 590 494 601.5 471.5 c 128,-1,33
 613 449 613 449 629 449 c 0,34,35
 654 449 654 449 680.5 498 c 128,-1,36
 707 547 707 547 707 596 c 0,37,38
 707 613 707 613 697 649.5 c 128,-1,39
 687 686 687 686 687 703 c 0,40,41
 687 711 687 711 699 717 c 128,-1,42
 711 723 711 723 727 723 c 2,43,-1
 766 723 l 2,44,45
 814 723 814 723 848.5 685.5 c 128,-1,46
 883 648 883 648 883 596 c 0,47,48
 883 502 883 502 834 422 c 128,-1,49
 785 342 785 342 727 342 c 0,50,51
 646 342 646 342 588.5 399.5 c 128,-1,52
 531 457 531 457 531 537 c 0,53,54
 531 670 531 670 645.5 764.5 c 128,-1,55
 760 859 760 859 922 859 c 0,56,57
 1051 859 1051 859 1142.5 752.5 c 128,-1,58
 1234 646 1234 646 1234 498 c 0,59,60
 1234 439 1234 439 1224.5 382.5 c 128,-1,61
 1215 326 1215 326 1195 273 c 1,62,63
 1258 273 1258 273 1307.5 283 c 128,-1,64
 1357 293 1357 293 1391 312 c 1,65,66
 1404 395 1404 395 1412 500 c 128,-1,67
 1420 605 1420 605 1420 732 c 0,68,69
 1420 752 1420 752 1434.5 766.5 c 128,-1,70
 1449 781 1449 781 1469 781 c 2,71,-1
 1508 781 l 2,72,73
 1545 781 1545 781 1570.5 755.5 c 128,-1,74
 1596 730 1596 730 1596 693 c 0,75,76
 1596 582 1596 582 1561.5 361.5 c 128,-1,77
 1527 141 1527 141 1527 29 c 1,78,79
 1523 -37 1523 -37 1502.5 -82 c 128,-1,80
 1482 -127 1482 -127 1459 -127 c 2,81,-1
 1391 -127 l 2,0,1
453 -49 m 0,82,83
 607 -49 607 -49 744 20.5 c 128,-1,84
 881 90 881 90 971 215 c 1,85,-1
 170 215 l 2,86,87
 135 215 135 215 113.5 196.5 c 128,-1,88
 92 178 92 178 92 146 c 0,89,90
 92 70 92 70 202 10.5 c 128,-1,91
 312 -49 312 -49 453 -49 c 0,82,83
EndSplineSet
EndChar

StartChar: tm_aa
Encoding: 2950 2950 51
Width: 1941
GlyphClass: 2
Flags: W
LayerCount: 2
Fore
SplineSet
1156 -400 m 0,0,1
 1033 -400 1033 -400 953 -358 c 128,-1,2
 873 -316 873 -316 873 -254 c 0,3,4
 873 -199 873 -199 974.5 -138.5 c 128,-1,5
 1076 -78 1076 -78 1166 -78 c 0,6,7
 1182 -78 1182 -78 1193.5 -87 c 128,-1,8
 1205 -96 1205 -96 1205 -107 c 0,9,10
 1205 -117 1205 -117 1191.5 -125 c 128,-1,11
 1178 -133 1178 -133 1156 -137 c 0,12,13
 1066 -152 1066 -152 1008.5 -185.5 c 128,-1,14
 951 -219 951 -219 951 -254 c 0,15,16
 951 -291 951 -291 1011.5 -316.5 c 128,-1,17
 1072 -342 1072 -342 1156 -342 c 0,18,19
 1391 -342 1391 -342 1557 -190.5 c 128,-1,20
 1723 -39 1723 -39 1723 176 c 0,21,22
 1723 191 1723 191 1714 203 c 128,-1,23
 1705 215 1705 215 1693 215 c 0,24,25
 1672 215 1672 215 1640.5 188.5 c 128,-1,26
 1609 162 1609 162 1547 98 c 1,27,28
 1545 86 1545 86 1528.5 -10.5 c 128,-1,29
 1512 -107 1512 -107 1479 -117 c 0,30,31
 1465 -121 1465 -121 1443.5 -124 c 128,-1,32
 1422 -127 1422 -127 1391 -127 c 0,33,34
 1371 -127 1371 -127 1356.5 -112.5 c 128,-1,35
 1342 -98 1342 -98 1342 -78 c 0,36,37
 1342 -51 1342 -51 1347 -24.5 c 128,-1,38
 1352 2 1352 2 1361 29 c 1,39,40
 1371 84 1371 84 1376 133 c 128,-1,41
 1381 182 1381 182 1381 225 c 1,42,43
 1326 215 1326 215 1272.5 210 c 128,-1,44
 1219 205 1219 205 1166 205 c 1,45,46
 1064 55 1064 55 875 -31 c 128,-1,47
 686 -117 686 -117 453 -117 c 0,48,49
 271 -117 271 -117 152 -42 c 128,-1,50
 33 33 33 33 33 146 c 0,51,52
 33 203 33 203 70 238 c 128,-1,53
 107 273 107 273 170 273 c 2,54,-1
 1010 273 l 1,55,56
 1033 307 1033 307 1046 364.5 c 128,-1,57
 1059 422 1059 422 1059 498 c 0,58,59
 1059 627 1059 627 994.5 704 c 128,-1,60
 930 781 930 781 824 781 c 0,61,62
 723 781 723 781 656.5 709 c 128,-1,63
 590 637 590 637 590 527 c 0,64,65
 590 494 590 494 601.5 471.5 c 128,-1,66
 613 449 613 449 629 449 c 0,67,68
 654 449 654 449 680.5 498 c 128,-1,69
 707 547 707 547 707 596 c 0,70,71
 707 613 707 613 697 649.5 c 128,-1,72
 687 686 687 686 687 703 c 0,73,74
 687 711 687 711 699 717 c 128,-1,75
 711 723 711 723 727 723 c 2,76,-1
 805 723 l 2,77,78
 838 723 838 723 860.5 685.5 c 128,-1,79
 883 648 883 648 883 596 c 0,80,81
 883 502 883 502 821.5 422 c 128,-1,82
 760 342 760 342 687 342 c 0,83,84
 623 342 623 342 577 399.5 c 128,-1,85
 531 457 531 457 531 537 c 0,86,87
 531 670 531 670 645.5 764.5 c 128,-1,88
 760 859 760 859 922 859 c 0,89,90
 1051 859 1051 859 1142.5 752.5 c 128,-1,91
 1234 646 1234 646 1234 498 c 0,92,93
 1234 439 1234 439 1224.5 382.5 c 128,-1,94
 1215 326 1215 326 1195 273 c 1,95,96
 1258 273 1258 273 1307.5 283 c 128,-1,97
 1357 293 1357 293 1391 312 c 1,98,99
 1400 367 1400 367 1405 472.5 c 128,-1,100
 1410 578 1410 578 1410 732 c 0,101,102
 1410 752 1410 752 1427.5 766.5 c 128,-1,103
 1445 781 1445 781 1469 781 c 2,104,-1
 1508 781 l 2,105,106
 1541 781 1541 781 1563.5 753 c 128,-1,107
 1586 725 1586 725 1586 684 c 0,108,109
 1586 514 1586 514 1578 386 c 128,-1,110
 1570 258 1570 258 1557 176 c 1,111,112
 1629 246 1629 246 1695.5 284 c 128,-1,113
 1762 322 1762 322 1811 322 c 0,114,115
 1848 322 1848 322 1873 279 c 128,-1,116
 1898 236 1898 236 1898 176 c 0,117,118
 1898 -63 1898 -63 1680.5 -231.5 c 128,-1,119
 1463 -400 1463 -400 1156 -400 c 0,0,1
453 -49 m 0,120,121
 611 -49 611 -49 751 20.5 c 128,-1,122
 891 90 891 90 980 215 c 1,123,-1
 170 215 l 2,124,125
 135 215 135 215 113.5 196.5 c 128,-1,126
 92 178 92 178 92 146 c 0,127,128
 92 70 92 70 202 10.5 c 128,-1,129
 312 -49 312 -49 453 -49 c 0,120,121
EndSplineSet
EndChar

StartChar: tm_i
Encoding: 2951 2951 52
Width: 1320
GlyphClass: 2
Flags: W
LayerCount: 2
Fore
SplineSet
21 -420 m 0,0,1
 -31 -420 -31 -420 -68 -386 c 128,-1,2
 -105 -352 -105 -352 -105 -303 c 0,3,4
 -105 -193 -105 -193 -25 -91.5 c 128,-1,5
 55 10 55 10 187 68 c 1,6,7
 139 178 139 178 114.5 281.5 c 128,-1,8
 90 385 90 385 90 479 c 0,9,10
 90 793 90 793 258 982.5 c 128,-1,11
 426 1172 426 1172 705 1172 c 0,12,13
 953 1172 953 1172 1102.5 1025.5 c 128,-1,14
 1252 879 1252 879 1252 635 c 0,15,16
 1252 504 1252 504 1215 359.5 c 128,-1,17
 1178 215 1178 215 1145 215 c 0,18,19
 1133 215 1133 215 1124 221 c 128,-1,20
 1115 227 1115 227 1115 234 c 0,21,22
 1115 252 1115 252 1123 277.5 c 128,-1,23
 1131 303 1131 303 1145 332 c 1,24,25
 1158 383 1158 383 1166 431.5 c 128,-1,26
 1174 480 1174 480 1174 527 c 0,27,28
 1174 740 1174 740 1046 868 c 128,-1,29
 918 996 918 996 705 996 c 0,30,31
 457 996 457 996 307.5 846.5 c 128,-1,32
 158 697 158 697 158 449 c 0,33,34
 158 350 158 350 177.5 258 c 128,-1,35
 197 166 197 166 236 88 c 1,36,37
 291 111 291 111 357.5 124 c 128,-1,38
 424 137 424 137 500 137 c 2,39,-1
 656 137 l 1,40,41
 742 238 742 238 787 346.5 c 128,-1,42
 832 455 832 455 832 557 c 0,43,44
 832 621 832 621 789 676.5 c 128,-1,45
 746 732 746 732 695 732 c 0,46,47
 619 732 619 732 561.5 709 c 128,-1,48
 504 686 504 686 480 645 c 1,49,50
 494 648 494 648 518.5 651 c 128,-1,51
 543 654 543 654 578 654 c 0,52,53
 635 654 635 654 675 611 c 128,-1,54
 715 568 715 568 715 508 c 0,55,56
 715 410 715 410 639.5 312.5 c 128,-1,57
 564 215 564 215 490 215 c 0,58,59
 430 215 430 215 382 283.5 c 128,-1,60
 334 352 334 352 334 439 c 0,61,62
 334 592 334 592 454 701.5 c 128,-1,63
 574 811 574 811 744 811 c 0,64,65
 854 811 854 811 931 736.5 c 128,-1,66
 1008 662 1008 662 1008 557 c 0,67,68
 1008 467 1008 467 960 349.5 c 128,-1,69
 912 232 912 232 822 98 c 1,70,71
 953 21 953 21 1029 -72.5 c 128,-1,72
 1105 -166 1105 -166 1105 -254 c 0,73,74
 1105 -330 1105 -330 1020.5 -375 c 128,-1,75
 936 -420 936 -420 793 -420 c 0,76,77
 687 -420 687 -420 590.5 -379 c 128,-1,78
 494 -338 494 -338 422 -264 c 1,79,80
 316 -340 316 -340 213.5 -380 c 128,-1,81
 111 -420 111 -420 21 -420 c 0,0,1
21 -352 m 0,82,83
 88 -352 88 -352 178 -314.5 c 128,-1,84
 268 -277 268 -277 373 -205 c 1,85,86
 338 -176 338 -176 296 -119.5 c 128,-1,87
 254 -63 254 -63 207 20 c 1,88,89
 90 -37 90 -37 21.5 -124 c 128,-1,90
 -47 -211 -47 -211 -47 -303 c 0,91,92
 -47 -322 -47 -322 -26.5 -337 c 128,-1,93
 -6 -352 -6 -352 21 -352 c 0,82,83
705 -254 m 0,94,95
 826 -254 826 -254 912 -225.5 c 128,-1,96
 998 -197 998 -197 998 -156 c 0,97,98
 998 -107 998 -107 942.5 -52.5 c 128,-1,99
 887 2 887 2 793 49 c 1,100,101
 715 -43 715 -43 646.5 -107.5 c 128,-1,102
 578 -172 578 -172 520 -205 c 1,103,104
 574 -229 574 -229 621 -241.5 c 128,-1,105
 668 -254 668 -254 705 -254 c 0,94,95
412 -156 m 1,106,107
 484 -107 484 -107 541 -47.5 c 128,-1,108
 598 12 598 12 637 78 c 1,109,-1
 500 78 l 2,110,111
 418 78 418 78 358.5 68.5 c 128,-1,112
 299 59 299 59 266 39 c 1,113,114
 303 -37 303 -37 340 -87 c 128,-1,115
 377 -137 377 -137 412 -156 c 1,106,107
441 381 m 0,116,117
 479 381 479 381 519 438.5 c 128,-1,118
 559 496 559 496 559 547 c 0,119,120
 559 562 559 562 550 574 c 128,-1,121
 541 586 541 586 529 586 c 0,122,123
 512 586 512 586 495.5 581 c 128,-1,124
 479 576 479 576 461 566 c 0,125,126
 428 539 428 539 410.5 506 c 128,-1,127
 393 473 393 473 393 439 c 0,128,129
 393 416 393 416 407.5 398.5 c 128,-1,130
 422 381 422 381 441 381 c 0,116,117
EndSplineSet
EndChar

StartChar: tm_ii
Encoding: 2952 2952 53
Width: 1049
GlyphClass: 2
Flags: W
LayerCount: 2
Fore
SplineSet
92 0 m 2,0,1
 80 0 80 0 71 9 c 128,-1,2
 62 18 62 18 62 29 c 0,3,4
 62 404 62 404 206 612 c 128,-1,5
 350 820 350 820 609 820 c 0,6,7
 691 820 691 820 752.5 812.5 c 128,-1,8
 814 805 814 805 854 791 c 1,9,-1
 834 723 l 1,10,11
 785 746 785 746 733.5 754 c 128,-1,12
 682 762 682 762 629 752 c 1,13,14
 691 645 691 645 723.5 498.5 c 128,-1,15
 756 352 756 352 756 176 c 2,16,-1
 756 39 l 2,17,18
 756 23 756 23 747 11.5 c 128,-1,19
 738 0 738 0 727 0 c 2,20,-1
 600 0 l 2,21,22
 584 0 584 0 572.5 11.5 c 128,-1,23
 561 23 561 23 561 39 c 2,24,-1
 561 156 l 2,25,26
 561 391 561 391 523.5 557 c 128,-1,27
 486 723 486 723 434 723 c 0,28,29
 330 723 330 723 250 551 c 128,-1,30
 170 379 170 379 170 156 c 2,31,-1
 170 29 l 2,32,33
 170 18 170 18 161 9 c 128,-1,34
 152 0 152 0 141 0 c 2,35,-1
 92 0 l 2,0,1
375 264 m 256,36,37
 326 264 326 264 292 298 c 128,-1,38
 258 332 258 332 258 381 c 0,39,40
 258 434 258 434 292 471 c 128,-1,41
 326 508 326 508 375 508 c 256,42,43
 424 508 424 508 458 471 c 128,-1,44
 492 434 492 434 492 381 c 0,45,46
 492 332 492 332 458 298 c 128,-1,47
 424 264 424 264 375 264 c 256,36,37
902 254 m 0,48,49
 850 254 850 254 812.5 291 c 128,-1,50
 775 328 775 328 775 381 c 256,51,52
 775 434 775 434 812.5 471 c 128,-1,53
 850 508 850 508 902 508 c 0,54,55
 951 508 951 508 985.5 471 c 128,-1,56
 1020 434 1020 434 1020 381 c 256,57,58
 1020 328 1020 328 985.5 291 c 128,-1,59
 951 254 951 254 902 254 c 0,48,49
EndSplineSet
EndChar

StartChar: tm_u
Encoding: 2953 2953 54
Width: 1604
GlyphClass: 2
Flags: W
LayerCount: 2
Fore
SplineSet
256 -49 m 2,0,1
 187 -49 187 -49 138.5 -6 c 128,-1,2
 90 37 90 37 90 98 c 0,3,4
 90 154 90 154 143.5 196 c 128,-1,5
 197 238 197 238 275 244 c 0,6,7
 420 254 420 254 518.5 364.5 c 128,-1,8
 617 475 617 475 617 625 c 0,9,10
 617 709 617 709 565.5 769.5 c 128,-1,11
 514 830 514 830 441 830 c 0,12,13
 369 830 369 830 311.5 806.5 c 128,-1,14
 254 783 254 783 227 742 c 1,15,16
 246 746 246 746 263.5 749 c 128,-1,17
 281 752 281 752 295 752 c 0,18,19
 348 752 348 752 385 718 c 128,-1,20
 422 684 422 684 422 635 c 0,21,22
 422 547 422 547 346.5 459 c 128,-1,23
 271 371 271 371 197 371 c 0,24,25
 141 371 141 371 105.5 425 c 128,-1,26
 70 479 70 479 70 566 c 0,27,28
 70 717 70 717 190.5 807.5 c 128,-1,29
 311 898 311 898 510 898 c 0,30,31
 639 898 639 898 716 824 c 128,-1,32
 793 750 793 750 793 625 c 0,33,34
 793 461 793 461 655.5 323.5 c 128,-1,35
 518 186 518 186 354 186 c 0,36,37
 285 186 285 186 236 160.5 c 128,-1,38
 187 135 187 135 187 98 c 0,39,40
 187 74 187 74 208 56.5 c 128,-1,41
 229 39 229 39 256 39 c 2,42,-1
 1389 49 l 2,43,44
 1430 49 1430 49 1462 56.5 c 128,-1,45
 1494 64 1494 64 1516 78 c 0,46,47
 1529 88 1529 88 1542 93 c 128,-1,48
 1555 98 1555 98 1564 98 c 0,49,50
 1576 98 1576 98 1585 92 c 128,-1,51
 1594 86 1594 86 1594 78 c 0,52,53
 1594 66 1594 66 1583 55.5 c 128,-1,54
 1572 45 1572 45 1555 39 c 0,55,56
 1529 29 1529 29 1508.5 16.5 c 128,-1,57
 1488 4 1488 4 1477 -10 c 0,58,59
 1459 -29 1459 -29 1438.5 -39 c 128,-1,60
 1418 -49 1418 -49 1398 -49 c 2,61,-1
 256 -49 l 2,0,1
158 518 m 0,62,63
 186 518 186 518 216 568.5 c 128,-1,64
 246 619 246 619 246 664 c 0,65,66
 246 680 246 680 237.5 691.5 c 128,-1,67
 229 703 229 703 217 703 c 0,68,69
 180 703 180 703 149.5 657 c 128,-1,70
 119 611 119 611 119 557 c 0,71,72
 119 541 119 541 131 529.5 c 128,-1,73
 143 518 143 518 158 518 c 0,62,63
EndSplineSet
EndChar

StartChar: tm_uu
Encoding: 2954 2954 55
Width: 1973
GlyphClass: 2
Flags: W
LayerCount: 2
Fore
SplineSet
262 -88 m 2,0,1
 189 -88 189 -88 137.5 -48 c 128,-1,2
 86 -8 86 -8 86 49 c 0,3,4
 86 109 86 109 139.5 154 c 128,-1,5
 193 199 193 199 271 205 c 0,6,7
 412 215 412 215 508 325.5 c 128,-1,8
 604 436 604 436 604 586 c 0,9,10
 604 670 604 670 543 730.5 c 128,-1,11
 482 791 482 791 398 791 c 0,12,13
 344 791 344 791 297 767.5 c 128,-1,14
 250 744 250 744 223 703 c 1,15,16
 242 707 242 707 259.5 710 c 128,-1,17
 277 713 277 713 291 713 c 0,18,19
 344 713 344 713 381 679 c 128,-1,20
 418 645 418 645 418 596 c 0,21,22
 418 508 418 508 343 420 c 128,-1,23
 268 332 268 332 193 332 c 0,24,25
 137 332 137 332 101.5 385.5 c 128,-1,26
 66 439 66 439 66 527 c 0,27,28
 66 678 66 678 186.5 768.5 c 128,-1,29
 307 859 307 859 506 859 c 0,30,31
 635 859 635 859 712 785 c 128,-1,32
 789 711 789 711 789 586 c 0,33,34
 789 422 789 422 651.5 284 c 128,-1,35
 514 146 514 146 350 146 c 0,36,37
 281 146 281 146 232.5 121 c 128,-1,38
 184 96 184 96 184 59 c 0,39,40
 184 35 184 35 204.5 17.5 c 128,-1,41
 225 0 225 0 252 0 c 2,42,-1
 1736 49 l 2,43,44
 1777 49 1777 49 1809.5 56.5 c 128,-1,45
 1842 64 1842 64 1863 78 c 0,46,47
 1877 88 1877 88 1889.5 93 c 128,-1,48
 1902 98 1902 98 1912 98 c 0,49,50
 1924 98 1924 98 1932.5 92 c 128,-1,51
 1941 86 1941 86 1941 78 c 0,52,53
 1941 66 1941 66 1930.5 55.5 c 128,-1,54
 1920 45 1920 45 1902 39 c 0,55,56
 1877 29 1877 29 1856.5 16.5 c 128,-1,57
 1836 4 1836 4 1824 -10 c 0,58,59
 1807 -29 1807 -29 1786.5 -39 c 128,-1,60
 1766 -49 1766 -49 1746 -49 c 2,61,-1
 262 -88 l 2,0,1
154 479 m 0,62,63
 182 479 182 479 212 529.5 c 128,-1,64
 242 580 242 580 242 625 c 0,65,66
 242 641 242 641 233.5 652.5 c 128,-1,67
 225 664 225 664 213 664 c 0,68,69
 176 664 176 664 145.5 618 c 128,-1,70
 115 572 115 572 115 518 c 0,71,72
 115 502 115 502 127 490.5 c 128,-1,73
 139 479 139 479 154 479 c 0,62,63
1043 195 m 0,74,75
 986 195 986 195 946 250 c 128,-1,76
 906 305 906 305 906 381 c 0,77,78
 906 551 906 551 1026 671 c 128,-1,79
 1146 791 1146 791 1316 791 c 0,80,81
 1398 791 1398 791 1459 747 c 128,-1,82
 1520 703 1520 703 1531 635 c 1,83,84
 1582 703 1582 703 1654.5 742 c 128,-1,85
 1727 781 1727 781 1805 781 c 2,86,-1
 1932 781 l 2,87,88
 1951 781 1951 781 1951 761.5 c 128,-1,89
 1951 742 1951 742 1932 742 c 2,90,-1
 1883 742 l 2,91,92
 1871 742 1871 742 1856.5 737 c 128,-1,93
 1842 732 1842 732 1824 723 c 1,94,95
 1838 684 1838 684 1846 646.5 c 128,-1,96
 1854 609 1854 609 1854 576 c 0,97,98
 1854 477 1854 477 1839 386 c 128,-1,99
 1824 295 1824 295 1795 215 c 1,100,-1
 1619 215 l 1,101,102
 1643 299 1643 299 1655.5 388 c 128,-1,103
 1668 477 1668 477 1668 566 c 0,104,105
 1668 607 1668 607 1659 635.5 c 128,-1,106
 1650 664 1650 664 1639 664 c 0,107,108
 1604 664 1604 664 1556 578 c 128,-1,109
 1508 492 1508 492 1492 400 c 0,110,111
 1479 320 1479 320 1468 277 c 128,-1,112
 1457 234 1457 234 1443 215 c 1,113,-1
 1277 215 l 1,114,115
 1316 322 1316 322 1335.5 418 c 128,-1,116
 1355 514 1355 514 1355 596 c 0,117,118
 1355 652 1355 652 1329 687.5 c 128,-1,119
 1303 723 1303 723 1258 723 c 0,120,121
 1168 723 1168 723 1091 658.5 c 128,-1,122
 1014 594 1014 594 975 488 c 1,123,124
 1014 525 1014 525 1049 545.5 c 128,-1,125
 1084 566 1084 566 1111 566 c 0,126,127
 1160 566 1160 566 1194.5 532 c 128,-1,128
 1229 498 1229 498 1229 449 c 0,129,130
 1229 340 1229 340 1176 267.5 c 128,-1,131
 1123 195 1123 195 1043 195 c 0,74,75
1004 322 m 0,132,133
 1027 322 1027 322 1049.5 368 c 128,-1,134
 1072 414 1072 414 1072 459 c 0,135,136
 1072 471 1072 471 1066.5 479.5 c 128,-1,137
 1061 488 1061 488 1053 488 c 0,138,139
 1041 488 1041 488 1028.5 480.5 c 128,-1,140
 1016 473 1016 473 1004 459 c 0,141,142
 990 441 990 441 982.5 423.5 c 128,-1,143
 975 406 975 406 975 391 c 0,144,145
 975 363 975 363 983.5 342.5 c 128,-1,146
 992 322 992 322 1004 322 c 0,132,133
EndSplineSet
EndChar

StartChar: tm_e
Encoding: 2958 2958 56
Width: 1156
GlyphClass: 2
Flags: W
LayerCount: 2
Fore
SplineSet
707 0 m 2,0,1
 695 0 695 0 686.5 6 c 128,-1,2
 678 12 678 12 678 20 c 0,3,4
 678 27 678 27 682.5 44 c 128,-1,5
 687 61 687 61 697 88 c 0,6,7
 717 156 717 156 726.5 214.5 c 128,-1,8
 736 273 736 273 736 322 c 2,9,-1
 736 586 l 2,10,11
 736 637 736 637 731.5 671 c 128,-1,12
 727 705 727 705 717 723 c 1,13,-1
 629 723 l 2,14,15
 418 723 418 723 269.5 622 c 128,-1,16
 121 521 121 521 121 381 c 1,17,18
 158 432 158 432 217.5 460 c 128,-1,19
 277 488 277 488 346 488 c 0,20,21
 398 488 398 488 435.5 436.5 c 128,-1,22
 473 385 473 385 473 312 c 0,23,24
 473 193 473 193 417 91.5 c 128,-1,25
 361 -10 361 -10 297 -10 c 0,26,27
 205 -10 205 -10 133.5 90.5 c 128,-1,28
 62 191 62 191 62 322 c 0,29,30
 62 539 62 539 210.5 660 c 128,-1,31
 359 781 359 781 629 781 c 2,32,-1
 971 781 l 2,33,34
 1035 781 1035 781 1090.5 762.5 c 128,-1,35
 1146 744 1146 744 1146 723 c 0,36,37
 1146 711 1146 711 1140.5 702 c 128,-1,38
 1135 693 1135 693 1127 693 c 0,39,40
 1088 707 1088 707 1048 715 c 128,-1,41
 1008 723 1008 723 971 723 c 0,42,43
 943 723 943 723 922.5 705 c 128,-1,44
 902 687 902 687 902 664 c 2,45,-1
 902 264 l 1,46,47
 895 141 895 141 876 70.5 c 128,-1,48
 857 0 857 0 824 0 c 2,49,-1
 707 0 l 2,0,1
209 107 m 256,50,51
 242 107 242 107 269.5 177.5 c 128,-1,52
 297 248 297 248 297 332 c 0,53,54
 297 365 297 365 285 387.5 c 128,-1,55
 273 410 273 410 258 410 c 0,56,57
 219 410 219 410 170 361 c 128,-1,58
 121 312 121 312 121 273 c 0,59,60
 121 211 121 211 148.5 159 c 128,-1,61
 176 107 176 107 209 107 c 256,50,51
EndSplineSet
EndChar

StartChar: tm_ee
Encoding: 2959 2959 57
Width: 1129
GlyphClass: 2
Flags: W
LayerCount: 2
Fore
SplineSet
453 -361 m 1,0,-1
 424 -322 l 1,1,2
 527 -223 527 -223 591.5 -133 c 128,-1,3
 656 -43 656 -43 678 29 c 0,4,5
 697 98 697 98 707 169 c 128,-1,6
 717 240 717 240 717 312 c 2,7,-1
 717 625 l 2,8,9
 717 646 717 646 712 666 c 128,-1,10
 707 686 707 686 697 703 c 1,11,12
 686 713 686 713 663.5 718 c 128,-1,13
 641 723 641 723 609 723 c 0,14,15
 406 723 406 723 263.5 620.5 c 128,-1,16
 121 518 121 518 121 371 c 1,17,18
 168 428 168 428 234.5 458 c 128,-1,19
 301 488 301 488 375 488 c 0,20,21
 418 488 418 488 445.5 446 c 128,-1,22
 473 404 473 404 473 342 c 0,23,24
 473 209 473 209 415 114.5 c 128,-1,25
 357 20 357 20 277 20 c 0,26,27
 176 20 176 20 119 112.5 c 128,-1,28
 62 205 62 205 62 371 c 0,29,30
 62 541 62 541 222.5 661 c 128,-1,31
 383 781 383 781 609 781 c 2,32,-1
 951 781 l 2,33,34
 1000 781 1000 781 1058.5 763.5 c 128,-1,35
 1117 746 1117 746 1117 732 c 0,36,37
 1117 713 1117 713 1108.5 698.5 c 128,-1,38
 1100 684 1100 684 1088 684 c 1,39,40
 1055 703 1055 703 1019.5 713 c 128,-1,41
 984 723 984 723 951 723 c 2,42,-1
 873 723 l 1,43,44
 883 703 883 703 888 680.5 c 128,-1,45
 893 658 893 658 893 635 c 2,46,-1
 893 312 l 2,47,48
 893 209 893 209 878 130 c 128,-1,49
 863 51 863 51 834 0 c 0,50,51
 803 -53 803 -53 722 -129 c 128,-1,52
 641 -205 641 -205 453 -361 c 1,0,-1
219 88 m 0,53,54
 242 88 242 88 269.5 179 c 128,-1,55
 297 270 297 270 297 352 c 0,56,57
 297 371 297 371 288 385.5 c 128,-1,58
 279 400 279 400 268 400 c 0,59,60
 223 400 223 400 177 351.5 c 128,-1,61
 131 303 131 303 131 254 c 0,62,63
 131 186 131 186 156.5 137 c 128,-1,64
 182 88 182 88 219 88 c 0,53,54
EndSplineSet
EndChar

StartChar: tm_ai
Encoding: 2960 2960 58
Width: 1209
GlyphClass: 2
Flags: W
LayerCount: 2
Fore
SplineSet
314 -410 m 0,0,1
 223 -410 223 -410 137 -286 c 128,-1,2
 51 -162 51 -162 51 -29 c 0,3,4
 51 64 51 64 119 129.5 c 128,-1,5
 187 195 187 195 285 195 c 1,6,-1
 822 234 l 2,7,8
 881 238 881 238 934.5 304.5 c 128,-1,9
 988 371 988 371 988 439 c 0,10,11
 988 510 988 510 937.5 587 c 128,-1,12
 887 664 887 664 842 664 c 0,13,14
 807 664 807 664 768 635.5 c 128,-1,15
 729 607 729 607 695 557 c 1,16,-1
 695 400 l 2,17,18
 695 363 695 363 690.5 337 c 128,-1,19
 686 311 686 311 676 293 c 1,20,-1
 510 293 l 1,21,22
 520 322 520 322 520 405 c 128,-1,23
 520 488 520 488 520 508 c 0,24,25
 520 602 520 602 484.5 657.5 c 128,-1,26
 449 713 449 713 393 713 c 0,27,28
 322 713 322 713 260.5 679 c 128,-1,29
 199 645 199 645 158 586 c 1,30,31
 191 600 191 600 225.5 607.5 c 128,-1,32
 260 615 260 615 295 615 c 0,33,34
 352 615 352 615 387 580 c 128,-1,35
 422 545 422 545 422 488 c 0,36,37
 422 387 422 387 376 315.5 c 128,-1,38
 330 244 330 244 266 244 c 0,39,40
 197 244 197 244 133.5 317.5 c 128,-1,41
 70 391 70 391 70 469 c 0,42,43
 70 611 70 611 182.5 696 c 128,-1,44
 295 781 295 781 480 781 c 0,45,46
 557 781 557 781 615.5 737 c 128,-1,47
 674 693 674 693 686 625 c 1,48,49
 738 699 738 699 805.5 740 c 128,-1,50
 873 781 873 781 939 781 c 0,51,52
 1020 781 1020 781 1087 676.5 c 128,-1,53
 1154 572 1154 572 1154 449 c 0,54,55
 1154 340 1154 340 1080 263 c 128,-1,56
 1006 186 1006 186 900 186 c 1,57,-1
 314 137 l 1,58,59
 230 137 230 137 169.5 88 c 128,-1,60
 109 39 109 39 109 -29 c 0,61,62
 109 -113 109 -113 146.5 -183.5 c 128,-1,63
 184 -254 184 -254 227 -254 c 0,64,65
 281 -254 281 -254 332 -162 c 128,-1,66
 383 -70 383 -70 383 29 c 0,67,68
 383 45 383 45 417 56.5 c 128,-1,69
 451 68 451 68 500 68 c 0,70,71
 527 68 527 68 547.5 53.5 c 128,-1,72
 568 39 568 39 568 20 c 0,73,74
 568 -68 568 -68 621 -156 c 128,-1,75
 674 -244 674 -244 725 -244 c 0,76,77
 770 -244 770 -244 814.5 -161 c 128,-1,78
 859 -78 859 -78 881 49 c 0,79,80
 885 70 885 70 898.5 84 c 128,-1,81
 912 98 912 98 930 98 c 2,82,-1
 1008 107 l 2,83,84
 1027 107 1027 107 1042 89.5 c 128,-1,85
 1057 72 1057 72 1057 49 c 0,86,87
 1057 -96 1057 -96 978.5 -243.5 c 128,-1,88
 900 -391 900 -391 822 -391 c 0,89,90
 746 -391 746 -391 666 -313.5 c 128,-1,91
 586 -236 586 -236 529 -107 c 1,92,93
 496 -240 496 -240 435.5 -325 c 128,-1,94
 375 -410 375 -410 314 -410 c 0,0,1
187 361 m 0,95,96
 211 361 211 361 233.5 407 c 128,-1,97
 256 453 256 453 256 498 c 0,98,99
 256 514 256 514 247 525.5 c 128,-1,100
 238 537 238 537 227 537 c 0,101,102
 187 537 187 537 158 510.5 c 128,-1,103
 129 484 129 484 129 449 c 0,104,105
 129 418 129 418 147.5 389.5 c 128,-1,106
 166 361 166 361 187 361 c 0,95,96
EndSplineSet
EndChar

StartChar: tm_o
Encoding: 2962 2962 59
Width: 1250
GlyphClass: 2
Flags: W
LayerCount: 2
Fore
SplineSet
520 -410 m 0,0,1
 410 -410 410 -410 333 -341.5 c 128,-1,2
 256 -273 256 -273 256 -176 c 0,3,4
 256 -146 256 -146 285 -146 c 128,-1,5
 314 -146 314 -146 314 -176 c 0,6,7
 314 -238 314 -238 363 -290 c 128,-1,8
 412 -342 412 -342 471 -342 c 0,9,10
 541 -342 541 -342 606.5 -268.5 c 128,-1,11
 672 -195 672 -195 705 -78 c 0,12,13
 709 -53 709 -53 737.5 -36.5 c 128,-1,14
 766 -20 766 -20 803 -20 c 1,15,16
 760 31 760 31 737.5 91.5 c 128,-1,17
 715 152 715 152 715 215 c 0,18,19
 715 309 715 309 758 389 c 128,-1,20
 801 469 801 469 852 469 c 0,21,22
 859 469 859 469 865 451.5 c 128,-1,23
 871 434 871 434 871 410 c 0,24,25
 871 377 871 377 904 325 c 128,-1,26
 937 273 937 273 959 273 c 0,27,28
 980 273 980 273 999 332 c 128,-1,29
 1018 391 1018 391 1018 459 c 0,30,31
 1018 598 1018 598 907.5 675 c 128,-1,32
 797 752 797 752 598 752 c 0,33,34
 375 752 375 752 252 673 c 128,-1,35
 129 594 129 594 129 449 c 1,36,37
 178 496 178 496 236.5 521.5 c 128,-1,38
 295 547 295 547 354 547 c 0,39,40
 410 547 410 547 450 513 c 128,-1,41
 490 479 490 479 490 430 c 0,42,43
 490 303 490 303 413 195.5 c 128,-1,44
 336 88 336 88 246 88 c 0,45,46
 178 88 178 88 119.5 177 c 128,-1,47
 61 266 61 266 61 371 c 0,48,49
 61 588 61 588 202.5 709 c 128,-1,50
 344 830 344 830 598 830 c 0,51,52
 881 830 881 830 1037 715 c 128,-1,53
 1193 600 1193 600 1193 391 c 0,54,55
 1193 293 1193 293 1137.5 210 c 128,-1,56
 1082 127 1082 127 1018 127 c 0,57,58
 963 127 963 127 909 183.5 c 128,-1,59
 855 240 855 240 822 332 c 1,60,61
 803 305 803 305 793 271.5 c 128,-1,62
 783 238 783 238 783 205 c 0,63,64
 783 146 783 146 805.5 88.5 c 128,-1,65
 828 31 828 31 871 -20 c 1,66,-1
 1076 -20 l 1,67,-1
 1076 -78 l 1,68,-1
 930 -78 l 2,69,70
 906 -78 906 -78 886.5 -94.5 c 128,-1,71
 867 -111 867 -111 861 -137 c 0,72,73
 832 -258 832 -258 736.5 -334 c 128,-1,74
 641 -410 641 -410 520 -410 c 0,0,1
178 215 m 0,75,76
 223 215 223 215 268.5 293 c 128,-1,77
 314 371 314 371 314 449 c 0,78,79
 314 461 314 461 305.5 470 c 128,-1,80
 297 479 297 479 285 479 c 0,81,82
 250 479 250 479 209 453.5 c 128,-1,83
 168 428 168 428 129 381 c 1,84,85
 117 316 117 316 131.5 265.5 c 128,-1,86
 146 215 146 215 178 215 c 0,75,76
EndSplineSet
EndChar

StartChar: tm_oo
Encoding: 2963 2963 60
Width: 1250
GlyphClass: 2
Flags: W
LayerCount: 2
Fore
SplineSet
510 -410 m 0,0,1
 404 -410 404 -410 330 -341.5 c 128,-1,2
 256 -273 256 -273 256 -176 c 0,3,4
 256 -92 256 -92 333 -21.5 c 128,-1,5
 410 49 410 49 500 49 c 0,6,7
 537 49 537 49 562.5 23.5 c 128,-1,8
 588 -2 588 -2 588 -39 c 0,9,10
 588 -86 588 -86 549 -139.5 c 128,-1,11
 510 -193 510 -193 441 -244 c 1,12,13
 430 -244 430 -244 415 -236.5 c 128,-1,14
 400 -229 400 -229 383 -215 c 1,15,16
 420 -162 420 -162 440.5 -120 c 128,-1,17
 461 -78 461 -78 461 -49 c 0,18,19
 461 -37 461 -37 455 -28.5 c 128,-1,20
 449 -20 449 -20 441 -20 c 0,21,22
 395 -20 395 -20 354.5 -68.5 c 128,-1,23
 314 -117 314 -117 314 -176 c 0,24,25
 314 -238 314 -238 363 -290 c 128,-1,26
 412 -342 412 -342 471 -342 c 0,27,28
 539 -342 539 -342 599.5 -285.5 c 128,-1,29
 660 -229 660 -229 686 -137 c 1,30,31
 695 -86 695 -86 728.5 -53 c 128,-1,32
 762 -20 762 -20 803 -20 c 1,33,34
 760 31 760 31 737.5 88.5 c 128,-1,35
 715 146 715 146 715 205 c 0,36,37
 715 303 715 303 758 386 c 128,-1,38
 801 469 801 469 852 469 c 0,39,40
 859 469 859 469 865 451.5 c 128,-1,41
 871 434 871 434 871 410 c 0,42,43
 871 377 871 377 904 325 c 128,-1,44
 937 273 937 273 959 273 c 0,45,46
 980 273 980 273 999 332 c 128,-1,47
 1018 391 1018 391 1018 459 c 0,48,49
 1018 598 1018 598 907.5 675 c 128,-1,50
 797 752 797 752 598 752 c 0,51,52
 375 752 375 752 252 673 c 128,-1,53
 129 594 129 594 129 449 c 1,54,55
 178 496 178 496 238.5 521.5 c 128,-1,56
 299 547 299 547 363 547 c 0,57,58
 416 547 416 547 453 513 c 128,-1,59
 490 479 490 479 490 430 c 0,60,61
 490 303 490 303 413 195.5 c 128,-1,62
 336 88 336 88 246 88 c 0,63,64
 178 88 178 88 119.5 177 c 128,-1,65
 61 266 61 266 61 371 c 0,66,67
 61 588 61 588 202.5 709 c 128,-1,68
 344 830 344 830 598 830 c 0,69,70
 881 830 881 830 1037 712 c 128,-1,71
 1193 594 1193 594 1193 381 c 0,72,73
 1193 287 1193 287 1141.5 207 c 128,-1,74
 1090 127 1090 127 1027 127 c 0,75,76
 969 127 969 127 912 183.5 c 128,-1,77
 855 240 855 240 822 332 c 1,78,79
 803 305 803 305 793 271.5 c 128,-1,80
 783 238 783 238 783 205 c 0,81,82
 783 146 783 146 805.5 88.5 c 128,-1,83
 828 31 828 31 871 -20 c 1,84,-1
 1076 -20 l 1,85,-1
 1076 -78 l 1,86,-1
 930 -78 l 2,87,88
 906 -78 906 -78 886.5 -94.5 c 128,-1,89
 867 -111 867 -111 861 -137 c 0,90,91
 832 -258 832 -258 733.5 -334 c 128,-1,92
 635 -410 635 -410 510 -410 c 0,0,1
178 215 m 0,93,94
 223 215 223 215 268.5 293 c 128,-1,95
 314 371 314 371 314 449 c 0,96,97
 314 461 314 461 305.5 470 c 128,-1,98
 297 479 297 479 285 479 c 0,99,100
 250 479 250 479 209 453.5 c 128,-1,101
 168 428 168 428 129 381 c 1,102,103
 117 316 117 316 131.5 265.5 c 128,-1,104
 146 215 146 215 178 215 c 0,93,94
EndSplineSet
EndChar

StartChar: tm_ka
Encoding: 2965 2965 62
Width: 965
GlyphClass: 2
Flags: W
LayerCount: 2
Fore
SplineSet
338 0 m 0,0,1
 232 0 232 0 133.5 92 c 128,-1,2
 35 184 35 184 35 283 c 0,3,4
 35 344 35 344 87 387 c 128,-1,5
 139 430 139 430 211 430 c 1,6,7
 229 596 229 596 318.5 708 c 128,-1,8
 408 820 408 820 523 820 c 2,9,-1
 699 820 l 2,10,11
 723 820 723 820 740.5 811.5 c 128,-1,12
 758 803 758 803 758 791 c 0,13,14
 758 775 758 775 743.5 763.5 c 128,-1,15
 729 752 729 752 709 752 c 0,16,17
 699 752 699 752 679.5 757 c 128,-1,18
 660 762 660 762 650 762 c 0,19,20
 639 762 639 762 630 753 c 128,-1,21
 621 744 621 744 621 732 c 2,22,-1
 621 430 l 1,23,-1
 797 430 l 2,24,25
 852 430 852 430 888 386 c 128,-1,26
 924 342 924 342 924 273 c 0,27,28
 924 168 924 168 838 79 c 128,-1,29
 752 -10 752 -10 650 -10 c 0,30,31
 631 -10 631 -10 616.5 5 c 128,-1,32
 602 20 602 20 602 39 c 0,33,34
 602 53 602 53 620.5 68.5 c 128,-1,35
 639 84 639 84 670 98 c 1,36,37
 707 129 707 129 727.5 170 c 128,-1,38
 748 211 748 211 748 254 c 0,39,40
 748 307 748 307 729.5 339 c 128,-1,41
 711 371 711 371 680 371 c 2,42,-1
 621 371 l 1,43,44
 607 187 607 187 536 93.5 c 128,-1,45
 465 0 465 0 338 0 c 0,0,1
289 78 m 0,46,47
 340 78 340 78 392.5 176.5 c 128,-1,48
 445 275 445 275 445 371 c 1,49,-1
 201 371 l 2,50,51
 160 371 160 371 132 342.5 c 128,-1,52
 104 314 104 314 104 273 c 0,53,54
 104 209 104 209 166.5 143.5 c 128,-1,55
 229 78 229 78 289 78 c 0,46,47
270 430 m 1,56,-1
 445 430 l 1,57,-1
 445 625 l 2,58,59
 445 648 445 648 436.5 666 c 128,-1,60
 428 684 428 684 416 684 c 0,61,62
 373 684 373 684 321.5 594 c 128,-1,63
 270 504 270 504 270 430 c 1,56,-1
EndSplineSet
EndChar

StartChar: tm_nga
Encoding: 2969 2969 63
Width: 1391
GlyphClass: 2
Flags: W
LayerCount: 2
Fore
SplineSet
732 0 m 2,0,1
 717 0 717 0 705 6 c 128,-1,2
 693 12 693 12 693 20 c 0,3,4
 693 29 693 29 700 45.5 c 128,-1,5
 707 62 707 62 723 88 c 0,6,7
 746 137 746 137 758.5 186.5 c 128,-1,8
 771 236 771 236 771 283 c 0,9,10
 771 307 771 307 762.5 324.5 c 128,-1,11
 754 342 754 342 742 342 c 0,12,13
 713 342 713 342 675 307.5 c 128,-1,14
 637 273 637 273 596 215 c 1,15,16
 596 107 596 107 589 53.5 c 128,-1,17
 582 0 582 0 557 0 c 2,18,-1
 430 0 l 2,19,20
 422 0 422 0 416 6 c 128,-1,21
 410 12 410 12 410 20 c 0,22,23
 410 49 410 49 415 107.5 c 128,-1,24
 420 166 420 166 420 195 c 0,25,26
 420 316 420 316 382 465.5 c 128,-1,27
 344 615 344 615 312 615 c 0,28,29
 268 615 268 615 222 481.5 c 128,-1,30
 176 348 176 348 176 215 c 0,31,32
 176 186 176 186 181 127 c 128,-1,33
 186 68 186 68 186 39 c 0,34,35
 186 23 186 23 180 11.5 c 128,-1,36
 174 0 174 0 166 0 c 2,37,-1
 88 0 l 2,38,39
 76 0 76 0 67.5 14.5 c 128,-1,40
 59 29 59 29 59 49 c 0,41,42
 59 375 59 375 200.5 588 c 128,-1,43
 342 801 342 801 557 801 c 2,44,-1
 635 801 l 2,45,46
 643 801 643 801 648.5 792 c 128,-1,47
 654 783 654 783 654 771 c 0,48,49
 654 760 654 760 645.5 751 c 128,-1,50
 637 742 637 742 625 742 c 0,51,52
 574 742 574 742 536 734.5 c 128,-1,53
 498 727 498 727 479 713 c 1,54,55
 518 645 518 645 545 543 c 128,-1,56
 572 441 572 441 586 312 c 1,57,58
 641 377 641 377 697.5 413 c 128,-1,59
 754 449 754 449 801 449 c 0,60,61
 850 449 850 449 889 380.5 c 128,-1,62
 928 312 928 312 928 225 c 0,63,64
 928 195 928 195 918 153 c 128,-1,65
 908 111 908 111 889 59 c 1,66,-1
 996 59 l 2,67,68
 1041 59 1041 59 1072.5 99 c 128,-1,69
 1104 139 1104 139 1104 195 c 2,70,-1
 1104 586 l 2,71,72
 1104 613 1104 613 1094 669 c 128,-1,73
 1084 725 1084 725 1084 752 c 0,74,75
 1084 764 1084 764 1095.5 772.5 c 128,-1,76
 1107 781 1107 781 1123 781 c 2,77,-1
 1230 781 l 2,78,79
 1252 781 1252 781 1265.5 765.5 c 128,-1,80
 1279 750 1279 750 1279 723 c 2,81,-1
 1279 195 l 2,82,83
 1279 115 1279 115 1254 57.5 c 128,-1,84
 1229 0 1229 0 1191 0 c 2,85,-1
 732 0 l 2,0,1
EndSplineSet
EndChar

StartChar: tm_ca
Encoding: 2970 2970 64
Width: 855
GlyphClass: 2
Flags: W
LayerCount: 2
Fore
SplineSet
338 0 m 0,0,1
 232 0 232 0 133.5 92 c 128,-1,2
 35 184 35 184 35 283 c 0,3,4
 35 344 35 344 87 387 c 128,-1,5
 139 430 139 430 211 430 c 1,6,7
 229 596 229 596 318.5 708 c 128,-1,8
 408 820 408 820 523 820 c 2,9,-1
 699 820 l 2,10,11
 723 820 723 820 740.5 811.5 c 128,-1,12
 758 803 758 803 758 791 c 256,13,14
 758 779 758 779 743.5 770.5 c 128,-1,15
 729 762 729 762 709 762 c 2,16,-1
 660 762 l 2,17,18
 645 762 645 762 633 753 c 128,-1,19
 621 744 621 744 621 732 c 2,20,-1
 621 430 l 1,21,-1
 816 430 l 2,22,23
 828 430 828 430 837 421 c 128,-1,24
 846 412 846 412 846 400 c 0,25,26
 846 389 846 389 831 380 c 128,-1,27
 816 371 816 371 797 371 c 2,28,-1
 621 371 l 1,29,30
 609 215 609 215 528 107.5 c 128,-1,31
 447 0 447 0 338 0 c 0,0,1
289 78 m 0,32,33
 336 78 336 78 385 170 c 128,-1,34
 434 262 434 262 445 371 c 1,35,-1
 201 371 l 2,36,37
 160 371 160 371 132 342.5 c 128,-1,38
 104 314 104 314 104 273 c 0,39,40
 104 209 104 209 166.5 143.5 c 128,-1,41
 229 78 229 78 289 78 c 0,32,33
270 430 m 1,42,-1
 445 430 l 1,43,-1
 445 625 l 2,44,45
 445 648 445 648 436.5 666 c 128,-1,46
 428 684 428 684 416 684 c 0,47,48
 373 684 373 684 321.5 594 c 128,-1,49
 270 504 270 504 270 430 c 1,42,-1
EndSplineSet
EndChar

StartChar: tm_ja
Encoding: 2972 2972 65
Width: 1273
GlyphClass: 2
Flags: W
LayerCount: 2
Fore
SplineSet
281 -391 m 0,0,1
 191 -391 191 -391 114 -268 c 128,-1,2
 37 -145 37 -145 37 0 c 0,3,4
 37 70 37 70 103.5 113 c 128,-1,5
 170 156 170 156 281 156 c 2,6,-1
 770 166 l 2,7,8
 889 166 889 166 961 251 c 128,-1,9
 1033 336 1033 336 1033 479 c 0,10,11
 1033 551 1033 551 1003 612.5 c 128,-1,12
 973 674 973 674 936 674 c 0,13,14
 900 674 900 674 846.5 622 c 128,-1,15
 793 570 793 570 730 479 c 1,16,17
 730 402 730 402 703 337.5 c 128,-1,18
 676 273 676 273 643 273 c 2,19,-1
 545 273 l 2,20,21
 533 273 533 273 524.5 282 c 128,-1,22
 516 291 516 291 516 303 c 0,23,24
 516 318 516 318 518.5 333 c 128,-1,25
 521 348 521 348 525 361 c 0,26,27
 539 400 539 400 547 432.5 c 128,-1,28
 555 465 555 465 555 488 c 0,29,30
 555 578 555 578 512 655 c 128,-1,31
 469 732 469 732 418 732 c 0,32,33
 332 732 332 732 262.5 684.5 c 128,-1,34
 193 637 193 637 164 557 c 1,35,36
 203 590 203 590 246 607.5 c 128,-1,37
 289 625 289 625 330 625 c 0,38,39
 375 625 375 625 406 579 c 128,-1,40
 437 533 437 533 437 469 c 0,41,42
 437 375 437 375 394.5 295 c 128,-1,43
 352 215 352 215 301 215 c 0,44,45
 213 215 213 215 149.5 289 c 128,-1,46
 86 363 86 363 86 469 c 0,47,48
 86 605 86 605 200 703 c 128,-1,49
 314 801 314 801 477 801 c 0,50,51
 574 801 574 801 647.5 733.5 c 128,-1,52
 721 666 721 666 730 566 c 1,53,54
 805 668 805 668 882 724.5 c 128,-1,55
 959 781 959 781 1023 781 c 0,56,57
 1107 781 1107 781 1158 690.5 c 128,-1,58
 1209 600 1209 600 1209 449 c 0,59,60
 1209 299 1209 299 1132 208 c 128,-1,61
 1055 117 1055 117 926 117 c 1,62,-1
 350 98 l 2,63,64
 287 98 287 98 250 71.5 c 128,-1,65
 213 45 213 45 213 0 c 0,66,67
 213 -90 213 -90 259 -167 c 128,-1,68
 305 -244 305 -244 359 -244 c 0,69,70
 391 -244 391 -244 440.5 -174.5 c 128,-1,71
 490 -105 490 -105 496 -98 c 0,72,73
 535 -29 535 -29 582 10 c 128,-1,74
 629 49 629 49 672 49 c 2,75,-1
 1043 49 l 2,76,77
 1066 49 1066 49 1084 20.5 c 128,-1,78
 1102 -8 1102 -8 1102 -49 c 0,79,80
 1102 -158 1102 -158 1033.5 -269.5 c 128,-1,81
 965 -381 965 -381 896 -381 c 0,82,83
 850 -381 850 -381 796 -325.5 c 128,-1,84
 742 -270 742 -270 701 -176 c 0,85,86
 697 -168 697 -168 671 -108.5 c 128,-1,87
 645 -49 645 -49 623 -49 c 0,88,89
 594 -49 594 -49 548 -117.5 c 128,-1,90
 502 -186 502 -186 496 -195 c 0,91,92
 434 -287 434 -287 377 -339 c 128,-1,93
 320 -391 320 -391 281 -391 c 0,0,1
213 322 m 0,94,95
 236 322 236 322 258.5 371 c 128,-1,96
 281 420 281 420 281 469 c 0,97,98
 281 496 281 496 272.5 516.5 c 128,-1,99
 264 537 264 537 252 537 c 0,100,101
 221 537 221 537 183 506 c 128,-1,102
 145 475 145 475 145 449 c 0,103,104
 145 400 145 400 165.5 361 c 128,-1,105
 186 322 186 322 213 322 c 0,94,95
828 -244 m 0,106,107
 850 -244 850 -244 888 -169 c 128,-1,108
 926 -94 926 -94 926 -49 c 0,109,110
 926 -33 926 -33 911 -21.5 c 128,-1,111
 896 -10 896 -10 877 -10 c 2,112,-1
 760 -10 l 2,113,114
 746 -10 746 -10 733.5 -18.5 c 128,-1,115
 721 -27 721 -27 721 -39 c 0,116,117
 721 -82 721 -82 764 -163 c 128,-1,118
 807 -244 807 -244 828 -244 c 0,106,107
EndSplineSet
EndChar

StartChar: tm_nya
Encoding: 2974 2974 66
Width: 1535
GlyphClass: 2
Flags: W
LayerCount: 2
Fore
SplineSet
732 -361 m 0,0,1
 436 -361 436 -361 257 -187.5 c 128,-1,2
 78 -14 78 -14 78 273 c 0,3,4
 78 418 78 418 126 551 c 128,-1,5
 174 684 174 684 225 684 c 0,6,7
 232 684 232 684 238 678 c 128,-1,8
 244 672 244 672 244 664 c 256,9,10
 244 656 244 656 231.5 633.5 c 128,-1,11
 219 611 219 611 215 605 c 0,12,13
 176 539 176 539 156.5 454 c 128,-1,14
 137 369 137 369 137 273 c 0,15,16
 137 12 137 12 300 -145.5 c 128,-1,17
 463 -303 463 -303 732 -303 c 0,18,19
 949 -303 949 -303 1133.5 -125 c 128,-1,20
 1318 53 1318 53 1318 264 c 0,21,22
 1318 287 1318 287 1312.5 304.5 c 128,-1,23
 1307 322 1307 322 1299 322 c 0,24,25
 1262 322 1262 322 1196.5 243 c 128,-1,26
 1131 164 1131 164 1123 156 c 1,27,28
 1109 78 1109 78 1096.5 39 c 128,-1,29
 1084 0 1084 0 1064 0 c 2,30,-1
 947 0 l 2,31,32
 932 0 932 0 920 6 c 128,-1,33
 908 12 908 12 908 20 c 0,34,35
 908 27 908 27 913 44 c 128,-1,36
 918 61 918 61 928 88 c 0,37,38
 947 156 947 156 957 258.5 c 128,-1,39
 967 361 967 361 967 498 c 0,40,41
 967 521 967 521 967 607 c 128,-1,42
 967 693 967 693 957 723 c 1,43,-1
 859 723 l 2,44,45
 648 723 648 723 500 622 c 128,-1,46
 352 521 352 521 352 381 c 1,47,48
 389 432 389 432 448.5 460 c 128,-1,49
 508 488 508 488 576 488 c 0,50,51
 629 488 629 488 666 436.5 c 128,-1,52
 703 385 703 385 703 312 c 0,53,54
 703 193 703 193 647.5 91.5 c 128,-1,55
 592 -10 592 -10 527 -10 c 0,56,57
 436 -10 436 -10 364.5 90.5 c 128,-1,58
 293 191 293 191 293 322 c 0,59,60
 293 539 293 539 441.5 660 c 128,-1,61
 590 781 590 781 859 781 c 2,62,-1
 1162 781 l 2,63,64
 1242 781 1242 781 1309.5 762.5 c 128,-1,65
 1377 744 1377 744 1377 723 c 0,66,67
 1377 711 1377 711 1371 702 c 128,-1,68
 1365 693 1365 693 1357 693 c 0,69,70
 1318 707 1318 707 1278 715 c 128,-1,71
 1238 723 1238 723 1201 723 c 0,72,73
 1178 723 1178 723 1160.5 705 c 128,-1,74
 1143 687 1143 687 1143 664 c 2,75,-1
 1133 254 l 1,76,77
 1178 330 1178 330 1248 375 c 128,-1,78
 1318 420 1318 420 1396 420 c 0,79,80
 1434 420 1434 420 1459 383 c 128,-1,81
 1484 346 1484 346 1484 293 c 0,82,83
 1484 21 1484 21 1263.5 -170 c 128,-1,84
 1043 -361 1043 -361 732 -361 c 0,0,1
439 107 m 0,85,86
 473 107 473 107 500 177.5 c 128,-1,87
 527 248 527 248 527 332 c 0,88,89
 527 365 527 365 515.5 387.5 c 128,-1,90
 504 410 504 410 488 410 c 0,91,92
 449 410 449 410 400.5 361 c 128,-1,93
 352 312 352 312 352 273 c 0,94,95
 352 211 352 211 379 159 c 128,-1,96
 406 107 406 107 439 107 c 0,85,86
EndSplineSet
EndChar

StartChar: tm_tta
Encoding: 2975 2975 67
Width: 1236
GlyphClass: 2
Flags: W
LayerCount: 2
Fore
SplineSet
262 0 m 2,0,1
 189 0 189 0 137.5 57.5 c 128,-1,2
 86 115 86 115 86 195 c 0,3,4
 86 283 86 283 94 369 c 128,-1,5
 102 455 102 455 115 537 c 0,6,7
 137 654 137 654 159.5 717.5 c 128,-1,8
 182 781 182 781 213 781 c 2,9,-1
 311 781 l 2,10,11
 322 781 322 781 331 769.5 c 128,-1,12
 340 758 340 758 340 742 c 0,13,14
 340 725 340 725 333 692.5 c 128,-1,15
 326 660 326 660 311 596 c 0,16,17
 287 498 287 498 274.5 397.5 c 128,-1,18
 262 297 262 297 262 195 c 0,19,20
 262 139 262 139 287 99 c 128,-1,21
 312 59 312 59 350 59 c 2,22,-1
 1189 59 l 2,23,24
 1205 59 1205 59 1217 50 c 128,-1,25
 1229 41 1229 41 1229 29 c 0,26,27
 1229 18 1229 18 1217 9 c 128,-1,28
 1205 0 1205 0 1189 0 c 2,29,-1
 262 0 l 2,0,1
EndSplineSet
EndChar

StartChar: tm_nna
Encoding: 2979 2979 68
Width: 2133
GlyphClass: 2
Flags: W
LayerCount: 2
Fore
SplineSet
326 0 m 0,0,1
 230 0 230 0 141.5 101.5 c 128,-1,2
 53 203 53 203 53 312 c 0,3,4
 53 484 53 484 218 642.5 c 128,-1,5
 383 801 383 801 561 801 c 0,6,7
 648 801 648 801 720.5 769.5 c 128,-1,8
 793 738 793 738 834 684 c 1,9,10
 902 740 902 740 982 770.5 c 128,-1,11
 1062 801 1062 801 1146 801 c 0,12,13
 1219 801 1219 801 1290 770.5 c 128,-1,14
 1361 740 1361 740 1420 684 c 1,15,16
 1504 740 1504 740 1604.5 770.5 c 128,-1,17
 1705 801 1705 801 1811 801 c 0,18,19
 1926 801 1926 801 2024.5 782.5 c 128,-1,20
 2123 764 2123 764 2123 742 c 0,21,22
 2123 727 2123 727 2117 715 c 128,-1,23
 2111 703 2111 703 2104 703 c 0,24,25
 2076 717 2076 717 2034 726.5 c 128,-1,26
 1992 736 1992 736 1937 742 c 1,27,28
 1947 684 1947 684 1947 521.5 c 128,-1,29
 1947 359 1947 359 1947 322 c 0,30,31
 1947 180 1947 180 1927.5 90 c 128,-1,32
 1908 0 1908 0 1869 0 c 2,33,-1
 1771 0 l 2,34,35
 1756 0 1756 0 1744 14.5 c 128,-1,36
 1732 29 1732 29 1732 49 c 0,37,38
 1732 57 1732 57 1739 77.5 c 128,-1,39
 1746 98 1746 98 1752 117 c 0,40,41
 1766 168 1766 168 1773.5 212 c 128,-1,42
 1781 256 1781 256 1781 293 c 2,43,-1
 1781 605 l 2,44,45
 1781 658 1781 658 1763.5 695 c 128,-1,46
 1746 732 1746 732 1723 732 c 0,47,48
 1650 732 1650 732 1583 707 c 128,-1,49
 1516 682 1516 682 1459 635 c 1,50,51
 1525 557 1525 557 1560.5 478.5 c 128,-1,52
 1596 400 1596 400 1596 332 c 0,53,54
 1596 223 1596 223 1511 111.5 c 128,-1,55
 1426 0 1426 0 1342 0 c 0,56,57
 1270 0 1270 0 1203.5 98.5 c 128,-1,58
 1137 197 1137 197 1137 303 c 0,59,60
 1137 371 1137 371 1180 450 c 128,-1,61
 1223 529 1223 529 1303 605 c 1,62,63
 1260 670 1260 670 1208 706 c 128,-1,64
 1156 742 1156 742 1107 742 c 0,65,66
 1051 742 1051 742 990.5 716.5 c 128,-1,67
 930 691 930 691 873 645 c 1,68,69
 953 568 953 568 996 481.5 c 128,-1,70
 1039 395 1039 395 1039 312 c 0,71,72
 1039 209 1039 209 964 104.5 c 128,-1,73
 889 0 889 0 814 0 c 0,74,75
 727 0 727 0 653.5 107.5 c 128,-1,76
 580 215 580 215 580 342 c 0,77,78
 580 406 580 406 626 480.5 c 128,-1,79
 672 555 672 555 756 625 c 1,80,81
 719 680 719 680 667 711 c 128,-1,82
 615 742 615 742 561 742 c 0,83,84
 418 742 418 742 274.5 611 c 128,-1,85
 131 480 131 480 131 352 c 1,86,87
 189 422 189 422 252.5 460 c 128,-1,88
 316 498 316 498 375 498 c 0,89,90
 424 498 424 498 458 455 c 128,-1,91
 492 412 492 412 492 352 c 0,92,93
 492 221 492 221 440.5 110.5 c 128,-1,94
 389 0 389 0 326 0 c 0,0,1
229 127 m 0,95,96
 258 127 258 127 287 202 c 128,-1,97
 316 277 316 277 316 352 c 0,98,99
 316 371 316 371 307.5 385.5 c 128,-1,100
 299 400 299 400 287 400 c 0,101,102
 248 400 248 400 194.5 342.5 c 128,-1,103
 141 285 141 285 141 244 c 0,104,105
 141 207 141 207 171 167 c 128,-1,106
 201 127 201 127 229 127 c 0,95,96
1293 146 m 0,107,108
 1332 146 1332 146 1376 227.5 c 128,-1,109
 1420 309 1420 309 1420 381 c 0,110,111
 1420 406 1420 406 1400.5 448 c 128,-1,112
 1381 490 1381 490 1342 547 c 1,113,114
 1277 492 1277 492 1241 428.5 c 128,-1,115
 1205 365 1205 365 1205 303 c 0,116,117
 1205 252 1205 252 1234.5 199 c 128,-1,118
 1264 146 1264 146 1293 146 c 0,107,108
746 146 m 0,119,120
 787 146 787 146 825 219.5 c 128,-1,121
 863 293 863 293 863 371 c 0,122,123
 863 420 863 420 842.5 470.5 c 128,-1,124
 822 521 822 521 785 566 c 1,125,126
 721 512 721 512 684.5 453.5 c 128,-1,127
 648 395 648 395 648 342 c 0,128,129
 648 277 648 277 681.5 211.5 c 128,-1,130
 715 146 715 146 746 146 c 0,119,120
EndSplineSet
EndChar

StartChar: tm_ta
Encoding: 2980 2980 69
Width: 924
GlyphClass: 2
Flags: W
LayerCount: 2
Fore
SplineSet
330 0 m 0,0,1
 227 0 227 0 132 89 c 128,-1,2
 37 178 37 178 37 273 c 0,3,4
 37 338 37 338 89 384 c 128,-1,5
 141 430 141 430 213 430 c 1,6,7
 230 596 230 596 320 708 c 128,-1,8
 410 820 410 820 525 820 c 2,9,-1
 701 820 l 2,10,11
 725 820 725 820 742.5 811.5 c 128,-1,12
 760 803 760 803 760 791 c 256,13,14
 760 779 760 779 748 770.5 c 128,-1,15
 736 762 736 762 721 762 c 2,16,-1
 633 762 l 2,17,18
 625 762 625 762 619 753 c 128,-1,19
 613 744 613 744 613 732 c 2,20,-1
 613 430 l 1,21,-1
 721 430 l 2,22,23
 791 430 791 430 834 382 c 128,-1,24
 877 334 877 334 877 254 c 0,25,26
 877 35 877 35 626 -168 c 128,-1,27
 375 -371 375 -371 105 -371 c 0,28,29
 90 -371 90 -371 78 -362.5 c 128,-1,30
 66 -354 66 -354 66 -342 c 256,31,32
 66 -330 66 -330 78 -321.5 c 128,-1,33
 90 -313 90 -313 105 -313 c 0,34,35
 336 -313 336 -313 513.5 -141 c 128,-1,36
 691 31 691 31 691 254 c 0,37,38
 691 303 691 303 673.5 337 c 128,-1,39
 656 371 656 371 633 371 c 2,40,-1
 613 371 l 1,41,42
 600 187 600 187 528.5 93.5 c 128,-1,43
 457 0 457 0 330 0 c 0,0,1
291 78 m 0,44,45
 342 78 342 78 394.5 176.5 c 128,-1,46
 447 275 447 275 447 371 c 1,47,-1
 203 371 l 2,48,49
 162 371 162 371 133.5 342.5 c 128,-1,50
 105 314 105 314 105 273 c 0,51,52
 105 209 105 209 167.5 143.5 c 128,-1,53
 230 78 230 78 291 78 c 0,44,45
271 430 m 1,54,-1
 447 430 l 1,55,-1
 447 625 l 2,56,57
 447 648 447 648 438.5 666 c 128,-1,58
 430 684 430 684 418 684 c 0,59,60
 375 684 375 684 323 594 c 128,-1,61
 271 504 271 504 271 430 c 1,54,-1
EndSplineSet
EndChar

StartChar: tm_na
Encoding: 2984 2984 70
Width: 992
GlyphClass: 2
Flags: W
LayerCount: 2
Fore
SplineSet
141 -381 m 0,0,1
 121 -381 121 -381 106.5 -369 c 128,-1,2
 92 -357 92 -357 92 -342 c 0,3,4
 92 -330 92 -330 112.5 -321.5 c 128,-1,5
 133 -313 133 -313 160 -313 c 0,6,7
 271 -313 271 -313 384.5 -268 c 128,-1,8
 498 -223 498 -223 600 -137 c 1,9,10
 680 -61 680 -61 723 31 c 128,-1,11
 766 123 766 123 766 215 c 0,12,13
 766 252 766 252 754 277.5 c 128,-1,14
 742 303 742 303 727 303 c 0,15,16
 703 303 703 303 667 268.5 c 128,-1,17
 631 234 631 234 590 176 c 1,18,-1
 590 39 l 2,19,20
 590 23 590 23 581 11.5 c 128,-1,21
 572 0 572 0 561 0 c 2,22,-1
 443 0 l 2,23,24
 432 0 432 0 423 11.5 c 128,-1,25
 414 23 414 23 414 39 c 2,26,-1
 414 166 l 2,27,28
 414 305 414 305 384 460 c 128,-1,29
 354 615 354 615 326 615 c 0,30,31
 281 615 281 615 230.5 416 c 128,-1,32
 180 217 180 217 180 39 c 0,33,34
 180 23 180 23 171 11.5 c 128,-1,35
 162 0 162 0 150 0 c 2,36,-1
 82 0 l 2,37,38
 70 0 70 0 61.5 9 c 128,-1,39
 53 18 53 18 53 29 c 0,40,41
 53 340 53 340 205 560.5 c 128,-1,42
 357 781 357 781 570 781 c 0,43,44
 623 781 623 781 660 766.5 c 128,-1,45
 697 752 697 752 697 732 c 0,46,47
 697 721 697 721 685.5 712 c 128,-1,48
 674 703 674 703 658 703 c 0,49,50
 645 703 645 703 619.5 713 c 128,-1,51
 594 723 594 723 580 723 c 0,52,53
 547 723 547 723 519.5 715 c 128,-1,54
 492 707 492 707 473 693 c 1,55,56
 525 602 525 602 552.5 497.5 c 128,-1,57
 580 393 580 393 580 283 c 1,58,59
 648 350 648 350 719.5 385 c 128,-1,60
 791 420 791 420 854 420 c 0,61,62
 887 420 887 420 914 355.5 c 128,-1,63
 941 291 941 291 941 215 c 0,64,65
 941 92 941 92 860 -25.5 c 128,-1,66
 779 -143 779 -143 639 -225 c 0,67,68
 506 -301 506 -301 379 -341 c 128,-1,69
 252 -381 252 -381 141 -381 c 0,0,1
EndSplineSet
EndChar

StartChar: tm_nnna
Encoding: 2985 2985 71
Width: 1479
GlyphClass: 2
Flags: W
LayerCount: 2
Fore
SplineSet
248 -20 m 0,0,1
 180 -20 180 -20 121 72 c 128,-1,2
 62 164 62 164 62 273 c 0,3,4
 62 486 62 486 203 638.5 c 128,-1,5
 344 791 344 791 541 791 c 0,6,7
 633 791 633 791 712 762.5 c 128,-1,8
 791 734 791 734 844 684 c 1,9,10
 914 730 914 730 1007 755.5 c 128,-1,11
 1100 781 1100 781 1205 781 c 0,12,13
 1305 781 1305 781 1373 768.5 c 128,-1,14
 1441 756 1441 756 1469 732 c 1,15,-1
 1449 684 l 1,16,17
 1416 703 1416 703 1374 713 c 128,-1,18
 1332 723 1332 723 1283 723 c 1,19,20
 1303 689 1303 689 1312.5 657 c 128,-1,21
 1322 625 1322 625 1322 596 c 2,22,-1
 1322 156 l 2,23,24
 1322 92 1322 92 1301.5 46 c 128,-1,25
 1281 0 1281 0 1254 0 c 2,26,-1
 1137 0 l 2,27,28
 1121 0 1121 0 1109.5 9 c 128,-1,29
 1098 18 1098 18 1098 29 c 0,30,31
 1098 37 1098 37 1104.5 57.5 c 128,-1,32
 1111 78 1111 78 1117 98 c 0,33,34
 1131 148 1131 148 1138.5 187.5 c 128,-1,35
 1146 227 1146 227 1146 254 c 2,36,-1
 1146 596 l 2,37,38
 1146 623 1146 623 1141.5 649.5 c 128,-1,39
 1137 676 1137 676 1127 703 c 1,40,41
 1059 703 1059 703 998 685.5 c 128,-1,42
 937 668 937 668 893 635 c 1,43,44
 943 586 943 586 971.5 514.5 c 128,-1,45
 1000 443 1000 443 1000 361 c 0,46,47
 1000 227 1000 227 929.5 113.5 c 128,-1,48
 859 0 859 0 775 0 c 0,49,50
 703 0 703 0 641.5 92 c 128,-1,51
 580 184 580 184 580 293 c 0,52,53
 580 379 580 379 621 461 c 128,-1,54
 662 543 662 543 736 605 c 1,55,56
 695 664 695 664 635.5 698 c 128,-1,57
 576 732 576 732 512 732 c 0,58,59
 393 732 393 732 271.5 627.5 c 128,-1,60
 150 523 150 523 150 420 c 1,61,62
 193 463 193 463 249 485.5 c 128,-1,63
 305 508 305 508 365 508 c 0,64,65
 408 508 408 508 445 459 c 128,-1,66
 482 410 482 410 482 352 c 0,67,68
 482 213 482 213 409 96.5 c 128,-1,69
 336 -20 336 -20 248 -20 c 0,0,1
189 137 m 0,70,71
 230 137 230 137 273 219 c 128,-1,72
 316 301 316 301 316 381 c 0,73,74
 316 400 316 400 307.5 415 c 128,-1,75
 299 430 299 430 287 430 c 0,76,77
 246 430 246 430 183.5 378 c 128,-1,78
 121 326 121 326 121 293 c 0,79,80
 121 242 121 242 143.5 189.5 c 128,-1,81
 166 137 166 137 189 137 c 0,70,71
707 127 m 0,82,83
 748 127 748 127 786 203 c 128,-1,84
 824 279 824 279 824 361 c 0,85,86
 824 422 824 422 808.5 470 c 128,-1,87
 793 518 793 518 766 547 c 1,88,89
 705 504 705 504 672 436.5 c 128,-1,90
 639 369 639 369 639 293 c 0,91,92
 639 244 639 244 663 185.5 c 128,-1,93
 687 127 687 127 707 127 c 0,82,83
EndSplineSet
EndChar

StartChar: tm_pa
Encoding: 2986 2986 72
Width: 1109
GlyphClass: 2
Flags: W
LayerCount: 2
Fore
SplineSet
266 0 m 2,0,1
 197 0 197 0 143.5 74 c 128,-1,2
 90 148 90 148 90 244 c 0,3,4
 90 385 90 385 99.5 490.5 c 128,-1,5
 109 596 109 596 129 664 c 0,6,7
 145 717 145 717 163.5 749 c 128,-1,8
 182 781 182 781 197 781 c 2,9,-1
 324 781 l 2,10,11
 336 781 336 781 345 772.5 c 128,-1,12
 354 764 354 764 354 752 c 0,13,14
 354 744 354 744 349 729.5 c 128,-1,15
 344 715 344 715 334 693 c 0,16,17
 301 617 301 617 283.5 504 c 128,-1,18
 266 391 266 391 266 244 c 0,19,20
 266 160 266 160 303 109.5 c 128,-1,21
 340 59 340 59 402 59 c 2,22,-1
 695 59 l 2,23,24
 752 59 752 59 792 99 c 128,-1,25
 832 139 832 139 832 195 c 0,26,27
 832 400 832 400 823 522.5 c 128,-1,28
 814 645 814 645 793 703 c 0,29,30
 783 732 783 732 795 756.5 c 128,-1,31
 807 781 807 781 832 781 c 2,32,-1
 920 781 l 2,33,34
 943 781 943 781 962.5 756.5 c 128,-1,35
 982 732 982 732 988 693 c 0,36,37
 998 633 998 633 1003 514 c 128,-1,38
 1008 395 1008 395 1008 195 c 0,39,40
 1008 115 1008 115 965 57.5 c 128,-1,41
 922 0 922 0 861 0 c 2,42,-1
 266 0 l 2,0,1
EndSplineSet
EndChar

StartChar: tm_ma
Encoding: 2990 2990 73
Width: 1154
GlyphClass: 2
Flags: W
LayerCount: 2
Fore
SplineSet
176 0 m 2,0,1
 143 0 143 0 120.5 43 c 128,-1,2
 98 86 98 86 98 146 c 2,3,-1
 98 381 l 2,4,5
 98 529 98 529 138 655 c 128,-1,6
 178 781 178 781 225 781 c 2,7,-1
 332 781 l 2,8,9
 344 781 344 781 352.5 772.5 c 128,-1,10
 361 764 361 764 361 752 c 0,11,12
 361 744 361 744 356.5 727.5 c 128,-1,13
 352 711 352 711 342 684 c 0,14,15
 309 590 309 590 291 513.5 c 128,-1,16
 273 437 273 437 273 381 c 2,17,-1
 273 107 l 2,18,19
 273 88 273 88 291 73.5 c 128,-1,20
 309 59 309 59 332 59 c 2,21,-1
 547 59 l 1,22,-1
 547 459 l 2,23,24
 547 609 547 609 600.5 700 c 128,-1,25
 654 791 654 791 742 791 c 0,26,27
 865 791 865 791 979.5 610.5 c 128,-1,28
 1094 430 1094 430 1094 234 c 0,29,30
 1094 129 1094 129 1029.5 64.5 c 128,-1,31
 965 0 965 0 859 0 c 2,32,-1
 176 0 l 2,0,1
723 59 m 1,33,-1
 879 59 l 2,34,35
 943 59 943 59 989 110.5 c 128,-1,36
 1035 162 1035 162 1035 234 c 0,37,38
 1035 367 1035 367 955 530 c 128,-1,39
 875 693 875 693 811 693 c 0,40,41
 771 693 771 693 747 602.5 c 128,-1,42
 723 512 723 512 723 361 c 2,43,-1
 723 59 l 1,33,-1
EndSplineSet
EndChar

StartChar: tm_ya
Encoding: 2991 2991 74
Width: 1311
GlyphClass: 2
Flags: W
LayerCount: 2
Fore
SplineSet
584 0 m 2,0,1
 533 0 533 0 494 70.5 c 128,-1,2
 455 141 455 141 447 244 c 1,3,4
 383 131 383 131 317.5 65.5 c 128,-1,5
 252 0 252 0 203 0 c 0,6,7
 164 0 164 0 130 110.5 c 128,-1,8
 96 221 96 221 96 352 c 0,9,10
 96 541 96 541 123 661 c 128,-1,11
 150 781 150 781 203 781 c 2,12,-1
 301 781 l 2,13,14
 316 781 316 781 328 772.5 c 128,-1,15
 340 764 340 764 340 752 c 0,16,17
 340 744 340 744 335 729.5 c 128,-1,18
 330 715 330 715 320 693 c 0,19,20
 297 639 297 639 284 553 c 128,-1,21
 271 467 271 467 271 352 c 0,22,23
 271 301 271 301 284 248 c 128,-1,24
 297 195 297 195 311 195 c 0,25,26
 324 195 324 195 347.5 228.5 c 128,-1,27
 371 262 371 262 379 273 c 2,28,-1
 447 410 l 1,29,-1
 447 459 l 2,30,31
 447 602 447 602 466.5 691.5 c 128,-1,32
 486 781 486 781 525 781 c 2,33,-1
 643 781 l 2,34,35
 654 781 654 781 663 772.5 c 128,-1,36
 672 764 672 764 672 752 c 0,37,38
 672 744 672 744 670 729.5 c 128,-1,39
 668 715 668 715 662 684 c 1,40,41
 643 631 643 631 633 574.5 c 128,-1,42
 623 518 623 518 623 459 c 2,43,-1
 623 225 l 2,44,45
 623 148 623 148 660 103.5 c 128,-1,46
 697 59 697 59 760 59 c 2,47,-1
 936 59 l 2,48,49
 980 59 980 59 1006.5 125 c 128,-1,50
 1033 191 1033 191 1033 303 c 0,51,52
 1033 385 1033 385 1020.5 494.5 c 128,-1,53
 1008 604 1008 604 984 742 c 0,54,55
 982 758 982 758 994 769.5 c 128,-1,56
 1006 781 1006 781 1023 781 c 2,57,-1
 1141 781 l 2,58,59
 1166 781 1166 781 1187.5 630.5 c 128,-1,60
 1209 480 1209 480 1209 303 c 0,61,62
 1209 170 1209 170 1188.5 85 c 128,-1,63
 1168 0 1168 0 1131 0 c 2,64,-1
 584 0 l 2,0,1
EndSplineSet
EndChar

StartChar: tm_ra
Encoding: 2992 2992 75
Width: 676
GlyphClass: 2
Flags: W
LayerCount: 2
Fore
SplineSet
246 -322 m 0,0,1
 238 -322 238 -322 232.5 -313.5 c 128,-1,2
 227 -305 227 -305 227 -293 c 0,3,4
 227 -283 227 -283 236.5 -267.5 c 128,-1,5
 246 -252 246 -252 266 -234 c 1,6,7
 326 -160 326 -160 359.5 -67.5 c 128,-1,8
 393 25 393 25 393 127 c 0,9,10
 393 309 393 309 365.5 462 c 128,-1,11
 338 615 338 615 305 615 c 0,12,13
 254 615 254 615 211 473.5 c 128,-1,14
 168 332 168 332 168 166 c 2,15,-1
 168 49 l 2,16,17
 168 29 168 29 162 14.5 c 128,-1,18
 156 0 156 0 148 0 c 2,19,-1
 90 0 l 2,20,21
 78 0 78 0 69.5 14.5 c 128,-1,22
 61 29 61 29 61 49 c 0,23,24
 61 289 61 289 134 468.5 c 128,-1,25
 207 648 207 648 334 723 c 0,26,27
 385 752 385 752 454 766.5 c 128,-1,28
 523 781 523 781 607 781 c 0,29,30
 627 781 627 781 641.5 772.5 c 128,-1,31
 656 764 656 764 656 752 c 256,32,33
 656 740 656 740 647.5 731.5 c 128,-1,34
 639 723 639 723 627 723 c 0,35,36
 568 723 568 723 526 713 c 128,-1,37
 484 703 484 703 461 684 c 1,38,39
 514 611 514 611 541 478.5 c 128,-1,40
 568 346 568 346 568 166 c 0,41,42
 568 98 568 98 533 19.5 c 128,-1,43
 498 -59 498 -59 432 -137 c 0,44,45
 410 -162 410 -162 345.5 -242 c 128,-1,46
 281 -322 281 -322 246 -322 c 0,0,1
EndSplineSet
EndChar

StartChar: tm_rra
Encoding: 2993 2993 76
Width: 1033
GlyphClass: 2
Flags: W
LayerCount: 2
Fore
SplineSet
57 -381 m 0,0,1
 37 -381 37 -381 22.5 -372 c 128,-1,2
 8 -363 8 -363 8 -352 c 0,3,4
 8 -340 8 -340 22.5 -331 c 128,-1,5
 37 -322 37 -322 57 -322 c 0,6,7
 328 -322 328 -322 558.5 -123 c 128,-1,8
 789 76 789 76 789 312 c 0,9,10
 789 428 789 428 762.5 516.5 c 128,-1,11
 736 605 736 605 701 605 c 0,12,13
 668 605 668 605 625 543.5 c 128,-1,14
 582 482 582 482 545 381 c 1,15,16
 549 334 549 334 552 263.5 c 128,-1,17
 555 193 555 193 555 98 c 0,18,19
 555 57 555 57 543 28.5 c 128,-1,20
 531 0 531 0 516 0 c 2,21,-1
 418 0 l 2,22,23
 402 0 402 0 390.5 14.5 c 128,-1,24
 379 29 379 29 379 49 c 2,25,-1
 379 254 l 2,26,27
 379 385 379 385 351.5 495 c 128,-1,28
 324 605 324 605 291 605 c 0,29,30
 240 605 240 605 192.5 430.5 c 128,-1,31
 145 256 145 256 145 68 c 0,32,33
 145 39 145 39 139 19.5 c 128,-1,34
 133 0 133 0 125 0 c 2,35,-1
 57 0 l 1,36,37
 57 174 57 174 97 333 c 128,-1,38
 137 492 137 492 213 625 c 0,39,40
 254 697 254 697 296 739 c 128,-1,41
 338 781 338 781 369 781 c 0,42,43
 414 781 414 781 458 695 c 128,-1,44
 502 609 502 609 525 479 c 1,45,46
 592 613 592 613 657.5 692 c 128,-1,47
 723 771 723 771 770 771 c 0,48,49
 842 771 842 771 903.5 648 c 128,-1,50
 965 525 965 525 965 381 c 0,51,52
 965 113 965 113 670 -134 c 128,-1,53
 375 -381 375 -381 57 -381 c 0,0,1
EndSplineSet
EndChar

StartChar: tm_la
Encoding: 2994 2994 77
Width: 1217
GlyphClass: 2
Flags: W
LayerCount: 2
Fore
SplineSet
699 -20 m 0,0,1
 629 -20 629 -20 586 23 c 128,-1,2
 543 66 543 66 543 137 c 0,3,4
 543 219 543 219 582 381 c 128,-1,5
 621 543 621 543 621 625 c 0,6,7
 621 674 621 674 586 703 c 128,-1,8
 551 732 551 732 494 732 c 0,9,10
 385 732 385 732 264 627.5 c 128,-1,11
 143 523 143 523 143 430 c 1,12,13
 207 473 207 473 259 495.5 c 128,-1,14
 311 518 311 518 348 518 c 0,15,16
 400 518 400 518 437.5 472 c 128,-1,17
 475 426 475 426 475 361 c 0,18,19
 475 223 475 223 401.5 106.5 c 128,-1,20
 328 -10 328 -10 240 -10 c 0,21,22
 172 -10 172 -10 118 90.5 c 128,-1,23
 64 191 64 191 64 322 c 0,24,25
 64 402 64 402 91.5 477.5 c 128,-1,26
 119 553 119 553 172 615 c 0,27,28
 238 693 238 693 325 737 c 128,-1,29
 412 781 412 781 504 781 c 2,30,-1
 650 781 l 2,31,32
 711 781 711 781 754 735 c 128,-1,33
 797 689 797 689 797 625 c 0,34,35
 797 543 797 543 758 381 c 128,-1,36
 719 219 719 219 719 137 c 0,37,38
 719 109 719 109 733.5 88.5 c 128,-1,39
 748 68 748 68 768 68 c 0,40,41
 871 68 871 68 975.5 242 c 128,-1,42
 1080 416 1080 416 1080 586 c 0,43,44
 1080 609 1080 609 1075 641.5 c 128,-1,45
 1070 674 1070 674 1061 713 c 0,46,47
 1055 727 1055 727 1048 742.5 c 128,-1,48
 1041 758 1041 758 1041 762 c 0,49,50
 1041 773 1041 773 1061.5 782 c 128,-1,51
 1082 791 1082 791 1109 791 c 0,52,53
 1129 791 1129 791 1143.5 762.5 c 128,-1,54
 1158 734 1158 734 1158 693 c 0,55,56
 1158 414 1158 414 1018.5 197 c 128,-1,57
 879 -20 879 -20 699 -20 c 0,0,1
182 137 m 0,58,59
 213 137 213 137 256 219 c 128,-1,60
 299 301 299 301 299 361 c 0,61,62
 299 385 299 385 287 402.5 c 128,-1,63
 275 420 275 420 260 420 c 0,64,65
 215 420 215 420 169 367 c 128,-1,66
 123 314 123 314 123 264 c 0,67,68
 123 227 123 227 143.5 182 c 128,-1,69
 164 137 164 137 182 137 c 0,58,59
EndSplineSet
EndChar

StartChar: tm_lla
Encoding: 2995 2995 78
Width: 1352
GlyphClass: 2
Flags: W
LayerCount: 2
Fore
SplineSet
256 -10 m 256,0,1
 176 -10 176 -10 118.5 85 c 128,-1,2
 61 180 61 180 61 312 c 0,3,4
 61 486 61 486 211 633.5 c 128,-1,5
 361 781 361 781 539 781 c 0,6,7
 637 781 637 781 705 718.5 c 128,-1,8
 773 656 773 656 773 566 c 1,9,10
 830 666 830 666 922 723.5 c 128,-1,11
 1014 781 1014 781 1115 781 c 0,12,13
 1187 781 1187 781 1246 757.5 c 128,-1,14
 1305 734 1305 734 1340 693 c 1,15,-1
 1311 654 l 1,16,17
 1270 678 1270 678 1237.5 690.5 c 128,-1,18
 1205 703 1205 703 1184 703 c 0,19,20
 1178 703 1178 703 1168 700 c 128,-1,21
 1158 697 1158 697 1145 693 c 1,22,23
 1148 666 1148 666 1151 622 c 128,-1,24
 1154 578 1154 578 1154 518 c 2,25,-1
 1154 312 l 2,26,27
 1154 209 1154 209 1128 104.5 c 128,-1,28
 1102 0 1102 0 1076 0 c 2,29,-1
 969 0 l 2,30,31
 953 0 953 0 941.5 11.5 c 128,-1,32
 930 23 930 23 930 39 c 0,33,34
 930 51 930 51 934.5 70.5 c 128,-1,35
 939 90 939 90 949 117 c 0,36,37
 963 168 963 168 971 217 c 128,-1,38
 979 266 979 266 979 312 c 2,39,-1
 979 684 l 1,40,41
 939 672 939 672 891.5 619 c 128,-1,42
 844 566 844 566 793 479 c 1,43,-1
 793 312 l 2,44,45
 793 184 793 184 761.5 92 c 128,-1,46
 730 0 730 0 686 0 c 2,47,-1
 578 0 l 2,48,49
 566 0 566 0 557.5 11.5 c 128,-1,50
 549 23 549 23 549 39 c 0,51,52
 549 47 549 47 562.5 71.5 c 128,-1,53
 576 96 576 96 588 117 c 1,54,55
 602 156 602 156 609.5 213 c 128,-1,56
 617 270 617 270 617 342 c 0,57,58
 617 521 617 521 588 612 c 128,-1,59
 559 703 559 703 500 703 c 0,60,61
 381 703 381 703 260 601.5 c 128,-1,62
 139 500 139 500 139 400 c 1,63,64
 178 447 178 447 236.5 472.5 c 128,-1,65
 295 498 295 498 363 498 c 0,66,67
 408 498 408 498 439.5 443.5 c 128,-1,68
 471 389 471 389 471 312 c 0,69,70
 471 193 471 193 403.5 91.5 c 128,-1,71
 336 -10 336 -10 256 -10 c 256,0,1
187 137 m 0,72,73
 227 137 227 137 266 209 c 128,-1,74
 305 281 305 281 305 352 c 0,75,76
 305 379 305 379 293 399.5 c 128,-1,77
 281 420 281 420 266 420 c 0,78,79
 227 420 227 420 173 366 c 128,-1,80
 119 312 119 312 119 273 c 0,81,82
 119 223 119 223 140.5 180 c 128,-1,83
 162 137 162 137 187 137 c 0,72,73
EndSplineSet
EndChar

StartChar: tm_llla
Encoding: 2996 2996 79
Width: 1160
GlyphClass: 2
Flags: W
LayerCount: 2
Fore
SplineSet
699 -391 m 0,0,1
 668 -391 668 -391 628 -370.5 c 128,-1,2
 588 -350 588 -350 543 -313 c 0,3,4
 504 -279 504 -279 469 -261.5 c 128,-1,5
 434 -244 434 -244 406 -244 c 0,6,7
 389 -244 389 -244 358.5 -261.5 c 128,-1,8
 328 -279 328 -279 289 -313 c 0,9,10
 266 -332 266 -332 248 -342 c 128,-1,11
 230 -352 230 -352 221 -352 c 0,12,13
 213 -352 213 -352 201 -344 c 128,-1,14
 189 -336 189 -336 172 -322 c 0,15,16
 160 -309 160 -309 136.5 -282.5 c 128,-1,17
 113 -256 113 -256 113 -244 c 0,18,19
 113 -211 113 -211 179.5 -169 c 128,-1,20
 246 -127 246 -127 299 -127 c 0,21,22
 344 -127 344 -127 404.5 -157.5 c 128,-1,23
 465 -188 465 -188 533 -244 c 0,24,25
 566 -273 566 -273 596.5 -288 c 128,-1,26
 627 -303 627 -303 650 -303 c 0,27,28
 701 -303 701 -303 763.5 -247 c 128,-1,29
 826 -191 826 -191 826 -146 c 0,30,31
 826 -131 826 -131 811.5 -119 c 128,-1,32
 797 -107 797 -107 777 -107 c 0,33,34
 760 -107 760 -107 737.5 -115 c 128,-1,35
 715 -123 715 -123 689 -137 c 0,36,37
 672 -146 672 -146 652.5 -151 c 128,-1,38
 633 -156 633 -156 611 -156 c 0,39,40
 590 -156 590 -156 571.5 -107.5 c 128,-1,41
 553 -59 553 -59 553 0 c 1,42,-1
 162 0 l 2,43,44
 139 0 139 0 121.5 34 c 128,-1,45
 104 68 104 68 104 117 c 2,46,-1
 104 381 l 2,47,48
 104 529 104 529 134 655 c 128,-1,49
 164 781 164 781 201 781 c 2,50,-1
 338 781 l 2,51,52
 350 781 350 781 358.5 772.5 c 128,-1,53
 367 764 367 764 367 752 c 0,54,55
 367 744 367 744 362 727.5 c 128,-1,56
 357 711 357 711 348 684 c 0,57,58
 314 590 314 590 296.5 513.5 c 128,-1,59
 279 437 279 437 279 381 c 2,60,-1
 279 107 l 2,61,62
 279 88 279 88 294 73.5 c 128,-1,63
 309 59 309 59 328 59 c 2,64,-1
 553 59 l 1,65,-1
 553 469 l 2,66,67
 553 615 553 615 603.5 703 c 128,-1,68
 654 791 654 791 738 791 c 0,69,70
 865 791 865 791 982.5 610.5 c 128,-1,71
 1100 430 1100 430 1100 234 c 0,72,73
 1100 129 1100 129 1035.5 64.5 c 128,-1,74
 971 0 971 0 865 0 c 2,75,-1
 729 0 l 1,76,-1
 729 -59 l 1,77,-1
 924 -59 l 2,78,79
 957 -59 957 -59 979.5 -84 c 128,-1,80
 1002 -109 1002 -109 1002 -146 c 0,81,82
 1002 -223 1002 -223 897.5 -307 c 128,-1,83
 793 -391 793 -391 699 -391 c 0,0,1
729 59 m 1,84,-1
 885 59 l 2,85,86
 949 59 949 59 995 110.5 c 128,-1,87
 1041 162 1041 162 1041 234 c 0,88,89
 1041 373 1041 373 967 528.5 c 128,-1,90
 893 684 893 684 826 684 c 0,91,92
 781 684 781 684 755 596 c 128,-1,93
 729 508 729 508 729 361 c 2,94,-1
 729 59 l 1,84,-1
EndSplineSet
EndChar

StartChar: tm_va
Encoding: 2997 2997 80
Width: 1412
GlyphClass: 2
Flags: W
LayerCount: 2
Fore
SplineSet
572 0 m 2,0,1
 557 0 557 0 545 14.5 c 128,-1,2
 533 29 533 29 533 49 c 0,3,4
 533 57 533 57 547.5 78.5 c 128,-1,5
 562 100 562 100 572 117 c 0,6,7
 615 176 615 176 637.5 259 c 128,-1,8
 660 342 660 342 660 439 c 0,9,10
 660 543 660 543 603.5 637.5 c 128,-1,11
 547 732 547 732 484 732 c 0,12,13
 365 732 365 732 267.5 639.5 c 128,-1,14
 170 547 170 547 133 400 c 1,15,16
 182 447 182 447 240.5 472.5 c 128,-1,17
 299 498 299 498 357 498 c 0,18,19
 414 498 414 498 454 461 c 128,-1,20
 494 424 494 424 494 371 c 0,21,22
 494 248 494 248 409 124 c 128,-1,23
 324 0 324 0 240 0 c 0,24,25
 176 0 176 0 120 86 c 128,-1,26
 64 172 64 172 64 273 c 0,27,28
 64 498 64 498 189 644.5 c 128,-1,29
 314 791 314 791 504 791 c 2,30,-1
 621 791 l 2,31,32
 719 791 719 791 777.5 695.5 c 128,-1,33
 836 600 836 600 836 439 c 0,34,35
 836 359 836 359 811.5 275 c 128,-1,36
 787 191 787 191 738 107 c 0,37,38
 736 105 736 105 732.5 97.5 c 128,-1,39
 729 90 729 90 729 88 c 0,40,41
 729 76 729 76 740.5 67.5 c 128,-1,42
 752 59 752 59 768 59 c 2,43,-1
 1090 59 l 1,44,45
 1109 111 1109 111 1119 172.5 c 128,-1,46
 1129 234 1129 234 1129 303 c 2,47,-1
 1129 742 l 2,48,49
 1129 758 1129 758 1146.5 769.5 c 128,-1,50
 1164 781 1164 781 1187 781 c 2,51,-1
 1246 781 l 2,52,53
 1270 781 1270 781 1287.5 763.5 c 128,-1,54
 1305 746 1305 746 1305 723 c 2,55,-1
 1305 303 l 2,56,57
 1305 178 1305 178 1276.5 89 c 128,-1,58
 1248 0 1248 0 1207 0 c 2,59,-1
 572 0 l 2,0,1
182 127 m 0,60,61
 221 127 221 127 269.5 217 c 128,-1,62
 318 307 318 307 318 381 c 0,63,64
 318 396 318 396 306.5 408 c 128,-1,65
 295 420 295 420 279 420 c 0,66,67
 234 420 234 420 178.5 364.5 c 128,-1,68
 123 309 123 309 123 264 c 0,69,70
 123 213 123 213 141.5 170 c 128,-1,71
 160 127 160 127 182 127 c 0,60,61
EndSplineSet
EndChar

StartChar: tm_ssa
Encoding: 2999 2999 81
Width: 1871
GlyphClass: 2
Flags: W
LayerCount: 2
Fore
SplineSet
1211 -352 m 2,0,1
 1203 -352 1203 -352 1197 -340 c 128,-1,2
 1191 -328 1191 -328 1191 -313 c 0,3,4
 1191 -301 1191 -301 1203 -270.5 c 128,-1,5
 1215 -240 1215 -240 1221 -225 c 0,6,7
 1232 -184 1232 -184 1245 -127 c 128,-1,8
 1258 -70 1258 -70 1270 0 c 1,9,-1
 674 0 l 2,10,11
 650 0 650 0 632.5 17.5 c 128,-1,12
 615 35 615 35 615 59 c 0,13,14
 615 72 615 72 623 91.5 c 128,-1,15
 631 111 631 111 645 137 c 1,16,17
 684 244 684 244 703.5 335 c 128,-1,18
 723 426 723 426 723 498 c 0,19,20
 723 602 723 602 678 682 c 128,-1,21
 633 762 633 762 576 762 c 0,22,23
 439 762 439 762 288 643.5 c 128,-1,24
 137 525 137 525 137 420 c 1,25,26
 199 480 199 480 260.5 513.5 c 128,-1,27
 322 547 322 547 371 547 c 0,28,29
 424 547 424 547 461 489.5 c 128,-1,30
 498 432 498 432 498 352 c 0,31,32
 498 221 498 221 433.5 110.5 c 128,-1,33
 369 0 369 0 293 0 c 0,34,35
 205 0 205 0 132 120 c 128,-1,36
 59 240 59 240 59 381 c 0,37,38
 59 547 59 547 243.5 688.5 c 128,-1,39
 428 830 428 830 645 830 c 0,40,41
 750 830 750 830 824 732.5 c 128,-1,42
 898 635 898 635 898 498 c 0,43,44
 898 400 898 400 871 289 c 128,-1,45
 844 178 844 178 791 59 c 1,46,-1
 1279 59 l 1,47,48
 1291 84 1291 84 1300 160 c 128,-1,49
 1309 236 1309 236 1309 244 c 1,50,-1
 1221 244 l 2,51,52
 1148 244 1148 244 1096.5 301.5 c 128,-1,53
 1045 359 1045 359 1045 439 c 0,54,55
 1045 559 1045 559 1146.5 680 c 128,-1,56
 1248 801 1248 801 1348 801 c 0,57,58
 1412 801 1412 801 1458 738.5 c 128,-1,59
 1504 676 1504 676 1504 586 c 2,60,-1
 1494 352 l 1,61,-1
 1660 439 l 2,62,63
 1686 453 1686 453 1710 461 c 128,-1,64
 1734 469 1734 469 1758 469 c 0,65,66
 1785 469 1785 469 1805.5 429 c 128,-1,67
 1826 389 1826 389 1826 332 c 0,68,69
 1826 215 1826 215 1744 107.5 c 128,-1,70
 1662 0 1662 0 1572 0 c 2,71,-1
 1445 0 l 1,72,73
 1441 -55 1441 -55 1421.5 -131 c 128,-1,74
 1402 -207 1402 -207 1367 -303 c 0,75,76
 1359 -324 1359 -324 1345.5 -338 c 128,-1,77
 1332 -352 1332 -352 1318 -352 c 2,78,-1
 1211 -352 l 2,0,1
215 127 m 0,79,80
 254 127 254 127 293 221.5 c 128,-1,81
 332 316 332 316 332 410 c 0,82,83
 332 434 332 434 323 451.5 c 128,-1,84
 314 469 314 469 303 469 c 0,85,86
 256 469 256 469 191.5 411.5 c 128,-1,87
 127 354 127 354 127 312 c 0,88,89
 127 256 127 256 157 191.5 c 128,-1,90
 187 127 187 127 215 127 c 0,79,80
1230 303 m 2,91,-1
 1309 303 l 1,92,-1
 1328 645 l 2,93,94
 1330 664 1330 664 1318.5 678.5 c 128,-1,95
 1307 693 1307 693 1289 693 c 0,96,97
 1240 693 1240 693 1181.5 603.5 c 128,-1,98
 1123 514 1123 514 1123 439 c 0,99,100
 1123 383 1123 383 1154.5 343 c 128,-1,101
 1186 303 1186 303 1230 303 c 2,91,-1
1455 59 m 1,102,-1
 1494 59 l 2,103,104
 1549 59 1549 59 1609.5 140 c 128,-1,105
 1670 221 1670 221 1670 293 c 0,106,107
 1670 316 1670 316 1661 334 c 128,-1,108
 1652 352 1652 352 1641 352 c 0,109,110
 1621 352 1621 352 1584 337 c 128,-1,111
 1547 322 1547 322 1484 293 c 1,112,113
 1484 260 1484 260 1476.5 200.5 c 128,-1,114
 1469 141 1469 141 1455 59 c 1,102,-1
EndSplineSet
EndChar

StartChar: tm_sa
Encoding: 3000 3000 82
Width: 1723
GlyphClass: 2
Flags: W
LayerCount: 2
Fore
SplineSet
307 -20 m 0,0,1
 217 -20 217 -20 139.5 84.5 c 128,-1,2
 62 189 62 189 62 312 c 0,3,4
 62 539 62 539 222.5 675 c 128,-1,5
 383 811 383 811 648 811 c 0,6,7
 727 811 727 811 790.5 738.5 c 128,-1,8
 854 666 854 666 873 557 c 1,9,10
 953 668 953 668 1028.5 729.5 c 128,-1,11
 1104 791 1104 791 1156 791 c 0,12,13
 1205 791 1205 791 1234.5 740 c 128,-1,14
 1264 689 1264 689 1264 605 c 0,15,16
 1264 562 1264 562 1256 510.5 c 128,-1,17
 1248 459 1248 459 1234 400 c 0,18,19
 1205 283 1205 283 1195.5 238 c 128,-1,20
 1186 193 1186 193 1186 166 c 0,21,22
 1186 121 1186 121 1207.5 94.5 c 128,-1,23
 1229 68 1229 68 1264 68 c 0,24,25
 1354 68 1354 68 1465 249 c 128,-1,26
 1576 430 1576 430 1576 576 c 0,27,28
 1576 645 1576 645 1566.5 696.5 c 128,-1,29
 1557 748 1557 748 1537 781 c 0,30,31
 1535 785 1535 785 1526.5 799.5 c 128,-1,32
 1518 814 1518 814 1518 820 c 0,33,34
 1518 840 1518 840 1532.5 854.5 c 128,-1,35
 1547 869 1547 869 1566 869 c 0,36,37
 1607 869 1607 869 1635.5 814.5 c 128,-1,38
 1664 760 1664 760 1664 684 c 0,39,40
 1664 416 1664 416 1518.5 208 c 128,-1,41
 1373 0 1373 0 1186 0 c 0,42,43
 1113 0 1113 0 1061.5 49 c 128,-1,44
 1010 98 1010 98 1010 166 c 0,45,46
 1010 205 1010 205 1024.5 276.5 c 128,-1,47
 1039 348 1039 348 1068 449 c 0,48,49
 1078 482 1078 482 1083 522 c 128,-1,50
 1088 562 1088 562 1088 605 c 0,51,52
 1088 625 1088 625 1076 639.5 c 128,-1,53
 1064 654 1064 654 1049 654 c 0,54,55
 1033 654 1033 654 1012.5 635.5 c 128,-1,56
 992 617 992 617 971 586 c 0,57,58
 912 498 912 498 877 393.5 c 128,-1,59
 842 289 842 289 834 176 c 0,60,61
 834 166 834 166 828 83 c 128,-1,62
 822 0 822 0 795 0 c 2,63,-1
 678 0 l 2,64,65
 654 0 654 0 636.5 11.5 c 128,-1,66
 619 23 619 23 619 39 c 0,67,68
 619 51 619 51 624 71.5 c 128,-1,69
 629 92 629 92 639 127 c 0,70,71
 658 195 658 195 668 253.5 c 128,-1,72
 678 312 678 312 678 361 c 2,73,-1
 678 498 l 2,74,75
 678 596 678 596 632 664 c 128,-1,76
 586 732 586 732 521 732 c 0,77,78
 377 732 377 732 266.5 638.5 c 128,-1,79
 156 545 156 545 131 400 c 1,80,81
 184 451 184 451 239.5 479.5 c 128,-1,82
 295 508 295 508 346 508 c 0,83,84
 412 508 412 508 452 446.5 c 128,-1,85
 492 385 492 385 492 283 c 0,86,87
 492 170 492 170 433.5 75 c 128,-1,88
 375 -20 375 -20 307 -20 c 0,0,1
229 98 m 0,89,90
 262 98 262 98 289 159.5 c 128,-1,91
 316 221 316 221 316 293 c 0,92,93
 316 350 316 350 301.5 390 c 128,-1,94
 287 430 287 430 268 430 c 0,95,96
 240 430 240 430 185.5 375 c 128,-1,97
 131 320 131 320 131 293 c 0,98,99
 131 229 131 229 163 163.5 c 128,-1,100
 195 98 195 98 229 98 c 0,89,90
EndSplineSet
EndChar

StartChar: tm_ha
Encoding: 3001 3001 83
Width: 2057
GlyphClass: 2
Flags: W
LayerCount: 2
Fore
SplineSet
553 0 m 2,0,1
 545 0 545 0 539 14.5 c 128,-1,2
 533 29 533 29 533 49 c 0,3,4
 533 57 533 57 547.5 78.5 c 128,-1,5
 562 100 562 100 572 117 c 0,6,7
 615 176 615 176 637.5 259 c 128,-1,8
 660 342 660 342 660 439 c 0,9,10
 660 543 660 543 603.5 637.5 c 128,-1,11
 547 732 547 732 484 732 c 0,12,13
 365 732 365 732 267.5 639.5 c 128,-1,14
 170 547 170 547 133 400 c 1,15,16
 182 447 182 447 240.5 472.5 c 128,-1,17
 299 498 299 498 357 498 c 0,18,19
 410 498 410 498 447 452 c 128,-1,20
 484 406 484 406 484 342 c 0,21,22
 484 229 484 229 402 114.5 c 128,-1,23
 320 0 320 0 240 0 c 0,24,25
 176 0 176 0 120 86 c 128,-1,26
 64 172 64 172 64 273 c 0,27,28
 64 498 64 498 189 644.5 c 128,-1,29
 314 791 314 791 504 791 c 2,30,-1
 592 791 l 2,31,32
 703 791 703 791 769.5 695.5 c 128,-1,33
 836 600 836 600 836 439 c 0,34,35
 836 336 836 336 821.5 257 c 128,-1,36
 807 178 807 178 777 127 c 0,37,38
 768 109 768 109 763 97.5 c 128,-1,39
 758 86 758 86 758 78 c 256,40,41
 758 70 758 70 769.5 64.5 c 128,-1,42
 781 59 781 59 797 59 c 2,43,-1
 1041 59 l 2,44,45
 1068 59 1068 59 1088.5 118.5 c 128,-1,46
 1109 178 1109 178 1119 273 c 0,47,48
 1143 490 1143 490 1218 635.5 c 128,-1,49
 1293 781 1293 781 1383 781 c 0,50,51
 1432 781 1432 781 1478.5 695 c 128,-1,52
 1525 609 1525 609 1549 479 c 1,53,54
 1615 613 1615 613 1680.5 692 c 128,-1,55
 1746 771 1746 771 1793 771 c 0,56,57
 1865 771 1865 771 1926.5 648 c 128,-1,58
 1988 525 1988 525 1988 381 c 0,59,60
 1988 113 1988 113 1693 -134 c 128,-1,61
 1398 -381 1398 -381 1080 -381 c 0,62,63
 1061 -381 1061 -381 1046 -369 c 128,-1,64
 1031 -357 1031 -357 1031 -342 c 0,65,66
 1031 -330 1031 -330 1046 -321.5 c 128,-1,67
 1061 -313 1061 -313 1080 -313 c 0,68,69
 1352 -313 1352 -313 1582 -116.5 c 128,-1,70
 1812 80 1812 80 1812 312 c 0,71,72
 1812 428 1812 428 1786 516.5 c 128,-1,73
 1760 605 1760 605 1725 605 c 0,74,75
 1691 605 1691 605 1654 545.5 c 128,-1,76
 1617 486 1617 486 1578 381 c 1,77,78
 1588 287 1588 287 1593 216.5 c 128,-1,79
 1598 146 1598 146 1598 98 c 0,80,81
 1598 57 1598 57 1589 28.5 c 128,-1,82
 1580 0 1580 0 1568 0 c 2,83,-1
 1441 0 l 2,84,85
 1434 0 1434 0 1428 14.5 c 128,-1,86
 1422 29 1422 29 1422 49 c 2,87,-1
 1422 254 l 2,88,89
 1422 377 1422 377 1388 481.5 c 128,-1,90
 1354 586 1354 586 1314 586 c 0,91,92
 1271 586 1271 586 1225.5 451 c 128,-1,93
 1180 316 1180 316 1168 156 c 0,94,95
 1164 90 1164 90 1130 45 c 128,-1,96
 1096 0 1096 0 1051 0 c 2,97,-1
 553 0 l 2,0,1
182 127 m 0,98,99
 221 127 221 127 269.5 217 c 128,-1,100
 318 307 318 307 318 381 c 0,101,102
 318 396 318 396 306.5 408 c 128,-1,103
 295 420 295 420 279 420 c 0,104,105
 234 420 234 420 178.5 364.5 c 128,-1,106
 123 309 123 309 123 264 c 0,107,108
 123 213 123 213 141.5 170 c 128,-1,109
 160 127 160 127 182 127 c 0,98,99
EndSplineSet
EndChar

StartChar: tm_aakaar
Encoding: 3006 3006 84
Width: 693
GlyphClass: 2
Flags: W
LayerCount: 2
Fore
SplineSet
88 0 m 2,0,1
 76 0 76 0 67.5 14.5 c 128,-1,2
 59 29 59 29 59 49 c 0,3,4
 59 375 59 375 200.5 588 c 128,-1,5
 342 801 342 801 557 801 c 2,6,-1
 635 801 l 2,7,8
 643 801 643 801 648.5 792 c 128,-1,9
 654 783 654 783 654 771 c 0,10,11
 654 760 654 760 645.5 751 c 128,-1,12
 637 742 637 742 625 742 c 0,13,14
 559 742 559 742 513 732.5 c 128,-1,15
 467 723 467 723 449 703 c 1,16,17
 520 619 520 619 558 493 c 128,-1,18
 596 367 596 367 596 215 c 0,19,20
 596 107 596 107 589 53.5 c 128,-1,21
 582 0 582 0 557 0 c 2,22,-1
 430 0 l 2,23,24
 422 0 422 0 416 6 c 128,-1,25
 410 12 410 12 410 20 c 0,26,27
 410 53 410 53 415 117.5 c 128,-1,28
 420 182 420 182 420 215 c 0,29,30
 420 334 420 334 378 479.5 c 128,-1,31
 336 625 336 625 303 625 c 0,32,33
 262 625 262 625 219 484.5 c 128,-1,34
 176 344 176 344 176 205 c 0,35,36
 176 178 176 178 181 122 c 128,-1,37
 186 66 186 66 186 39 c 0,38,39
 186 23 186 23 180 11.5 c 128,-1,40
 174 0 174 0 166 0 c 2,41,-1
 88 0 l 2,0,1
EndSplineSet
EndChar

StartChar: tm_ikaar
Encoding: 3007 3007 85
Width: 781
GlyphClass: 2
Flags: W
LayerCount: 2
Fore
SplineSet
557 820 m 0,0,1
 557 918 557 918 501 976.5 c 128,-1,2
 445 1035 445 1035 352 1035 c 0,3,4
 283 1035 283 1035 234.5 995 c 128,-1,5
 186 955 186 955 186 898 c 0,6,7
 186 867 186 867 195.5 837 c 128,-1,8
 205 807 205 807 225 781 c 1,9,-1
 166 771 l 1,10,11
 143 807 143 807 130 847 c 128,-1,12
 117 887 117 887 117 928 c 0,13,14
 117 1045 117 1045 197 1128 c 128,-1,15
 277 1211 277 1211 391 1211 c 0,16,17
 504 1211 504 1211 584 1128 c 128,-1,18
 664 1045 664 1045 664 928 c 0,19,20
 664 797 664 797 606.5 652.5 c 128,-1,21
 549 508 549 508 498 508 c 0,22,23
 486 508 486 508 477.5 516.5 c 128,-1,24
 469 525 469 525 469 537 c 0,25,26
 469 551 469 551 490.5 587 c 128,-1,27
 512 623 512 623 518 635 c 0,28,29
 537 668 537 668 547 715 c 128,-1,30
 557 762 557 762 557 820 c 0,0,1
EndSplineSet
EndChar

StartChar: tm_iikaar
Encoding: 3008 3008 86
Width: 732
GlyphClass: 4
Flags: W
LayerCount: 2
Fore
SplineSet
322 996 m 0,0,1
 322 1029 322 1029 330 1058.5 c 128,-1,2
 338 1088 338 1088 352 1113 c 1,3,4
 287 1113 287 1113 241 1067 c 128,-1,5
 195 1021 195 1021 195 957 c 0,6,7
 195 902 195 902 218.5 855.5 c 128,-1,8
 242 809 242 809 283 781 c 1,9,-1
 215 762 l 1,10,11
 168 801 168 801 142.5 865.5 c 128,-1,12
 117 930 117 930 117 1006 c 0,13,14
 117 1107 117 1107 194 1178.5 c 128,-1,15
 271 1250 271 1250 381 1250 c 0,16,17
 479 1250 479 1250 547 1187.5 c 128,-1,18
 615 1125 615 1125 615 1035 c 0,19,20
 615 963 615 963 572 911 c 128,-1,21
 529 859 529 859 469 859 c 0,22,23
 408 859 408 859 365 899 c 128,-1,24
 322 939 322 939 322 996 c 0,0,1
469 918 m 0,25,26
 492 918 492 918 509.5 940.5 c 128,-1,27
 527 963 527 963 527 996 c 0,28,29
 527 1031 527 1031 505.5 1060.5 c 128,-1,30
 484 1090 484 1090 449 1104 c 1,31,32
 422 1094 422 1094 406.5 1064.5 c 128,-1,33
 391 1035 391 1035 391 996 c 0,34,35
 391 963 391 963 413.5 940.5 c 128,-1,36
 436 918 436 918 469 918 c 0,25,26
EndSplineSet
EndChar

StartChar: tm_ukaar
Encoding: 3009 3009 87
Width: 734
GlyphClass: 4
Flags: W
LayerCount: 2
Fore
SplineSet
439 322 m 0,0,1
 379 322 379 322 297 440.5 c 128,-1,2
 215 559 215 559 215 645 c 0,3,4
 215 670 215 670 218 689.5 c 128,-1,5
 221 709 221 709 225 723 c 1,6,-1
 -303 723 l 1,7,-1
 -303 781 l 1,8,-1
 576 781 l 2,9,10
 625 781 625 781 659 738 c 128,-1,11
 693 695 693 695 693 635 c 0,12,13
 693 531 693 531 608 426.5 c 128,-1,14
 523 322 523 322 439 322 c 0,0,1
400 459 m 0,15,16
 437 459 437 459 477.5 530.5 c 128,-1,17
 518 602 518 602 518 664 c 0,18,19
 518 687 518 687 503 705 c 128,-1,20
 488 723 488 723 469 723 c 2,21,-1
 303 723 l 1,22,23
 293 705 293 705 288 690.5 c 128,-1,24
 283 676 283 676 283 664 c 0,25,26
 283 592 283 592 321 525.5 c 128,-1,27
 359 459 359 459 400 459 c 0,15,16
EndSplineSet
EndChar

StartChar: tm_uukaar
Encoding: 3010 3010 88
Width: 1092
GlyphClass: 4
Flags: W
LayerCount: 2
Fore
SplineSet
596 10 m 0,0,1
 584 10 584 10 575 21.5 c 128,-1,2
 566 33 566 33 566 49 c 0,3,4
 566 61 566 61 581 79.5 c 128,-1,5
 596 98 596 98 625 127 c 0,6,7
 746 244 746 244 812.5 374 c 128,-1,8
 879 504 879 504 879 625 c 0,9,10
 879 754 879 754 781.5 885 c 128,-1,11
 684 1016 684 1016 586 1016 c 0,12,13
 521 1016 521 1016 448 953.5 c 128,-1,14
 375 891 375 891 312 781 c 1,15,-1
 576 781 l 2,16,17
 625 781 625 781 659 738 c 128,-1,18
 693 695 693 695 693 635 c 0,19,20
 693 531 693 531 608 426.5 c 128,-1,21
 523 322 523 322 439 322 c 0,22,23
 379 322 379 322 297 440.5 c 128,-1,24
 215 559 215 559 215 645 c 0,25,26
 215 670 215 670 218 689.5 c 128,-1,27
 221 709 221 709 225 723 c 1,28,-1
 -303 723 l 1,29,-1
 -303 781 l 1,30,-1
 244 781 l 1,31,32
 342 949 342 949 451.5 1046 c 128,-1,33
 561 1143 561 1143 654 1143 c 0,34,35
 791 1143 791 1143 918 984.5 c 128,-1,36
 1045 826 1045 826 1045 654 c 0,37,38
 1045 557 1045 557 971.5 427 c 128,-1,39
 898 297 898 297 762 156 c 0,40,41
 742 135 742 135 683.5 72.5 c 128,-1,42
 625 10 625 10 596 10 c 0,0,1
391 449 m 0,43,44
 430 449 430 449 474 526.5 c 128,-1,45
 518 604 518 604 518 674 c 0,46,47
 518 693 518 693 506 708 c 128,-1,48
 494 723 494 723 479 723 c 2,49,-1
 303 723 l 1,50,51
 293 705 293 705 288 690.5 c 128,-1,52
 283 676 283 676 283 664 c 0,53,54
 283 588 283 588 318.5 518.5 c 128,-1,55
 354 449 354 449 391 449 c 0,43,44
EndSplineSet
EndChar

StartChar: tm_ekaar
Encoding: 3014 3014 89
Width: 1053
GlyphClass: 2
Flags: W
LayerCount: 2
Fore
SplineSet
66 381 m 0,0,1
 66 635 66 635 272.5 869.5 c 128,-1,2
 479 1104 479 1104 701 1104 c 0,3,4
 824 1104 824 1104 904 968 c 128,-1,5
 984 832 984 832 984 625 c 0,6,7
 984 518 984 518 945 375 c 128,-1,8
 906 232 906 232 828 59 c 0,9,10
 805 8 805 8 785.5 -20.5 c 128,-1,11
 766 -49 766 -49 750 -49 c 0,12,13
 738 -49 738 -49 729.5 -40 c 128,-1,14
 721 -31 721 -31 721 -20 c 0,15,16
 721 -2 721 -2 733.5 27.5 c 128,-1,17
 746 57 746 57 779 127 c 1,18,19
 812 221 812 221 830 302 c 128,-1,20
 848 383 848 383 848 449 c 0,21,22
 848 680 848 680 779.5 843 c 128,-1,23
 711 1006 711 1006 613 1006 c 0,24,25
 473 1006 473 1006 299 798 c 128,-1,26
 125 590 125 590 125 420 c 1,27,28
 195 516 195 516 275 570.5 c 128,-1,29
 355 625 355 625 428 625 c 0,30,31
 486 625 486 625 525 564.5 c 128,-1,32
 564 504 564 504 564 410 c 0,33,34
 564 258 564 258 494 129 c 128,-1,35
 424 0 424 0 340 0 c 0,36,37
 238 0 238 0 152 120 c 128,-1,38
 66 240 66 240 66 381 c 0,0,1
271 137 m 0,39,40
 305 137 305 137 347 234.5 c 128,-1,41
 389 332 389 332 389 410 c 0,42,43
 389 455 389 455 368.5 486.5 c 128,-1,44
 348 518 348 518 320 518 c 0,45,46
 271 518 271 518 212.5 441.5 c 128,-1,47
 154 365 154 365 154 303 c 0,48,49
 154 244 154 244 192 190.5 c 128,-1,50
 230 137 230 137 271 137 c 0,39,40
EndSplineSet
EndChar

StartChar: tm_eekaar
Encoding: 3015 3015 90
Width: 1066
GlyphClass: 2
Flags: W
LayerCount: 2
Fore
SplineSet
670 -39 m 0,0,1
 420 -39 420 -39 242 138.5 c 128,-1,2
 64 316 64 316 64 566 c 0,3,4
 64 803 64 803 236 987.5 c 128,-1,5
 408 1172 408 1172 631 1172 c 0,6,7
 762 1172 762 1172 872 1107.5 c 128,-1,8
 982 1043 982 1043 982 967 c 0,9,10
 982 861 982 861 899 772.5 c 128,-1,11
 816 684 816 684 719 684 c 0,12,13
 643 684 643 684 588 772.5 c 128,-1,14
 533 861 533 861 533 986 c 0,15,16
 533 998 533 998 538 1017.5 c 128,-1,17
 543 1037 543 1037 553 1064 c 1,18,19
 418 1041 418 1041 329 899.5 c 128,-1,20
 240 758 240 758 240 566 c 0,21,22
 240 332 240 332 346.5 190.5 c 128,-1,23
 453 49 453 49 631 49 c 2,24,-1
 689 49 l 1,25,26
 615 127 615 127 574 198.5 c 128,-1,27
 533 270 533 270 533 322 c 0,28,29
 533 391 533 391 628 439.5 c 128,-1,30
 723 488 723 488 855 488 c 0,31,32
 932 488 932 488 976.5 451 c 128,-1,33
 1021 414 1021 414 1021 352 c 0,34,35
 1021 199 1021 199 915 80 c 128,-1,36
 809 -39 809 -39 670 -39 c 0,0,1
738 78 m 1,37,38
 797 104 797 104 831 184 c 128,-1,39
 865 264 865 264 865 371 c 0,40,41
 865 387 865 387 853.5 398.5 c 128,-1,42
 842 410 842 410 826 410 c 0,43,44
 746 410 746 410 678.5 376 c 128,-1,45
 611 342 611 342 611 303 c 0,46,47
 611 246 611 246 644.5 187.5 c 128,-1,48
 678 129 678 129 738 78 c 1,37,38
680 840 m 0,49,50
 730 840 730 840 778 890.5 c 128,-1,51
 826 941 826 941 826 996 c 0,52,53
 826 1021 826 1021 764.5 1042.5 c 128,-1,54
 703 1064 703 1064 631 1064 c 1,55,56
 621 1037 621 1037 616 1015.5 c 128,-1,57
 611 994 611 994 611 977 c 0,58,59
 611 926 611 926 632.5 883 c 128,-1,60
 654 840 654 840 680 840 c 0,49,50
EndSplineSet
EndChar

StartChar: tm_aikaar
Encoding: 3016 3016 91
Width: 1482
GlyphClass: 2
Flags: W
LayerCount: 2
Fore
SplineSet
248 -10 m 0,0,1
 180 -10 180 -10 121 79 c 128,-1,2
 62 168 62 168 62 273 c 0,3,4
 62 486 62 486 203 638.5 c 128,-1,5
 344 791 344 791 541 791 c 0,6,7
 633 791 633 791 712 762.5 c 128,-1,8
 791 734 791 734 844 684 c 1,9,10
 914 730 914 730 981.5 755.5 c 128,-1,11
 1049 781 1049 781 1107 781 c 0,12,13
 1227 781 1227 781 1328.5 649.5 c 128,-1,14
 1430 518 1430 518 1430 361 c 0,15,16
 1430 258 1430 258 1311.5 129 c 128,-1,17
 1193 0 1193 0 1098 0 c 0,18,19
 1090 0 1090 0 1084 6 c 128,-1,20
 1078 12 1078 12 1078 20 c 0,21,22
 1078 31 1078 31 1101.5 53.5 c 128,-1,23
 1125 76 1125 76 1127 78 c 0,24,25
 1187 129 1187 129 1220.5 200 c 128,-1,26
 1254 271 1254 271 1254 352 c 0,27,28
 1254 469 1254 469 1180.5 576.5 c 128,-1,29
 1107 684 1107 684 1029 684 c 0,30,31
 992 684 992 684 956 671 c 128,-1,32
 920 658 920 658 893 635 c 1,33,34
 949 566 949 566 979.5 496 c 128,-1,35
 1010 426 1010 426 1010 361 c 0,36,37
 1010 227 1010 227 936.5 113.5 c 128,-1,38
 863 0 863 0 775 0 c 0,39,40
 703 0 703 0 641.5 92 c 128,-1,41
 580 184 580 184 580 293 c 0,42,43
 580 379 580 379 621 461 c 128,-1,44
 662 543 662 543 736 605 c 1,45,46
 695 664 695 664 635.5 698 c 128,-1,47
 576 732 576 732 512 732 c 0,48,49
 393 732 393 732 271.5 627.5 c 128,-1,50
 150 523 150 523 150 420 c 1,51,52
 193 463 193 463 249 485.5 c 128,-1,53
 305 508 305 508 365 508 c 0,54,55
 408 508 408 508 445 459 c 128,-1,56
 482 410 482 410 482 352 c 0,57,58
 482 217 482 217 409 103.5 c 128,-1,59
 336 -10 336 -10 248 -10 c 0,0,1
189 127 m 0,60,61
 229 127 229 127 268 202 c 128,-1,62
 307 277 307 277 307 352 c 0,63,64
 307 387 307 387 302 408.5 c 128,-1,65
 297 430 297 430 287 430 c 0,66,67
 246 430 246 430 183.5 378 c 128,-1,68
 121 326 121 326 121 293 c 0,69,70
 121 238 121 238 143.5 182.5 c 128,-1,71
 166 127 166 127 189 127 c 0,60,61
707 127 m 0,72,73
 752 127 752 127 793 203 c 128,-1,74
 834 279 834 279 834 361 c 0,75,76
 834 416 834 416 816.5 465 c 128,-1,77
 799 514 799 514 766 547 c 1,78,79
 705 504 705 504 672 436.5 c 128,-1,80
 639 369 639 369 639 293 c 0,81,82
 639 244 639 244 663 185.5 c 128,-1,83
 687 127 687 127 707 127 c 0,72,73
EndSplineSet
EndChar

StartChar: tm_halant
Encoding: 3021 3021 95
Width: 570
GlyphClass: 4
Flags: W
LayerCount: 2
Fore
SplineSet
275 918 m 0,0,1
 227 918 227 918 192.5 949 c 128,-1,2
 158 980 158 980 158 1025 c 0,3,4
 158 1094 158 1094 198 1142.5 c 128,-1,5
 238 1191 238 1191 295 1191 c 0,6,7
 344 1191 344 1191 378 1160 c 128,-1,8
 412 1129 412 1129 412 1084 c 0,9,10
 412 1016 412 1016 372 967 c 128,-1,11
 332 918 332 918 275 918 c 0,0,1
EndSplineSet
EndChar

StartChar: tm_two
Encoding: 3048 3048 98
Width: 1425
GlyphClass: 2
Flags: W
LayerCount: 2
Fore
SplineSet
1244 70 m 1,0,-1
 1226 0 l 1,1,-1
 586 0 l 2,2,3
 429 0 429 0 429 106 c 0,4,5
 429 153 429 153 478 181.5 c 128,-1,6
 527 210 527 210 586 210 c 2,7,-1
 779 210 l 2,8,9
 867 210 867 210 928 271.5 c 128,-1,10
 989 333 989 333 989 420 c 0,11,12
 989 500 989 500 945 560.5 c 128,-1,13
 901 621 901 621 831 621 c 0,14,15
 793 621 793 621 744 595 c 1,16,17
 814 555 814 555 814 437 c 0,18,19
 814 382 814 382 772.5 344.5 c 128,-1,20
 731 307 731 307 675 307 c 0,21,22
 618 307 618 307 580 351 c 128,-1,23
 542 395 542 395 542 455 c 0,24,25
 542 565 542 565 646.5 632.5 c 128,-1,26
 751 700 751 700 884 700 c 0,27,28
 987 700 987 700 1058 629 c 128,-1,29
 1129 558 1129 558 1129 455 c 0,30,31
 1129 321 1129 321 1025.5 230.5 c 128,-1,32
 922 140 922 140 779 140 c 2,33,-1
 595 140 l 2,34,35
 551 140 551 140 551 106 c 0,36,37
 551 70 551 70 604 70 c 2,38,-1
 1244 70 l 1,0,-1
675 560 m 1,39,40
 621 516 621 516 621 473 c 0,41,42
 621 386 621 386 666 386 c 0,43,44
 709 386 709 386 709 473 c 0,45,46
 709 518 709 518 675 560 c 1,39,40
EndSplineSet
EndChar

StartChar: tm_three
Encoding: 3049 3049 99
Width: 1424
GlyphClass: 2
Flags: W
LayerCount: 2
Fore
SplineSet
1270 70 m 1,0,-1
 1252 0 l 1,1,-1
 640 0 l 1,2,-1
 657 70 l 1,3,-1
 780 70 l 2,4,5
 874 70 874 70 941 130.5 c 128,-1,6
 1008 191 1008 191 1008 280 c 0,7,8
 1008 317 1008 317 982.5 342.5 c 128,-1,9
 957 368 957 368 920 368 c 0,10,11
 890 368 890 368 865 341 c 128,-1,12
 840 314 840 314 833 280 c 2,13,-1
 815 193 l 1,14,-1
 675 193 l 1,15,-1
 764 630 l 1,16,-1
 571 630 l 1,17,-1
 444 0 l 1,18,-1
 378 0 l 1,19,-1
 517 700 l 1,20,-1
 1095 700 l 1,21,-1
 1077 630 l 1,22,-1
 902 630 l 1,23,-1
 859 403 l 1,24,25
 918 455 918 455 990 455 c 0,26,27
 1057 455 1057 455 1102.5 403.5 c 128,-1,28
 1148 352 1148 352 1148 280 c 0,29,30
 1148 209 1148 209 1090 151 c 128,-1,31
 1032 93 1032 93 947 70 c 1,32,-1
 1270 70 l 1,0,-1
EndSplineSet
EndChar

StartChar: tm_four
Encoding: 3050 3050 100
Width: 855
GlyphClass: 2
Flags: W
LayerCount: 2
Fore
SplineSet
338 0 m 0,0,1
 232 0 232 0 133.5 92 c 128,-1,2
 35 184 35 184 35 283 c 0,3,4
 35 344 35 344 87 387 c 128,-1,5
 139 430 139 430 211 430 c 1,6,7
 229 596 229 596 318.5 708 c 128,-1,8
 408 820 408 820 523 820 c 2,9,-1
 699 820 l 2,10,11
 723 820 723 820 740.5 811.5 c 128,-1,12
 758 803 758 803 758 791 c 256,13,14
 758 779 758 779 743.5 770.5 c 128,-1,15
 729 762 729 762 709 762 c 2,16,-1
 660 762 l 2,17,18
 645 762 645 762 633 753 c 128,-1,19
 621 744 621 744 621 732 c 2,20,-1
 621 430 l 1,21,-1
 816 430 l 2,22,23
 828 430 828 430 837 421 c 128,-1,24
 846 412 846 412 846 400 c 0,25,26
 846 389 846 389 831 380 c 128,-1,27
 816 371 816 371 797 371 c 2,28,-1
 621 371 l 1,29,30
 609 215 609 215 528 107.5 c 128,-1,31
 447 0 447 0 338 0 c 0,0,1
289 78 m 0,32,33
 336 78 336 78 385 170 c 128,-1,34
 434 262 434 262 445 371 c 1,35,-1
 201 371 l 2,36,37
 160 371 160 371 132 342.5 c 128,-1,38
 104 314 104 314 104 273 c 0,39,40
 104 209 104 209 166.5 143.5 c 128,-1,41
 229 78 229 78 289 78 c 0,32,33
270 430 m 1,42,-1
 445 430 l 1,43,-1
 445 625 l 2,44,45
 445 648 445 648 436.5 666 c 128,-1,46
 428 684 428 684 416 684 c 0,47,48
 373 684 373 684 321.5 594 c 128,-1,49
 270 504 270 504 270 430 c 1,42,-1
EndSplineSet
EndChar

StartChar: tm_five
Encoding: 3051 3051 101
Width: 1424
GlyphClass: 2
Flags: W
LayerCount: 2
Fore
SplineSet
1412 517 m 1,0,-1
 1359 526 l 1,1,2
 1369 563 1369 563 1369 598 c 0,3,4
 1369 723 1369 723 1253.5 825.5 c 128,-1,5
 1138 928 1138 928 965 928 c 0,6,7
 728 928 728 928 575.5 716 c 128,-1,8
 423 504 423 504 423 228 c 0,9,10
 423 -43 423 -43 515 -179.5 c 128,-1,11
 607 -316 607 -316 790 -316 c 0,12,13
 979 -316 979 -316 1103.5 -163.5 c 128,-1,14
 1228 -11 1228 -11 1228 193 c 0,15,16
 1228 257 1228 257 1200 304.5 c 128,-1,17
 1172 352 1172 352 1126 352 c 0,18,19
 1099 352 1099 352 1072.5 336.5 c 128,-1,20
 1046 321 1046 321 1039 298 c 2,21,-1
 980 0 l 1,22,-1
 840 0 l 1,23,-1
 965 630 l 1,24,-1
 759 630 l 1,25,-1
 634 0 l 1,26,-1
 566 0 l 1,27,-1
 706 700 l 1,28,-1
 1237 700 l 1,29,-1
 1219 630 l 1,30,-1
 1105 630 l 1,31,-1
 1057 386 l 1,32,33
 1101 437 1101 437 1171 437 c 0,34,35
 1261 437 1261 437 1314.5 368.5 c 128,-1,36
 1368 300 1368 300 1368 193 c 0,37,38
 1368 -47 1368 -47 1202.5 -216 c 128,-1,39
 1037 -385 1037 -385 799 -385 c 0,40,41
 589 -385 589 -385 471.5 -223 c 128,-1,42
 354 -61 354 -61 354 193 c 0,43,44
 354 513 354 513 519 764 c 128,-1,45
 684 1015 684 1015 948 1015 c 0,46,47
 1152 1015 1152 1015 1288.5 889.5 c 128,-1,48
 1425 764 1425 764 1425 613 c 0,49,50
 1425 566 1425 566 1412 517 c 1,0,-1
EndSplineSet
EndChar

StartChar: tm_six
Encoding: 3052 3052 102
Width: 1424
GlyphClass: 2
Flags: W
LayerCount: 2
Fore
SplineSet
784 316 m 1,0,-1
 513 316 l 2,1,2
 469 316 469 316 438 291 c 128,-1,3
 407 266 407 266 407 228 c 0,4,5
 407 158 407 158 477 114 c 128,-1,6
 547 70 547 70 635 70 c 0,7,8
 680 70 680 70 713 99.5 c 128,-1,9
 746 129 746 129 756 175 c 2,10,-1
 784 316 l 1,0,-1
846 630 m 1,11,-1
 653 630 l 1,12,-1
 603 386 l 1,13,-1
 798 386 l 1,14,-1
 846 630 l 1,11,-1
910 245 m 2,15,16
 884 125 884 125 808 62.5 c 128,-1,17
 732 0 732 0 635 0 c 0,18,19
 518 0 518 0 428 64 c 128,-1,20
 338 128 338 128 338 228 c 0,21,22
 338 294 338 294 389.5 340 c 128,-1,23
 441 386 441 386 513 386 c 2,24,-1
 537 386 l 1,25,-1
 600 700 l 1,26,-1
 1229 700 l 1,27,-1
 1213 630 l 1,28,-1
 988 630 l 1,29,-1
 938 386 l 1,30,-1
 1422 386 l 1,31,-1
 1410 316 l 1,32,-1
 1353 316 l 1,33,-1
 1291 0 l 1,34,-1
 1151 0 l 1,35,-1
 1213 316 l 1,36,-1
 1116 316 l 1,37,-1
 1055 0 l 1,38,-1
 967 0 l 1,39,-1
 1028 316 l 1,40,-1
 924 316 l 1,41,-1
 910 245 l 2,15,16
EndSplineSet
EndChar

StartChar: tm_seven
Encoding: 3053 3053 103
Width: 1425
GlyphClass: 2
Flags: W
LayerCount: 2
Fore
SplineSet
643 88 m 1,0,1
 706 88 706 88 753 128 c 128,-1,2
 800 168 800 168 800 228 c 0,3,4
 800 269 800 269 781 301 c 128,-1,5
 762 333 762 333 729 333 c 0,6,7
 684 333 684 333 654.5 296.5 c 128,-1,8
 625 260 625 260 625 210 c 0,9,10
 625 135 625 135 643 88 c 1,0,1
1042 0 m 1,11,-1
 1167 630 l 1,12,-1
 852 630 l 2,13,14
 704 630 704 630 594.5 540.5 c 128,-1,15
 485 451 485 451 485 316 c 0,16,17
 485 247 485 247 507 194.5 c 128,-1,18
 529 142 529 142 572 106 c 1,19,20
 555 135 555 135 555 228 c 256,21,22
 555 321 555 321 614.5 388 c 128,-1,23
 674 455 674 455 765 455 c 0,24,25
 837 455 837 455 884 398 c 128,-1,26
 931 341 931 341 931 263 c 0,27,28
 931 155 931 155 863 77.5 c 128,-1,29
 795 0 795 0 695 0 c 0,30,31
 576 0 576 0 495.5 94 c 128,-1,32
 415 188 415 188 415 316 c 0,33,34
 415 481 415 481 545.5 590.5 c 128,-1,35
 676 700 676 700 852 700 c 2,36,-1
 1430 700 l 1,37,-1
 1412 630 l 1,38,-1
 1307 630 l 1,39,-1
 1181 0 l 1,40,-1
 1042 0 l 1,11,-1
EndSplineSet
EndChar

StartChar: tm_eight
Encoding: 3054 3054 104
Width: 1427
GlyphClass: 2
Flags: W
LayerCount: 2
Fore
SplineSet
849 629 m 1,0,1
 745 611 745 611 670 548.5 c 128,-1,2
 595 486 595 486 595 402 c 0,3,4
 595 338 595 338 638.5 291 c 128,-1,5
 682 244 682 244 744 244 c 0,6,7
 817 244 817 244 864 307.5 c 128,-1,8
 911 371 911 371 911 454 c 0,9,10
 911 580 911 580 849 629 c 1,0,1
1024 140 m 1,11,-1
 411 140 l 2,12,13
 381 140 381 140 357 125 c 128,-1,14
 333 110 333 110 333 87 c 0,15,16
 333 43 333 43 412 -13.5 c 128,-1,17
 491 -70 491 -70 639 -70 c 0,18,19
 743 -70 743 -70 839.5 -18 c 128,-1,20
 936 34 936 34 1024 140 c 1,11,-1
1414 -245 m 1,21,-1
 1269 -245 l 1,22,-1
 1348 140 l 1,23,-1
 1164 140 l 1,24,25
 1051 4 1051 4 915 -63.5 c 128,-1,26
 779 -131 779 -131 621 -131 c 0,27,28
 421 -131 421 -131 311.5 -52.5 c 128,-1,29
 202 26 202 26 202 123 c 0,30,31
 202 160 202 160 233 184.5 c 128,-1,32
 264 209 264 209 307 209 c 2,33,-1
 666 209 l 1,34,35
 604 231 604 231 565 284.5 c 128,-1,36
 526 338 526 338 526 402 c 0,37,38
 526 534 526 534 652 617 c 128,-1,39
 778 700 778 700 937 700 c 0,40,41
 1069 700 1069 700 1169 620.5 c 128,-1,42
 1269 541 1269 541 1269 420 c 0,43,44
 1269 306 1269 306 1213 209 c 1,45,-1
 1364 209 l 1,46,-1
 1463 700 l 1,47,-1
 1603 700 l 1,48,-1
 1414 -245 l 1,21,-1
989 620 m 1,49,50
 1042 530 1042 530 1042 411 c 0,51,52
 1042 267 1042 267 919 209 c 1,53,-1
 1077 209 l 1,54,55
 1146 308 1146 308 1146 402 c 0,56,57
 1146 486 1146 486 1103 553 c 128,-1,58
 1060 620 1060 620 989 620 c 1,49,50
EndSplineSet
EndChar

StartChar: tm_nine
Encoding: 3055 3055 105
Width: 1427
GlyphClass: 2
Flags: W
LayerCount: 2
Fore
SplineSet
692 316 m 1,0,-1
 422 316 l 2,1,2
 379 316 379 316 348 291 c 128,-1,3
 317 266 317 266 317 228 c 0,4,5
 317 158 317 158 387 114 c 128,-1,6
 457 70 457 70 544 70 c 0,7,8
 589 70 589 70 622 99.5 c 128,-1,9
 655 129 655 129 665 175 c 2,10,-1
 692 316 l 1,0,-1
756 630 m 1,11,-1
 562 630 l 1,12,-1
 513 386 l 1,13,-1
 707 386 l 1,14,-1
 756 630 l 1,11,-1
1157 175 m 0,15,16
 1157 259 1157 259 1052 298 c 1,17,18
 982 240 982 240 982 158 c 0,19,20
 982 121 982 121 1007.5 95.5 c 128,-1,21
 1033 70 1033 70 1068 70 c 0,22,23
 1107 70 1107 70 1132 101.5 c 128,-1,24
 1157 133 1157 133 1157 175 c 0,15,16
1297 0 m 1,25,26
 1375 93 1375 93 1375 193 c 0,27,28
 1375 263 1375 263 1332.5 315.5 c 128,-1,29
 1290 368 1290 368 1226 368 c 0,30,31
 1163 368 1163 368 1113 342 c 1,32,33
 1167 322 1167 322 1201 276.5 c 128,-1,34
 1235 231 1235 231 1235 175 c 0,35,36
 1235 104 1235 104 1187 52 c 128,-1,37
 1139 0 1139 0 1068 0 c 0,38,39
 1005 0 1005 0 958.5 46.5 c 128,-1,40
 912 93 912 93 912 158 c 0,41,42
 912 257 912 257 982 316 c 1,43,-1
 833 316 l 1,44,-1
 819 245 l 2,45,46
 795 125 795 125 718.5 62.5 c 128,-1,47
 642 0 642 0 544 0 c 0,48,49
 428 0 428 0 337 64 c 128,-1,50
 246 128 246 128 246 228 c 0,51,52
 246 294 246 294 299 340 c 128,-1,53
 352 386 352 386 422 386 c 2,54,-1
 446 386 l 1,55,-1
 508 700 l 1,56,-1
 1122 700 l 1,57,-1
 1104 630 l 1,58,-1
 896 630 l 1,59,-1
 847 386 l 1,60,-1
 947 386 l 2,61,62
 1014 386 1014 386 1052 368 c 1,63,64
 1111 420 1111 420 1226 420 c 0,65,66
 1327 420 1327 420 1399.5 354.5 c 128,-1,67
 1472 289 1472 289 1472 193 c 0,68,69
 1472 109 1472 109 1410 0 c 1,70,-1
 1297 0 l 1,25,26
EndSplineSet
EndChar

StartChar: tm_ten
Encoding: 3056 3056 106
Width: 1305
GlyphClass: 2
Flags: W
LayerCount: 2
Fore
SplineSet
568 0 m 2,0,1
 518 0 518 0 477.5 60.5 c 128,-1,2
 437 121 437 121 432 209 c 1,3,4
 371 111 371 111 305.5 55.5 c 128,-1,5
 240 0 240 0 187 0 c 0,6,7
 148 0 148 0 114 94.5 c 128,-1,8
 80 189 80 189 80 301 c 0,9,10
 80 457 80 457 110.5 563.5 c 128,-1,11
 141 670 141 670 187 670 c 2,12,-1
 285 670 l 2,13,14
 301 670 301 670 312.5 663 c 128,-1,15
 324 656 324 656 324 646 c 0,16,17
 324 639 324 639 319 625 c 128,-1,18
 314 611 314 611 305 594 c 0,19,20
 281 549 281 549 268.5 474.5 c 128,-1,21
 256 400 256 400 256 301 c 0,22,23
 256 256 256 256 268.5 211 c 128,-1,24
 281 166 281 166 295 166 c 0,25,26
 311 166 311 166 336 199 c 128,-1,27
 361 232 361 232 363 234 c 2,28,-1
 432 352 l 1,29,-1
 432 393 l 2,30,31
 432 510 432 510 453.5 590 c 128,-1,32
 475 670 475 670 510 670 c 2,33,-1
 627 670 l 2,34,35
 639 670 639 670 647.5 663 c 128,-1,36
 656 656 656 656 656 646 c 0,37,38
 656 639 656 639 653 623 c 128,-1,39
 650 607 650 607 646 584 c 1,40,41
 627 535 627 535 617 487 c 128,-1,42
 607 439 607 439 607 393 c 2,43,-1
 607 193 l 2,44,45
 607 129 607 129 644.5 90 c 128,-1,46
 682 51 682 51 744 51 c 2,47,-1
 920 51 l 2,48,49
 965 51 965 51 991.5 105.5 c 128,-1,50
 1018 160 1018 160 1018 250 c 2,51,-1
 1018 715 l 2,52,53
 1018 742 1018 742 1003 761.5 c 128,-1,54
 988 781 988 781 969 781 c 2,55,-1
 412 781 l 2,56,57
 373 781 373 781 373 820 c 128,-1,58
 373 859 373 859 412 859 c 2,59,-1
 1076 859 l 2,60,61
 1125 859 1125 859 1159 817 c 128,-1,62
 1193 775 1193 775 1193 715 c 2,63,-1
 1193 250 l 2,64,65
 1193 146 1193 146 1168 73 c 128,-1,66
 1143 0 1143 0 1105 0 c 2,67,-1
 568 0 l 2,0,1
EndSplineSet
EndChar

StartChar: tm_hundred
Encoding: 3057 3057 107
Width: 1102
GlyphClass: 2
Flags: W
LayerCount: 2
Fore
SplineSet
57 0 m 1,0,1
 57 174 57 174 97 333 c 128,-1,2
 137 492 137 492 213 625 c 0,3,4
 254 697 254 697 296 739 c 128,-1,5
 338 781 338 781 369 781 c 0,6,7
 414 781 414 781 458 695 c 128,-1,8
 502 609 502 609 525 479 c 1,9,10
 598 627 598 627 717 714 c 128,-1,11
 836 801 836 801 965 801 c 2,12,-1
 1033 801 l 2,13,14
 1045 801 1045 801 1053.5 792 c 128,-1,15
 1062 783 1062 783 1062 771 c 0,16,17
 1062 760 1062 760 1053.5 751 c 128,-1,18
 1045 742 1045 742 1033 742 c 0,19,20
 967 742 967 742 921 732.5 c 128,-1,21
 875 723 875 723 857 703 c 1,22,23
 928 619 928 619 966 493 c 128,-1,24
 1004 367 1004 367 1004 215 c 0,25,26
 1004 107 1004 107 997 53.5 c 128,-1,27
 990 0 990 0 965 0 c 2,28,-1
 838 0 l 2,29,30
 830 0 830 0 824 6 c 128,-1,31
 818 12 818 12 818 20 c 0,32,33
 818 53 818 53 823 117.5 c 128,-1,34
 828 182 828 182 828 215 c 0,35,36
 828 330 828 330 786 472.5 c 128,-1,37
 744 615 744 615 711 615 c 0,38,39
 674 615 674 615 629 550.5 c 128,-1,40
 584 486 584 486 545 381 c 1,41,42
 549 334 549 334 552 263.5 c 128,-1,43
 555 193 555 193 555 98 c 0,44,45
 555 57 555 57 543 28.5 c 128,-1,46
 531 0 531 0 516 0 c 2,47,-1
 418 0 l 2,48,49
 402 0 402 0 390.5 14.5 c 128,-1,50
 379 29 379 29 379 49 c 2,51,-1
 379 254 l 2,52,53
 379 385 379 385 351.5 495 c 128,-1,54
 324 605 324 605 291 605 c 0,55,56
 240 605 240 605 192.5 430.5 c 128,-1,57
 145 256 145 256 145 68 c 0,58,59
 145 39 145 39 139 19.5 c 128,-1,60
 133 0 133 0 125 0 c 2,61,-1
 57 0 l 1,0,1
EndSplineSet
EndChar

StartChar: tm_thousand
Encoding: 3058 3058 108
Width: 1283
GlyphClass: 2
Flags: W
LayerCount: 2
Fore
SplineSet
340 0 m 0,0,1
 234 0 234 0 135.5 89 c 128,-1,2
 37 178 37 178 37 273 c 0,3,4
 37 338 37 338 89 384 c 128,-1,5
 141 430 141 430 213 430 c 1,6,7
 230 596 230 596 320 708 c 128,-1,8
 410 820 410 820 525 820 c 2,9,-1
 701 820 l 2,10,11
 725 820 725 820 742.5 811.5 c 128,-1,12
 760 803 760 803 760 791 c 256,13,14
 760 779 760 779 745 770.5 c 128,-1,15
 730 762 730 762 711 762 c 2,16,-1
 652 762 l 2,17,18
 641 762 641 762 632 753 c 128,-1,19
 623 744 623 744 623 732 c 2,20,-1
 623 430 l 1,21,-1
 1014 430 l 2,22,23
 1025 430 1025 430 1034 421 c 128,-1,24
 1043 412 1043 412 1043 400 c 0,25,26
 1043 389 1043 389 1028.5 380 c 128,-1,27
 1014 371 1014 371 994 371 c 2,28,-1
 945 371 l 2,29,30
 934 371 934 371 925 353.5 c 128,-1,31
 916 336 916 336 916 312 c 2,32,-1
 916 215 l 1,33,34
 984 271 984 271 1046.5 301.5 c 128,-1,35
 1109 332 1109 332 1160 332 c 0,36,37
 1193 332 1193 332 1220.5 295 c 128,-1,38
 1248 258 1248 258 1248 215 c 0,39,40
 1248 125 1248 125 1137.5 10 c 128,-1,41
 1027 -105 1027 -105 838 -215 c 0,42,43
 697 -297 697 -297 518.5 -339 c 128,-1,44
 340 -381 340 -381 135 -381 c 0,45,46
 115 -381 115 -381 100.5 -369 c 128,-1,47
 86 -357 86 -357 86 -342 c 0,48,49
 86 -330 86 -330 95 -321.5 c 128,-1,50
 104 -313 104 -313 115 -313 c 0,51,52
 330 -313 330 -313 511.5 -265 c 128,-1,53
 693 -217 693 -217 828 -127 c 0,54,55
 943 -49 943 -49 1007.5 31 c 128,-1,56
 1072 111 1072 111 1072 176 c 0,57,58
 1072 195 1072 195 1066.5 210 c 128,-1,59
 1061 225 1061 225 1053 225 c 0,60,61
 1031 225 1031 225 996 199.5 c 128,-1,62
 961 174 961 174 916 127 c 1,63,64
 912 78 912 78 877 39 c 128,-1,65
 842 0 842 0 799 0 c 0,66,67
 770 0 770 0 740.5 26.5 c 128,-1,68
 711 53 711 53 711 78 c 0,69,70
 711 86 711 86 719 106.5 c 128,-1,71
 727 127 727 127 730 137 c 0,72,73
 740 164 740 164 745 222.5 c 128,-1,74
 750 281 750 281 750 371 c 1,75,-1
 623 371 l 1,76,77
 609 187 609 187 538 93.5 c 128,-1,78
 467 0 467 0 340 0 c 0,0,1
291 78 m 0,79,80
 350 78 350 78 398.5 170 c 128,-1,81
 447 262 447 262 447 371 c 1,82,-1
 203 371 l 2,83,84
 162 371 162 371 133.5 342.5 c 128,-1,85
 105 314 105 314 105 273 c 0,86,87
 105 209 105 209 167.5 143.5 c 128,-1,88
 230 78 230 78 291 78 c 0,79,80
271 430 m 1,89,-1
 447 430 l 1,90,-1
 447 625 l 2,91,92
 447 648 447 648 438.5 666 c 128,-1,93
 430 684 430 684 418 684 c 0,94,95
 375 684 375 684 323 594 c 128,-1,96
 271 504 271 504 271 430 c 1,89,-1
EndSplineSet
EndChar

StartChar: zerowidthnonjoiner
Encoding: 8204 8204 109
Width: 0
GlyphClass: 2
Flags: W
LayerCount: 2
Fore
SplineSet
315 1225 m 1,0,-1
 -34 -516 l 1,1,-1
 -103 -516 l 1,2,-1
 244 1225 l 1,3,-1
 315 1225 l 1,0,-1
EndSplineSet
EndChar

StartChar: zerowidthjoiner
Encoding: 8205 8205 110
Width: 0
GlyphClass: 2
Flags: W
LayerCount: 2
Fore
SplineSet
415 997 m 1,0,-1
 363 953 l 1,1,-1
 270 1073 l 1,2,-1
 -24 -441 l 1,3,-1
 -87 -441 l 1,4,-1
 206 1073 l 1,5,-1
 65 953 l 1,6,-1
 32 997 l 1,7,-1
 210 1145 l 1,8,-1
 89 1292 l 1,9,-1
 140 1334 l 1,10,-1
 260 1185 l 1,11,-1
 437 1334 l 1,12,-1
 472 1292 l 1,13,-1
 294 1145 l 1,14,-1
 415 997 l 1,0,-1
EndSplineSet
EndChar

StartChar: u2013
Encoding: 8211 8211 111
Width: 722
GlyphClass: 2
Flags: W
LayerCount: 2
Fore
SplineSet
733 319 m 1,0,-1
 -12 319 l 1,1,-1
 -12 370 l 1,2,-1
 733 370 l 1,3,-1
 733 319 l 1,0,-1
EndSplineSet
EndChar

StartChar: u2014
Encoding: 8212 8212 112
Width: 1284
GlyphClass: 2
Flags: W
LayerCount: 2
Fore
SplineSet
1296 318 m 1,0,-1
 -13 319 l 1,1,-1
 -13 371 l 1,2,-1
 1296 370 l 1,3,-1
 1296 318 l 1,0,-1
EndSplineSet
EndChar

StartChar: u2018
Encoding: 65539 -1 113
Width: 508
GlyphClass: 2
Flags: W
LayerCount: 2
Fore
SplineSet
254 576 m 0,0,1
 197 576 197 576 157 619 c 128,-1,2
 117 662 117 662 117 723 c 0,3,4
 117 771 117 771 162 859 c 128,-1,5
 207 947 207 947 293 1064 c 1,6,7
 311 1096 311 1096 329.5 1114.5 c 128,-1,8
 348 1133 348 1133 361 1133 c 0,9,10
 373 1133 373 1133 382 1124 c 128,-1,11
 391 1115 391 1115 391 1104 c 0,12,13
 391 1088 391 1088 381 1068.5 c 128,-1,14
 371 1049 371 1049 352 1025 c 2,15,-1
 293 937 l 2,16,17
 279 912 279 912 271.5 889.5 c 128,-1,18
 264 867 264 867 264 850 c 0,19,20
 264 838 264 838 275.5 819.5 c 128,-1,21
 287 801 287 801 312 771 c 1,22,23
 332 754 332 754 342 728.5 c 128,-1,24
 352 703 352 703 352 674 c 0,25,26
 352 633 352 633 323.5 604.5 c 128,-1,27
 295 576 295 576 254 576 c 0,0,1
EndSplineSet
EndChar

StartChar: u2019
Encoding: 65540 -1 114
Width: 508
GlyphClass: 2
Flags: W
LayerCount: 2
Fore
SplineSet
146 488 m 0,0,1
 135 488 135 488 126 497 c 128,-1,2
 117 506 117 506 117 518 c 0,3,4
 117 533 117 533 127 552.5 c 128,-1,5
 137 572 137 572 156 596 c 2,6,-1
 205 674 l 2,7,8
 225 707 225 707 234.5 731.5 c 128,-1,9
 244 756 244 756 244 771 c 0,10,11
 244 781 244 781 224.5 807.5 c 128,-1,12
 205 834 205 834 195 850 c 0,13,14
 176 873 176 873 166 897.5 c 128,-1,15
 156 922 156 922 156 947 c 0,16,17
 156 988 156 988 190.5 1016.5 c 128,-1,18
 225 1045 225 1045 273 1045 c 0,19,20
 322 1045 322 1045 356.5 1008 c 128,-1,21
 391 971 391 971 391 918 c 0,22,23
 391 867 391 867 346 776.5 c 128,-1,24
 301 686 301 686 215 557 c 0,25,26
 197 525 197 525 178.5 506.5 c 128,-1,27
 160 488 160 488 146 488 c 0,0,1
EndSplineSet
EndChar

StartChar: u201C
Encoding: 65541 -1 115
Width: 680
GlyphClass: 2
Flags: W
LayerCount: 2
Fore
SplineSet
8 968 m 1,0,1
 38 1064 38 1064 118 1150 c 128,-1,2
 198 1236 198 1236 290 1266 c 1,3,-1
 286 1234 l 1,4,5
 200 1172 200 1172 166 1136 c 1,6,7
 106 1060 106 1060 106 1000 c 1,8,-1
 110 968 l 1,9,-1
 144 966 l 1,10,-1
 198 956 l 1,11,12
 230 942 230 942 230 910 c 1,13,-1
 226 882 l 1,14,15
 202 786 202 786 122 786 c 0,16,17
 4 786 4 786 4 926 c 1,18,-1
 8 968 l 1,0,1
328 968 m 1,19,20
 358 1064 358 1064 438 1150 c 128,-1,21
 518 1236 518 1236 610 1266 c 1,22,-1
 606 1234 l 1,23,24
 520 1172 520 1172 486 1136 c 1,25,26
 426 1060 426 1060 426 1000 c 1,27,-1
 430 968 l 1,28,-1
 464 966 l 1,29,-1
 518 956 l 1,30,31
 550 942 550 942 550 910 c 1,32,-1
 546 882 l 1,33,34
 522 786 522 786 442 786 c 0,35,36
 324 786 324 786 324 926 c 1,37,-1
 328 968 l 1,19,20
EndSplineSet
EndChar

StartChar: u201D
Encoding: 65542 -1 116
Width: 696
GlyphClass: 2
Flags: W
LayerCount: 2
Fore
SplineSet
304 1074 m 1,0,1
 276 972 276 972 198 888 c 128,-1,2
 120 804 120 804 20 778 c 1,3,-1
 28 808 l 1,4,5
 120 880 120 880 142 904 c 0,6,7
 208 978 208 978 208 1034 c 1,8,-1
 206 1054 l 1,9,-1
 200 1074 l 1,10,-1
 108 1082 l 1,11,12
 82 1096 82 1096 82 1126 c 2,13,-1
 86 1156 l 1,14,15
 122 1258 122 1258 192 1258 c 0,16,17
 308 1258 308 1258 308 1114 c 1,18,-1
 304 1074 l 1,0,1
624 1074 m 1,19,20
 596 972 596 972 518 888 c 128,-1,21
 440 804 440 804 340 778 c 1,22,-1
 348 808 l 1,23,24
 440 880 440 880 462 904 c 0,25,26
 528 978 528 978 528 1034 c 1,27,-1
 526 1054 l 1,28,-1
 520 1074 l 1,29,-1
 428 1082 l 1,30,31
 402 1096 402 1096 402 1126 c 2,32,-1
 406 1156 l 1,33,34
 442 1258 442 1258 512 1258 c 0,35,36
 628 1258 628 1258 628 1114 c 1,37,-1
 624 1074 l 1,19,20
EndSplineSet
EndChar

StartChar: u2026
Encoding: 8230 8230 117
Width: 1283
GlyphClass: 2
Flags: W
LayerCount: 2
Fore
SplineSet
265 136 m 0,0,1
 298 136 298 136 320.5 114 c 128,-1,2
 343 92 343 92 343 58 c 0,3,4
 343 26 343 26 320.5 3 c 128,-1,5
 298 -20 298 -20 265 -20 c 0,6,7
 233 -20 233 -20 210 3 c 128,-1,8
 187 26 187 26 187 58 c 0,9,10
 187 92 187 92 210 114 c 128,-1,11
 233 136 233 136 265 136 c 0,0,1
638 136 m 256,12,13
 670 136 670 136 693 114 c 128,-1,14
 716 92 716 92 716 58 c 0,15,16
 716 26 716 26 692.5 3 c 128,-1,17
 669 -20 669 -20 638 -20 c 0,18,19
 606 -20 606 -20 583 3 c 128,-1,20
 560 26 560 26 560 58 c 0,21,22
 560 92 560 92 583 114 c 128,-1,23
 606 136 606 136 638 136 c 256,12,13
1010 136 m 0,24,25
 1043 136 1043 136 1066 114 c 128,-1,26
 1089 92 1089 92 1089 58 c 0,27,28
 1089 26 1089 26 1065.5 3 c 128,-1,29
 1042 -20 1042 -20 1010 -20 c 256,30,31
 978 -20 978 -20 955.5 3 c 128,-1,32
 933 26 933 26 933 58 c 0,33,34
 933 92 933 92 955.5 114 c 128,-1,35
 978 136 978 136 1010 136 c 0,24,25
EndSplineSet
EndChar

StartChar: u2212
Encoding: 8722 8722 118
Width: 974
GlyphClass: 2
Flags: W
LayerCount: 2
Fore
SplineSet
133 450 m 1,0,-1
 133 508 l 1,1,-1
 894 508 l 1,2,-1
 894 450 l 1,3,-1
 133 450 l 1,0,-1
EndSplineSet
EndChar

StartChar: u25CC
Encoding: 9676 9676 119
Width: 1167
GlyphClass: 2
Flags: W
LayerCount: 2
Fore
SplineSet
654 665 m 0,0,1
 626 665 626 665 612 679 c 128,-1,2
 598 693 598 693 598 724 c 0,3,4
 598 746 598 746 615 762.5 c 128,-1,5
 632 779 632 779 654 779 c 0,6,7
 683 779 683 779 697.5 765 c 128,-1,8
 712 751 712 751 712 724 c 0,9,10
 712 693 712 693 697.5 679 c 128,-1,11
 683 665 683 665 654 665 c 0,0,1
840 616 m 0,12,13
 811 616 811 616 796.5 630.5 c 128,-1,14
 782 645 782 645 782 674 c 0,15,16
 782 701 782 701 796.5 715 c 128,-1,17
 811 729 811 729 840 729 c 0,18,19
 862 729 862 729 879 713 c 128,-1,20
 896 697 896 697 896 674 c 0,21,22
 896 645 896 645 882 630.5 c 128,-1,23
 868 616 868 616 840 616 c 0,12,13
470 616 m 0,24,25
 442 616 442 616 428 630.5 c 128,-1,26
 414 645 414 645 414 674 c 0,27,28
 414 697 414 697 431 713 c 128,-1,29
 448 729 448 729 470 729 c 0,30,31
 494 729 494 729 510 713 c 128,-1,32
 526 697 526 697 526 674 c 0,33,34
 526 645 526 645 512.5 630.5 c 128,-1,35
 499 616 499 616 470 616 c 0,24,25
973 482 m 0,36,37
 951 482 951 482 933.5 498 c 128,-1,38
 916 514 916 514 916 538 c 0,39,40
 916 567 916 567 930.5 581 c 128,-1,41
 945 595 945 595 973 595 c 256,42,43
 1001 595 1001 595 1014.5 581 c 128,-1,44
 1028 567 1028 567 1028 538 c 0,45,46
 1028 514 1028 514 1012 498 c 128,-1,47
 996 482 996 482 973 482 c 0,36,37
336 482 m 0,48,49
 307 482 307 482 293 495.5 c 128,-1,50
 279 509 279 509 279 538 c 256,51,52
 279 567 279 567 293 581 c 128,-1,53
 307 595 307 595 336 595 c 0,54,55
 364 595 364 595 378 581 c 128,-1,56
 392 567 392 567 392 538 c 0,57,58
 392 514 392 514 375 498 c 128,-1,59
 358 482 358 482 336 482 c 0,48,49
1024 298 m 0,60,61
 994 298 994 298 979.5 311.5 c 128,-1,62
 965 325 965 325 965 354 c 0,63,64
 965 382 965 382 979.5 396 c 128,-1,65
 994 410 994 410 1024 410 c 0,66,67
 1046 410 1046 410 1063 393 c 128,-1,68
 1080 376 1080 376 1080 354 c 0,69,70
 1080 331 1080 331 1063 314.5 c 128,-1,71
 1046 298 1046 298 1024 298 c 0,60,61
287 298 m 0,72,73
 257 298 257 298 243 311.5 c 128,-1,74
 229 325 229 325 229 354 c 0,75,76
 229 382 229 382 243 396 c 128,-1,77
 257 410 257 410 287 410 c 0,78,79
 310 410 310 410 326.5 393 c 128,-1,80
 343 376 343 376 343 354 c 0,81,82
 343 331 343 331 326.5 314.5 c 128,-1,83
 310 298 310 298 287 298 c 0,72,73
973 112 m 256,84,85
 945 112 945 112 930.5 126.5 c 128,-1,86
 916 141 916 141 916 169 c 0,87,88
 916 193 916 193 933.5 209.5 c 128,-1,89
 951 226 951 226 973 226 c 0,90,91
 996 226 996 226 1012 209.5 c 128,-1,92
 1028 193 1028 193 1028 169 c 0,93,94
 1028 141 1028 141 1014.5 126.5 c 128,-1,95
 1001 112 1001 112 973 112 c 256,84,85
336 112 m 0,96,97
 307 112 307 112 293 126.5 c 128,-1,98
 279 141 279 141 279 169 c 0,99,100
 279 198 279 198 293 212 c 128,-1,101
 307 226 307 226 336 226 c 0,102,103
 358 226 358 226 375 209.5 c 128,-1,104
 392 193 392 193 392 169 c 0,105,106
 392 141 392 141 378 126.5 c 128,-1,107
 364 112 364 112 336 112 c 0,96,97
840 -22 m 0,108,109
 811 -22 811 -22 796.5 -8 c 128,-1,110
 782 6 782 6 782 34 c 0,111,112
 782 63 782 63 796.5 78 c 128,-1,113
 811 93 811 93 840 93 c 0,114,115
 863 93 863 93 879.5 75 c 128,-1,116
 896 57 896 57 896 34 c 256,117,118
 896 11 896 11 879 -5.5 c 128,-1,119
 862 -22 862 -22 840 -22 c 0,108,109
470 -22 m 0,120,121
 448 -22 448 -22 431 -5.5 c 128,-1,122
 414 11 414 11 414 34 c 256,123,124
 414 57 414 57 430.5 75 c 128,-1,125
 447 93 447 93 470 93 c 0,126,127
 495 93 495 93 510.5 75 c 128,-1,128
 526 57 526 57 526 34 c 256,129,130
 526 11 526 11 510 -5.5 c 128,-1,131
 494 -22 494 -22 470 -22 c 0,120,121
654 -72 m 0,132,133
 632 -72 632 -72 615 -55 c 128,-1,134
 598 -38 598 -38 598 -16 c 0,135,136
 598 14 598 14 612 28.5 c 128,-1,137
 626 43 626 43 654 43 c 0,138,139
 683 43 683 43 697.5 28.5 c 128,-1,140
 712 14 712 14 712 -16 c 0,141,142
 712 -44 712 -44 697.5 -58 c 128,-1,143
 683 -72 683 -72 654 -72 c 0,132,133
EndSplineSet
EndChar

StartChar: tm_k_ikaar
Encoding: 65543 -1 120
Width: 1014
GlyphClass: 2
Flags: W
LayerCount: 2
Fore
SplineSet
338 0 m 0,0,1
 232 0 232 0 133.5 92 c 128,-1,2
 35 184 35 184 35 283 c 0,3,4
 35 344 35 344 87 387 c 128,-1,5
 139 430 139 430 211 430 c 1,6,7
 227 584 227 584 309 692.5 c 128,-1,8
 391 801 391 801 504 820 c 1,9,10
 480 855 480 855 467.5 905 c 128,-1,11
 455 955 455 955 455 1016 c 0,12,13
 455 1113 455 1113 535 1181.5 c 128,-1,14
 615 1250 615 1250 729 1250 c 0,15,16
 842 1250 842 1250 922 1167 c 128,-1,17
 1002 1084 1002 1084 1002 967 c 0,18,19
 1002 836 1002 836 944.5 691.5 c 128,-1,20
 887 547 887 547 836 547 c 0,21,22
 824 547 824 547 815.5 555.5 c 128,-1,23
 807 564 807 564 807 576 c 0,24,25
 807 590 807 590 828.5 626 c 128,-1,26
 850 662 850 662 855 674 c 0,27,28
 875 707 875 707 885 754 c 128,-1,29
 895 801 895 801 895 859 c 0,30,31
 895 957 895 957 839 1015.5 c 128,-1,32
 783 1074 783 1074 689 1074 c 0,33,34
 621 1074 621 1074 572 1034 c 128,-1,35
 523 994 523 994 523 937 c 0,36,37
 523 906 523 906 533 876 c 128,-1,38
 543 846 543 846 562 820 c 1,39,-1
 699 820 l 2,40,41
 723 820 723 820 740.5 811.5 c 128,-1,42
 758 803 758 803 758 791 c 0,43,44
 758 775 758 775 743.5 763.5 c 128,-1,45
 729 752 729 752 709 752 c 0,46,47
 701 752 701 752 684.5 757 c 128,-1,48
 668 762 668 762 660 762 c 0,49,50
 645 762 645 762 633 753 c 128,-1,51
 621 744 621 744 621 732 c 2,52,-1
 621 430 l 1,53,-1
 787 430 l 2,54,55
 846 430 846 430 885 386 c 128,-1,56
 924 342 924 342 924 273 c 0,57,58
 924 168 924 168 838 79 c 128,-1,59
 752 -10 752 -10 650 -10 c 0,60,61
 631 -10 631 -10 616.5 5 c 128,-1,62
 602 20 602 20 602 39 c 0,63,64
 602 53 602 53 620.5 68.5 c 128,-1,65
 639 84 639 84 670 98 c 1,66,67
 707 129 707 129 727.5 170 c 128,-1,68
 748 211 748 211 748 254 c 0,69,70
 748 307 748 307 729.5 339 c 128,-1,71
 711 371 711 371 680 371 c 2,72,-1
 621 371 l 1,73,74
 607 187 607 187 536 93.5 c 128,-1,75
 465 0 465 0 338 0 c 0,0,1
289 78 m 0,76,77
 338 78 338 78 387 175.5 c 128,-1,78
 436 273 436 273 436 371 c 1,79,-1
 201 371 l 2,80,81
 160 371 160 371 132 342.5 c 128,-1,82
 104 314 104 314 104 273 c 0,83,84
 104 209 104 209 166.5 143.5 c 128,-1,85
 229 78 229 78 289 78 c 0,76,77
270 430 m 1,86,-1
 445 430 l 1,87,-1
 445 625 l 2,88,89
 445 648 445 648 436.5 666 c 128,-1,90
 428 684 428 684 416 684 c 0,91,92
 373 684 373 684 321.5 594 c 128,-1,93
 270 504 270 504 270 430 c 1,86,-1
EndSplineSet
Ligature2: "'psts' Post Base Substitutions lookup 8 subtable" tm_ka tm_ikaar
EndChar

StartChar: tm_ng_ikaar
Encoding: 65544 -1 121
Width: 1619
GlyphClass: 2
Flags: W
LayerCount: 2
Fore
SplineSet
732 0 m 2,0,1
 717 0 717 0 705 6 c 128,-1,2
 693 12 693 12 693 20 c 0,3,4
 693 29 693 29 700 45.5 c 128,-1,5
 707 62 707 62 723 88 c 0,6,7
 746 137 746 137 758.5 186.5 c 128,-1,8
 771 236 771 236 771 283 c 0,9,10
 771 307 771 307 762.5 324.5 c 128,-1,11
 754 342 754 342 742 342 c 0,12,13
 713 342 713 342 675 307.5 c 128,-1,14
 637 273 637 273 596 215 c 1,15,16
 596 107 596 107 589 53.5 c 128,-1,17
 582 0 582 0 557 0 c 2,18,-1
 430 0 l 2,19,20
 422 0 422 0 416 6 c 128,-1,21
 410 12 410 12 410 20 c 0,22,23
 410 49 410 49 415 107.5 c 128,-1,24
 420 166 420 166 420 195 c 0,25,26
 420 316 420 316 382 465.5 c 128,-1,27
 344 615 344 615 312 615 c 0,28,29
 268 615 268 615 222 481.5 c 128,-1,30
 176 348 176 348 176 215 c 0,31,32
 176 186 176 186 181 127 c 128,-1,33
 186 68 186 68 186 39 c 0,34,35
 186 23 186 23 180 11.5 c 128,-1,36
 174 0 174 0 166 0 c 2,37,-1
 88 0 l 2,38,39
 76 0 76 0 67.5 14.5 c 128,-1,40
 59 29 59 29 59 49 c 0,41,42
 59 375 59 375 200.5 588 c 128,-1,43
 342 801 342 801 557 801 c 2,44,-1
 635 801 l 2,45,46
 643 801 643 801 648.5 792 c 128,-1,47
 654 783 654 783 654 771 c 0,48,49
 654 760 654 760 645.5 751 c 128,-1,50
 637 742 637 742 625 742 c 0,51,52
 574 742 574 742 536 734.5 c 128,-1,53
 498 727 498 727 479 713 c 1,54,55
 518 645 518 645 545 543 c 128,-1,56
 572 441 572 441 586 312 c 1,57,58
 641 377 641 377 697.5 413 c 128,-1,59
 754 449 754 449 801 449 c 0,60,61
 850 449 850 449 889 380.5 c 128,-1,62
 928 312 928 312 928 225 c 0,63,64
 928 195 928 195 918 153 c 128,-1,65
 908 111 908 111 889 59 c 1,66,-1
 996 59 l 2,67,68
 1041 59 1041 59 1072.5 99 c 128,-1,69
 1104 139 1104 139 1104 195 c 2,70,-1
 1104 547 l 1,71,72
 1090 537 1090 537 1070.5 532 c 128,-1,73
 1051 527 1051 527 1025 527 c 0,74,75
 936 527 936 527 873.5 616 c 128,-1,76
 811 705 811 705 811 830 c 0,77,78
 811 990 811 990 930 1095.5 c 128,-1,79
 1049 1201 1049 1201 1230 1201 c 0,80,81
 1383 1201 1383 1201 1492.5 1103.5 c 128,-1,82
 1602 1006 1602 1006 1602 869 c 0,83,84
 1602 740 1602 740 1517 546 c 128,-1,85
 1432 352 1432 352 1377 352 c 0,86,87
 1365 352 1365 352 1356.5 360.5 c 128,-1,88
 1348 369 1348 369 1348 381 c 0,89,90
 1348 387 1348 387 1358.5 404.5 c 128,-1,91
 1369 422 1369 422 1377 439 c 0,92,93
 1424 506 1424 506 1449.5 600.5 c 128,-1,94
 1475 695 1475 695 1475 811 c 0,95,96
 1475 912 1475 912 1394.5 983.5 c 128,-1,97
 1314 1055 1314 1055 1201 1055 c 0,98,99
 1072 1055 1072 1055 980.5 977.5 c 128,-1,100
 889 900 889 900 889 791 c 0,101,102
 889 711 889 711 929 653.5 c 128,-1,103
 969 596 969 596 1025 596 c 0,104,105
 1049 596 1049 596 1069.5 600.5 c 128,-1,106
 1090 605 1090 605 1104 615 c 1,107,108
 1104 639 1104 639 1094 684 c 128,-1,109
 1084 729 1084 729 1084 752 c 0,110,111
 1084 764 1084 764 1095.5 772.5 c 128,-1,112
 1107 781 1107 781 1123 781 c 2,113,-1
 1230 781 l 2,114,115
 1252 781 1252 781 1265.5 765.5 c 128,-1,116
 1279 750 1279 750 1279 723 c 2,117,-1
 1279 195 l 2,118,119
 1279 115 1279 115 1254 57.5 c 128,-1,120
 1229 0 1229 0 1191 0 c 2,121,-1
 732 0 l 2,0,1
EndSplineSet
Ligature2: "'psts' Post Base Substitutions lookup 8 subtable" tm_nga tm_ikaar
EndChar

StartChar: tm_c_ikaar
Encoding: 65545 -1 122
Width: 998
GlyphClass: 2
Flags: W
LayerCount: 2
Fore
SplineSet
340 0 m 0,0,1
 234 0 234 0 135.5 89 c 128,-1,2
 37 178 37 178 37 273 c 0,3,4
 37 338 37 338 89 384 c 128,-1,5
 141 430 141 430 213 430 c 1,6,7
 229 584 229 584 311 692.5 c 128,-1,8
 393 801 393 801 506 820 c 1,9,10
 482 855 482 855 469.5 905 c 128,-1,11
 457 955 457 955 457 1016 c 0,12,13
 457 1113 457 1113 537 1181.5 c 128,-1,14
 617 1250 617 1250 730 1250 c 0,15,16
 844 1250 844 1250 924 1167 c 128,-1,17
 1004 1084 1004 1084 1004 967 c 0,18,19
 1004 836 1004 836 946.5 691.5 c 128,-1,20
 889 547 889 547 838 547 c 0,21,22
 826 547 826 547 817.5 555.5 c 128,-1,23
 809 564 809 564 809 576 c 0,24,25
 809 590 809 590 830.5 626 c 128,-1,26
 852 662 852 662 857 674 c 0,27,28
 877 707 877 707 886.5 754 c 128,-1,29
 896 801 896 801 896 859 c 0,30,31
 896 957 896 957 840.5 1015.5 c 128,-1,32
 785 1074 785 1074 691 1074 c 0,33,34
 623 1074 623 1074 574 1034 c 128,-1,35
 525 994 525 994 525 937 c 0,36,37
 525 906 525 906 535 876 c 128,-1,38
 545 846 545 846 564 820 c 1,39,-1
 701 820 l 2,40,41
 725 820 725 820 742.5 811.5 c 128,-1,42
 760 803 760 803 760 791 c 256,43,44
 760 779 760 779 745 770.5 c 128,-1,45
 730 762 730 762 711 762 c 2,46,-1
 652 762 l 2,47,48
 641 762 641 762 632 753 c 128,-1,49
 623 744 623 744 623 732 c 2,50,-1
 623 430 l 1,51,-1
 818 430 l 2,52,53
 830 430 830 430 839 421 c 128,-1,54
 848 412 848 412 848 400 c 0,55,56
 848 389 848 389 833 380 c 128,-1,57
 818 371 818 371 799 371 c 2,58,-1
 623 371 l 1,59,60
 609 187 609 187 538 93.5 c 128,-1,61
 467 0 467 0 340 0 c 0,0,1
291 78 m 0,62,63
 338 78 338 78 387 170 c 128,-1,64
 436 262 436 262 447 371 c 1,65,-1
 203 371 l 2,66,67
 162 371 162 371 133.5 342.5 c 128,-1,68
 105 314 105 314 105 273 c 0,69,70
 105 209 105 209 167.5 143.5 c 128,-1,71
 230 78 230 78 291 78 c 0,62,63
271 430 m 1,72,-1
 447 430 l 1,73,-1
 447 625 l 2,74,75
 447 648 447 648 438.5 666 c 128,-1,76
 430 684 430 684 418 684 c 0,77,78
 375 684 375 684 323 594 c 128,-1,79
 271 504 271 504 271 430 c 1,72,-1
EndSplineSet
Ligature2: "'psts' Post Base Substitutions lookup 8 subtable" tm_ca tm_ikaar
EndChar

StartChar: tm_j_ikaar
Encoding: 65546 -1 123
Width: 1510
GlyphClass: 2
Flags: W
LayerCount: 2
Fore
SplineSet
281 -391 m 0,0,1
 191 -391 191 -391 114 -268 c 128,-1,2
 37 -145 37 -145 37 0 c 0,3,4
 37 70 37 70 103.5 113 c 128,-1,5
 170 156 170 156 281 156 c 2,6,-1
 770 166 l 2,7,8
 889 166 889 166 961 246 c 128,-1,9
 1033 326 1033 326 1033 459 c 0,10,11
 1033 539 1033 539 1003 606.5 c 128,-1,12
 973 674 973 674 936 674 c 0,13,14
 900 674 900 674 846.5 622 c 128,-1,15
 793 570 793 570 730 479 c 1,16,17
 730 402 730 402 703 337.5 c 128,-1,18
 676 273 676 273 643 273 c 2,19,-1
 545 273 l 2,20,21
 533 273 533 273 524.5 282 c 128,-1,22
 516 291 516 291 516 303 c 0,23,24
 516 334 516 334 535.5 395.5 c 128,-1,25
 555 457 555 457 555 488 c 0,26,27
 555 590 555 590 515 661 c 128,-1,28
 475 732 475 732 418 732 c 0,29,30
 332 732 332 732 262.5 684.5 c 128,-1,31
 193 637 193 637 164 557 c 1,32,33
 203 590 203 590 246 607.5 c 128,-1,34
 289 625 289 625 330 625 c 0,35,36
 375 625 375 625 406 579 c 128,-1,37
 437 533 437 533 437 469 c 0,38,39
 437 375 437 375 394.5 295 c 128,-1,40
 352 215 352 215 301 215 c 0,41,42
 213 215 213 215 149.5 289 c 128,-1,43
 86 363 86 363 86 469 c 0,44,45
 86 605 86 605 200 703 c 128,-1,46
 314 801 314 801 477 801 c 0,47,48
 574 801 574 801 647.5 733.5 c 128,-1,49
 721 666 721 666 730 566 c 1,50,51
 793 652 793 652 852.5 707 c 128,-1,52
 912 762 912 762 965 781 c 1,53,54
 932 820 932 820 914 871 c 128,-1,55
 896 922 896 922 896 977 c 0,56,57
 896 1094 896 1094 988 1177 c 128,-1,58
 1080 1260 1080 1260 1209 1260 c 0,59,60
 1342 1260 1342 1260 1422 1177 c 128,-1,61
 1502 1094 1502 1094 1502 957 c 0,62,63
 1502 801 1502 801 1427 586 c 128,-1,64
 1352 371 1352 371 1297 371 c 0,65,66
 1285 371 1285 371 1276.5 377 c 128,-1,67
 1268 383 1268 383 1268 391 c 0,68,69
 1268 404 1268 404 1275.5 421.5 c 128,-1,70
 1283 439 1283 439 1297 459 c 0,71,72
 1346 543 1346 543 1370.5 635 c 128,-1,73
 1395 727 1395 727 1395 820 c 0,74,75
 1395 936 1395 936 1330.5 1005 c 128,-1,76
 1266 1074 1266 1074 1160 1074 c 0,77,78
 1084 1074 1084 1074 1029.5 1028 c 128,-1,79
 975 982 975 982 975 918 c 0,80,81
 975 885 975 885 990.5 851.5 c 128,-1,82
 1006 818 1006 818 1033 791 c 1,83,84
 1105 791 1105 791 1157 693.5 c 128,-1,85
 1209 596 1209 596 1209 459 c 0,86,87
 1209 305 1209 305 1132 211 c 128,-1,88
 1055 117 1055 117 926 117 c 1,89,-1
 350 98 l 2,90,91
 287 98 287 98 250 71.5 c 128,-1,92
 213 45 213 45 213 0 c 0,93,94
 213 -88 213 -88 262 -161 c 128,-1,95
 311 -234 311 -234 369 -234 c 0,96,97
 396 -234 396 -234 443 -169.5 c 128,-1,98
 490 -105 490 -105 496 -98 c 0,99,100
 533 -35 533 -35 580 2 c 128,-1,101
 627 39 627 39 672 39 c 2,102,-1
 1043 49 l 2,103,104
 1070 49 1070 49 1090.5 20.5 c 128,-1,105
 1111 -8 1111 -8 1111 -49 c 0,106,107
 1111 -158 1111 -158 1043 -269.5 c 128,-1,108
 975 -381 975 -381 906 -381 c 0,109,110
 854 -381 854 -381 798 -325.5 c 128,-1,111
 742 -270 742 -270 701 -176 c 0,112,113
 697 -168 697 -168 671 -108.5 c 128,-1,114
 645 -49 645 -49 623 -49 c 0,115,116
 594 -49 594 -49 548 -117.5 c 128,-1,117
 502 -186 502 -186 496 -195 c 0,118,119
 434 -287 434 -287 377 -339 c 128,-1,120
 320 -391 320 -391 281 -391 c 0,0,1
213 322 m 0,121,122
 232 322 232 322 251.5 384.5 c 128,-1,123
 271 447 271 447 271 508 c 0,124,125
 271 520 271 520 265.5 528.5 c 128,-1,126
 260 537 260 537 252 537 c 0,127,128
 221 537 221 537 183 506 c 128,-1,129
 145 475 145 475 145 449 c 0,130,131
 145 400 145 400 165.5 361 c 128,-1,132
 186 322 186 322 213 322 c 0,121,122
828 -244 m 0,133,134
 850 -244 850 -244 888 -169 c 128,-1,135
 926 -94 926 -94 926 -49 c 0,136,137
 926 -33 926 -33 911 -21.5 c 128,-1,138
 896 -10 896 -10 877 -10 c 0,139,140
 818 -10 818 -10 769.5 -18.5 c 128,-1,141
 721 -27 721 -27 721 -39 c 0,142,143
 721 -82 721 -82 764 -163 c 128,-1,144
 807 -244 807 -244 828 -244 c 0,133,134
EndSplineSet
Ligature2: "'psts' Post Base Substitutions lookup 8 subtable" tm_ja tm_ikaar
EndChar

StartChar: tm_ny_ikaar
Encoding: 65547 -1 124
Width: 1596
GlyphClass: 2
Flags: W
LayerCount: 2
Fore
SplineSet
732 -361 m 0,0,1
 436 -361 436 -361 257 -187.5 c 128,-1,2
 78 -14 78 -14 78 273 c 0,3,4
 78 418 78 418 126 551 c 128,-1,5
 174 684 174 684 225 684 c 0,6,7
 232 684 232 684 238 678 c 128,-1,8
 244 672 244 672 244 664 c 256,9,10
 244 656 244 656 231.5 633.5 c 128,-1,11
 219 611 219 611 215 605 c 0,12,13
 176 539 176 539 156.5 454 c 128,-1,14
 137 369 137 369 137 273 c 0,15,16
 137 12 137 12 300 -145.5 c 128,-1,17
 463 -303 463 -303 732 -303 c 0,18,19
 947 -303 947 -303 1128 -125 c 128,-1,20
 1309 53 1309 53 1309 264 c 0,21,22
 1309 295 1309 295 1307 308.5 c 128,-1,23
 1305 322 1305 322 1299 322 c 0,24,25
 1262 322 1262 322 1196.5 243 c 128,-1,26
 1131 164 1131 164 1123 156 c 1,27,28
 1109 78 1109 78 1096.5 39 c 128,-1,29
 1084 0 1084 0 1064 0 c 2,30,-1
 947 0 l 2,31,32
 932 0 932 0 920 6 c 128,-1,33
 908 12 908 12 908 20 c 0,34,35
 908 27 908 27 913 44 c 128,-1,36
 918 61 918 61 928 88 c 0,37,38
 947 156 947 156 957 258.5 c 128,-1,39
 967 361 967 361 967 498 c 0,40,41
 967 521 967 521 967 607 c 128,-1,42
 967 693 967 693 957 723 c 1,43,-1
 781 723 l 2,44,45
 621 723 621 723 486.5 615.5 c 128,-1,46
 352 508 352 508 352 381 c 1,47,48
 389 432 389 432 448.5 460 c 128,-1,49
 508 488 508 488 576 488 c 0,50,51
 629 488 629 488 666 436.5 c 128,-1,52
 703 385 703 385 703 312 c 0,53,54
 703 193 703 193 647.5 91.5 c 128,-1,55
 592 -10 592 -10 527 -10 c 0,56,57
 436 -10 436 -10 364.5 90.5 c 128,-1,58
 293 191 293 191 293 322 c 0,59,60
 293 539 293 539 441.5 660 c 128,-1,61
 590 781 590 781 859 781 c 2,62,-1
 1094 781 l 1,63,64
 1061 830 1061 830 1043 890.5 c 128,-1,65
 1025 951 1025 951 1025 1016 c 0,66,67
 1025 1113 1025 1113 1111 1181.5 c 128,-1,68
 1197 1250 1197 1250 1318 1250 c 0,69,70
 1432 1250 1432 1250 1512 1167 c 128,-1,71
 1592 1084 1592 1084 1592 967 c 0,72,73
 1592 836 1592 836 1534.5 691.5 c 128,-1,74
 1477 547 1477 547 1426 547 c 0,75,76
 1418 547 1418 547 1412 555.5 c 128,-1,77
 1406 564 1406 564 1406 576 c 0,78,79
 1406 590 1406 590 1427.5 626 c 128,-1,80
 1449 662 1449 662 1455 674 c 0,81,82
 1475 707 1475 707 1484.5 754 c 128,-1,83
 1494 801 1494 801 1494 859 c 0,84,85
 1494 957 1494 957 1435.5 1015.5 c 128,-1,86
 1377 1074 1377 1074 1279 1074 c 0,87,88
 1211 1074 1211 1074 1162 1028 c 128,-1,89
 1113 982 1113 982 1113 918 c 0,90,91
 1113 885 1113 885 1126 849.5 c 128,-1,92
 1139 814 1139 814 1162 781 c 1,93,94
 1242 781 1242 781 1309.5 762.5 c 128,-1,95
 1377 744 1377 744 1377 723 c 0,96,97
 1377 711 1377 711 1371 702 c 128,-1,98
 1365 693 1365 693 1357 693 c 0,99,100
 1318 707 1318 707 1278 715 c 128,-1,101
 1238 723 1238 723 1201 723 c 0,102,103
 1178 723 1178 723 1160.5 705 c 128,-1,104
 1143 687 1143 687 1143 664 c 2,105,-1
 1133 254 l 1,106,107
 1215 334 1215 334 1283.5 377 c 128,-1,108
 1352 420 1352 420 1396 420 c 0,109,110
 1434 420 1434 420 1459 383 c 128,-1,111
 1484 346 1484 346 1484 293 c 0,112,113
 1484 21 1484 21 1263.5 -170 c 128,-1,114
 1043 -361 1043 -361 732 -361 c 0,0,1
439 107 m 0,115,116
 473 107 473 107 500 177.5 c 128,-1,117
 527 248 527 248 527 332 c 0,118,119
 527 365 527 365 515.5 387.5 c 128,-1,120
 504 410 504 410 488 410 c 0,121,122
 449 410 449 410 400.5 361 c 128,-1,123
 352 312 352 312 352 273 c 0,124,125
 352 211 352 211 379 159 c 128,-1,126
 406 107 406 107 439 107 c 0,115,116
EndSplineSet
Ligature2: "'psts' Post Base Substitutions lookup 8 subtable" tm_nya tm_ikaar
EndChar

StartChar: tm_tt_ikaar
Encoding: 65548 -1 125
Width: 1236
GlyphClass: 2
Flags: W
LayerCount: 2
Fore
SplineSet
750 -332 m 1,0,1
 730 -332 730 -332 715.5 -323 c 128,-1,2
 701 -314 701 -314 701 -303 c 0,3,4
 701 -297 701 -297 712 -279.5 c 128,-1,5
 723 -262 723 -262 730 -244 c 0,6,7
 756 -201 756 -201 782.5 -139.5 c 128,-1,8
 809 -78 809 -78 838 0 c 1,9,-1
 262 0 l 2,10,11
 189 0 189 0 137.5 57.5 c 128,-1,12
 86 115 86 115 86 195 c 0,13,14
 86 283 86 283 94 369 c 128,-1,15
 102 455 102 455 115 537 c 0,16,17
 137 654 137 654 159.5 717.5 c 128,-1,18
 182 781 182 781 213 781 c 2,19,-1
 320 781 l 2,20,21
 336 781 336 781 347.5 769.5 c 128,-1,22
 359 758 359 758 359 742 c 0,23,24
 359 730 359 730 339.5 684.5 c 128,-1,25
 320 639 320 639 311 596 c 0,26,27
 287 498 287 498 274.5 397.5 c 128,-1,28
 262 297 262 297 262 195 c 0,29,30
 262 139 262 139 293 99 c 128,-1,31
 324 59 324 59 369 59 c 2,32,-1
 809 59 l 1,33,34
 703 135 703 135 643.5 205 c 128,-1,35
 584 275 584 275 584 322 c 0,36,37
 584 395 584 395 707 456.5 c 128,-1,38
 830 518 830 518 975 518 c 0,39,40
 1020 518 1020 518 1051 489.5 c 128,-1,41
 1082 461 1082 461 1082 420 c 256,42,43
 1082 379 1082 379 1067.5 324.5 c 128,-1,44
 1053 270 1053 270 1023 205 c 2,45,-1
 955 59 l 1,46,-1
 1189 59 l 2,47,48
 1205 59 1205 59 1217 50 c 128,-1,49
 1229 41 1229 41 1229 29 c 0,50,51
 1229 18 1229 18 1217 9 c 128,-1,52
 1205 0 1205 0 1189 0 c 2,53,-1
 926 0 l 1,54,55
 859 -148 859 -148 820 -224.5 c 128,-1,56
 781 -301 781 -301 750 -332 c 1,0,1
848 98 m 1,57,58
 867 150 867 150 877 205 c 128,-1,59
 887 260 887 260 887 312 c 0,60,61
 887 350 887 350 866.5 375 c 128,-1,62
 846 400 846 400 818 400 c 0,63,64
 764 400 764 400 708 367 c 128,-1,65
 652 334 652 334 652 303 c 0,66,67
 652 260 652 260 743 184.5 c 128,-1,68
 834 109 834 109 848 98 c 1,57,58
EndSplineSet
Ligature2: "'psts' Post Base Substitutions lookup 8 subtable" tm_tta tm_ikaar
EndChar

StartChar: tm_nn_ikaar
Encoding: 65549 -1 126
Width: 2359
GlyphClass: 2
Flags: W
LayerCount: 2
Fore
SplineSet
326 0 m 0,0,1
 230 0 230 0 141.5 101.5 c 128,-1,2
 53 203 53 203 53 312 c 0,3,4
 53 484 53 484 218 642.5 c 128,-1,5
 383 801 383 801 561 801 c 0,6,7
 648 801 648 801 720.5 769.5 c 128,-1,8
 793 738 793 738 834 684 c 1,9,10
 902 740 902 740 982 770.5 c 128,-1,11
 1062 801 1062 801 1146 801 c 0,12,13
 1219 801 1219 801 1290 770.5 c 128,-1,14
 1361 740 1361 740 1420 684 c 1,15,16
 1504 740 1504 740 1599.5 770.5 c 128,-1,17
 1695 801 1695 801 1791 801 c 1,18,19
 1771 834 1771 834 1761.5 879 c 128,-1,20
 1752 924 1752 924 1752 977 c 0,21,22
 1752 1094 1752 1094 1841 1177 c 128,-1,23
 1930 1260 1930 1260 2055 1260 c 0,24,25
 2187 1260 2187 1260 2267.5 1177 c 128,-1,26
 2348 1094 2348 1094 2348 957 c 0,27,28
 2348 787 2348 787 2274.5 579 c 128,-1,29
 2201 371 2201 371 2143 371 c 0,30,31
 2131 371 2131 371 2122 380 c 128,-1,32
 2113 389 2113 389 2113 400 c 0,33,34
 2113 408 2113 408 2126 430.5 c 128,-1,35
 2139 453 2139 453 2143 459 c 0,36,37
 2191 543 2191 543 2215.5 635 c 128,-1,38
 2240 727 2240 727 2240 820 c 0,39,40
 2240 936 2240 936 2175.5 1005 c 128,-1,41
 2111 1074 2111 1074 2006 1074 c 0,42,43
 1930 1074 1930 1074 1875 1025.5 c 128,-1,44
 1820 977 1820 977 1820 908 c 0,45,46
 1820 879 1820 879 1830 853.5 c 128,-1,47
 1840 828 1840 828 1859 811 c 1,48,49
 1957 811 1957 811 2040 789.5 c 128,-1,50
 2123 768 2123 768 2123 742 c 0,51,52
 2123 727 2123 727 2117 715 c 128,-1,53
 2111 703 2111 703 2104 703 c 0,54,55
 2076 717 2076 717 2034 726.5 c 128,-1,56
 1992 736 1992 736 1937 742 c 1,57,58
 1949 680 1949 680 1948 498 c 128,-1,59
 1947 316 1947 316 1947 254 c 0,60,61
 1947 148 1947 148 1924.5 74 c 128,-1,62
 1902 0 1902 0 1869 0 c 2,63,-1
 1771 0 l 2,64,65
 1756 0 1756 0 1744 14.5 c 128,-1,66
 1732 29 1732 29 1732 49 c 0,67,68
 1732 57 1732 57 1739 77.5 c 128,-1,69
 1746 98 1746 98 1752 117 c 0,70,71
 1766 168 1766 168 1773.5 212 c 128,-1,72
 1781 256 1781 256 1781 293 c 2,73,-1
 1781 605 l 2,74,75
 1781 658 1781 658 1763.5 695 c 128,-1,76
 1746 732 1746 732 1723 732 c 0,77,78
 1650 732 1650 732 1583 707 c 128,-1,79
 1516 682 1516 682 1459 635 c 1,80,81
 1525 557 1525 557 1560.5 478.5 c 128,-1,82
 1596 400 1596 400 1596 332 c 0,83,84
 1596 223 1596 223 1517.5 111.5 c 128,-1,85
 1439 0 1439 0 1361 0 c 256,86,87
 1283 0 1283 0 1210 98.5 c 128,-1,88
 1137 197 1137 197 1137 303 c 0,89,90
 1137 371 1137 371 1180 450 c 128,-1,91
 1223 529 1223 529 1303 605 c 1,92,93
 1260 670 1260 670 1208 706 c 128,-1,94
 1156 742 1156 742 1107 742 c 0,95,96
 1051 742 1051 742 990.5 716.5 c 128,-1,97
 930 691 930 691 873 645 c 1,98,99
 953 568 953 568 996 481.5 c 128,-1,100
 1039 395 1039 395 1039 312 c 0,101,102
 1039 209 1039 209 964 104.5 c 128,-1,103
 889 0 889 0 814 0 c 0,104,105
 727 0 727 0 653.5 107.5 c 128,-1,106
 580 215 580 215 580 342 c 0,107,108
 580 406 580 406 626 480.5 c 128,-1,109
 672 555 672 555 756 625 c 1,110,111
 719 680 719 680 667 711 c 128,-1,112
 615 742 615 742 561 742 c 0,113,114
 418 742 418 742 274.5 611 c 128,-1,115
 131 480 131 480 131 352 c 1,116,117
 189 422 189 422 252.5 460 c 128,-1,118
 316 498 316 498 375 498 c 0,119,120
 424 498 424 498 458 455 c 128,-1,121
 492 412 492 412 492 352 c 0,122,123
 492 221 492 221 440.5 110.5 c 128,-1,124
 389 0 389 0 326 0 c 0,0,1
229 127 m 0,125,126
 258 127 258 127 287 202 c 128,-1,127
 316 277 316 277 316 352 c 0,128,129
 316 371 316 371 307.5 385.5 c 128,-1,130
 299 400 299 400 287 400 c 0,131,132
 248 400 248 400 194.5 342.5 c 128,-1,133
 141 285 141 285 141 244 c 0,134,135
 141 207 141 207 171 167 c 128,-1,136
 201 127 201 127 229 127 c 0,125,126
1293 156 m 0,137,138
 1326 156 1326 156 1363 233.5 c 128,-1,139
 1400 311 1400 311 1400 381 c 0,140,141
 1400 420 1400 420 1385.5 462 c 128,-1,142
 1371 504 1371 504 1342 547 c 1,143,144
 1277 492 1277 492 1241 428.5 c 128,-1,145
 1205 365 1205 365 1205 303 c 0,146,147
 1205 254 1205 254 1234.5 205 c 128,-1,148
 1264 156 1264 156 1293 156 c 0,137,138
746 166 m 0,149,150
 783 166 783 166 818.5 232.5 c 128,-1,151
 854 299 854 299 854 371 c 0,152,153
 854 426 854 426 836 476.5 c 128,-1,154
 818 527 818 527 785 566 c 1,155,156
 721 512 721 512 684.5 453.5 c 128,-1,157
 648 395 648 395 648 342 c 0,158,159
 648 283 648 283 681.5 224.5 c 128,-1,160
 715 166 715 166 746 166 c 0,149,150
EndSplineSet
Ligature2: "'psts' Post Base Substitutions lookup 8 subtable" tm_nna tm_ikaar
EndChar

StartChar: tm_t_ikaar
Encoding: 65550 -1 127
Width: 996
GlyphClass: 2
Flags: W
LayerCount: 2
Fore
SplineSet
338 0 m 0,0,1
 232 0 232 0 133.5 92 c 128,-1,2
 35 184 35 184 35 283 c 0,3,4
 35 344 35 344 87 387 c 128,-1,5
 139 430 139 430 211 430 c 1,6,7
 227 584 227 584 309 692.5 c 128,-1,8
 391 801 391 801 504 820 c 1,9,10
 475 863 475 863 460 910 c 128,-1,11
 445 957 445 957 445 1006 c 0,12,13
 445 1107 445 1107 528 1178.5 c 128,-1,14
 611 1250 611 1250 729 1250 c 0,15,16
 842 1250 842 1250 922 1167 c 128,-1,17
 1002 1084 1002 1084 1002 967 c 0,18,19
 1002 836 1002 836 944.5 691.5 c 128,-1,20
 887 547 887 547 836 547 c 0,21,22
 824 547 824 547 815.5 555.5 c 128,-1,23
 807 564 807 564 807 576 c 0,24,25
 807 590 807 590 828.5 626 c 128,-1,26
 850 662 850 662 855 674 c 0,27,28
 875 707 875 707 885 754 c 128,-1,29
 895 801 895 801 895 859 c 0,30,31
 895 957 895 957 839 1015.5 c 128,-1,32
 783 1074 783 1074 689 1074 c 0,33,34
 621 1074 621 1074 572 1034 c 128,-1,35
 523 994 523 994 523 937 c 0,36,37
 523 906 523 906 533 876 c 128,-1,38
 543 846 543 846 562 820 c 1,39,-1
 699 820 l 2,40,41
 723 820 723 820 740.5 811.5 c 128,-1,42
 758 803 758 803 758 791 c 256,43,44
 758 779 758 779 746 770.5 c 128,-1,45
 734 762 734 762 719 762 c 2,46,-1
 650 762 l 2,47,48
 639 762 639 762 630 753 c 128,-1,49
 621 744 621 744 621 732 c 2,50,-1
 621 430 l 1,51,-1
 709 430 l 2,52,53
 779 430 779 430 822 382 c 128,-1,54
 865 334 865 334 865 254 c 0,55,56
 865 35 865 35 618 -168 c 128,-1,57
 371 -371 371 -371 104 -371 c 0,58,59
 88 -371 88 -371 76 -362.5 c 128,-1,60
 64 -354 64 -354 64 -342 c 256,61,62
 64 -330 64 -330 76 -321.5 c 128,-1,63
 88 -313 88 -313 104 -313 c 0,64,65
 334 -313 334 -313 511.5 -141 c 128,-1,66
 689 31 689 31 689 254 c 0,67,68
 689 303 689 303 674.5 337 c 128,-1,69
 660 371 660 371 641 371 c 2,70,-1
 621 371 l 1,71,72
 607 187 607 187 536 93.5 c 128,-1,73
 465 0 465 0 338 0 c 0,0,1
289 78 m 0,74,75
 340 78 340 78 392.5 176.5 c 128,-1,76
 445 275 445 275 445 371 c 1,77,-1
 201 371 l 2,78,79
 160 371 160 371 132 342.5 c 128,-1,80
 104 314 104 314 104 273 c 0,81,82
 104 209 104 209 166.5 143.5 c 128,-1,83
 229 78 229 78 289 78 c 0,74,75
270 430 m 1,84,-1
 445 430 l 1,85,-1
 445 625 l 2,86,87
 445 648 445 648 436.5 666 c 128,-1,88
 428 684 428 684 416 684 c 0,89,90
 373 684 373 684 321.5 594 c 128,-1,91
 270 504 270 504 270 430 c 1,84,-1
EndSplineSet
Ligature2: "'psts' Post Base Substitutions lookup 8 subtable" tm_ta tm_ikaar
EndChar

StartChar: tm_n_ikaar
Encoding: 65551 -1 128
Width: 1018
GlyphClass: 2
Flags: W
LayerCount: 2
Fore
SplineSet
135 -381 m 0,0,1
 115 -381 115 -381 100.5 -369 c 128,-1,2
 86 -357 86 -357 86 -342 c 0,3,4
 86 -330 86 -330 106.5 -321.5 c 128,-1,5
 127 -313 127 -313 154 -313 c 0,6,7
 266 -313 266 -313 379 -268 c 128,-1,8
 492 -223 492 -223 594 -137 c 1,9,10
 678 -55 678 -55 724 46.5 c 128,-1,11
 770 148 770 148 770 254 c 0,12,13
 770 273 770 273 758 288 c 128,-1,14
 746 303 746 303 730 303 c 0,15,16
 695 303 695 303 656 274.5 c 128,-1,17
 617 246 617 246 584 195 c 1,18,-1
 584 39 l 2,19,20
 584 23 584 23 575 11.5 c 128,-1,21
 566 0 566 0 555 0 c 2,22,-1
 437 0 l 2,23,24
 426 0 426 0 417 11.5 c 128,-1,25
 408 23 408 23 408 39 c 2,26,-1
 408 166 l 2,27,28
 408 309 408 309 378 467 c 128,-1,29
 348 625 348 625 320 625 c 0,30,31
 275 625 275 625 224.5 423 c 128,-1,32
 174 221 174 221 174 39 c 0,33,34
 174 23 174 23 165 11.5 c 128,-1,35
 156 0 156 0 145 0 c 2,36,-1
 76 0 l 2,37,38
 64 0 64 0 55.5 9 c 128,-1,39
 47 18 47 18 47 29 c 0,40,41
 78 332 78 332 192.5 538 c 128,-1,42
 307 744 307 744 457 771 c 1,43,44
 434 807 434 807 421 847 c 128,-1,45
 408 887 408 887 408 928 c 0,46,47
 408 1045 408 1045 488 1128 c 128,-1,48
 568 1211 568 1211 682 1211 c 0,49,50
 795 1211 795 1211 875 1128 c 128,-1,51
 955 1045 955 1045 955 928 c 0,52,53
 955 797 955 797 897.5 652.5 c 128,-1,54
 840 508 840 508 789 508 c 0,55,56
 777 508 777 508 768.5 516.5 c 128,-1,57
 760 525 760 525 760 537 c 0,58,59
 760 551 760 551 781.5 587 c 128,-1,60
 803 623 803 623 809 635 c 0,61,62
 828 668 828 668 838 715 c 128,-1,63
 848 762 848 762 848 820 c 0,64,65
 848 918 848 918 792 976.5 c 128,-1,66
 736 1035 736 1035 643 1035 c 0,67,68
 574 1035 574 1035 525.5 995 c 128,-1,69
 477 955 477 955 477 898 c 0,70,71
 477 867 477 867 486.5 837 c 128,-1,72
 496 807 496 807 516 781 c 1,73,74
 590 781 590 781 640.5 767.5 c 128,-1,75
 691 754 691 754 691 732 c 0,76,77
 691 721 691 721 679.5 712 c 128,-1,78
 668 703 668 703 652 703 c 0,79,80
 639 703 639 703 613.5 713 c 128,-1,81
 588 723 588 723 574 723 c 0,82,83
 541 723 541 723 513.5 715 c 128,-1,84
 486 707 486 707 467 693 c 1,85,86
 520 602 520 602 547 497.5 c 128,-1,87
 574 393 574 393 574 283 c 1,88,89
 643 350 643 350 714 385 c 128,-1,90
 785 420 785 420 848 420 c 0,91,92
 885 420 885 420 915 368 c 128,-1,93
 945 316 945 316 945 254 c 0,94,95
 945 115 945 115 861 -13 c 128,-1,96
 777 -141 777 -141 633 -225 c 0,97,98
 500 -301 500 -301 373 -341 c 128,-1,99
 246 -381 246 -381 135 -381 c 0,0,1
EndSplineSet
Ligature2: "'psts' Post Base Substitutions lookup 8 subtable" tm_na tm_ikaar
EndChar

StartChar: tm_nnn_ikaar
Encoding: 65552 -1 129
Width: 1738
GlyphClass: 2
Flags: W
LayerCount: 2
Fore
SplineSet
248 -20 m 0,0,1
 180 -20 180 -20 121 72 c 128,-1,2
 62 164 62 164 62 273 c 0,3,4
 62 486 62 486 203 638.5 c 128,-1,5
 344 791 344 791 541 791 c 0,6,7
 633 791 633 791 712 762.5 c 128,-1,8
 791 734 791 734 844 684 c 1,9,10
 914 730 914 730 997 755.5 c 128,-1,11
 1080 781 1080 781 1166 781 c 1,12,13
 1143 816 1143 816 1130 864 c 128,-1,14
 1117 912 1117 912 1117 967 c 0,15,16
 1117 1080 1117 1080 1206 1160 c 128,-1,17
 1295 1240 1295 1240 1420 1240 c 0,18,19
 1557 1240 1557 1240 1640 1157 c 128,-1,20
 1723 1074 1723 1074 1723 937 c 0,21,22
 1723 781 1723 781 1651.5 566.5 c 128,-1,23
 1580 352 1580 352 1527 352 c 0,24,25
 1516 352 1516 352 1507 360.5 c 128,-1,26
 1498 369 1498 369 1498 381 c 0,27,28
 1498 395 1498 395 1506 412.5 c 128,-1,29
 1514 430 1514 430 1527 449 c 0,30,31
 1570 523 1570 523 1592.5 613 c 128,-1,32
 1615 703 1615 703 1615 801 c 0,33,34
 1615 916 1615 916 1550.5 985.5 c 128,-1,35
 1486 1055 1486 1055 1381 1055 c 0,36,37
 1305 1055 1305 1055 1250 1006 c 128,-1,38
 1195 957 1195 957 1195 889 c 0,39,40
 1195 859 1195 859 1205 834 c 128,-1,41
 1215 809 1215 809 1234 791 c 1,42,43
 1303 791 1303 791 1386 770.5 c 128,-1,44
 1469 750 1469 750 1469 732 c 0,45,46
 1469 713 1469 713 1463 698.5 c 128,-1,47
 1457 684 1457 684 1449 684 c 0,48,49
 1416 703 1416 703 1379 713 c 128,-1,50
 1342 723 1342 723 1303 723 c 1,51,52
 1312 689 1312 689 1317 657 c 128,-1,53
 1322 625 1322 625 1322 596 c 2,54,-1
 1322 283 l 2,55,56
 1322 166 1322 166 1296.5 83 c 128,-1,57
 1271 0 1271 0 1234 0 c 2,58,-1
 1137 0 l 2,59,60
 1121 0 1121 0 1109.5 9 c 128,-1,61
 1098 18 1098 18 1098 29 c 0,62,63
 1098 37 1098 37 1104.5 57.5 c 128,-1,64
 1111 78 1111 78 1117 98 c 0,65,66
 1131 148 1131 148 1138.5 197 c 128,-1,67
 1146 246 1146 246 1146 293 c 2,68,-1
 1146 596 l 2,69,70
 1146 623 1146 623 1141.5 649.5 c 128,-1,71
 1137 676 1137 676 1127 703 c 1,72,73
 1059 703 1059 703 998 685.5 c 128,-1,74
 937 668 937 668 893 635 c 1,75,76
 943 586 943 586 971.5 514.5 c 128,-1,77
 1000 443 1000 443 1000 361 c 0,78,79
 1000 227 1000 227 929.5 113.5 c 128,-1,80
 859 0 859 0 775 0 c 0,81,82
 703 0 703 0 641.5 94.5 c 128,-1,83
 580 189 580 189 580 303 c 0,84,85
 580 385 580 385 621 464 c 128,-1,86
 662 543 662 543 736 605 c 1,87,88
 695 664 695 664 635.5 698 c 128,-1,89
 576 732 576 732 512 732 c 0,90,91
 393 732 393 732 271.5 627.5 c 128,-1,92
 150 523 150 523 150 420 c 1,93,94
 193 463 193 463 249 485.5 c 128,-1,95
 305 508 305 508 365 508 c 0,96,97
 408 508 408 508 445 459 c 128,-1,98
 482 410 482 410 482 352 c 0,99,100
 482 213 482 213 409 96.5 c 128,-1,101
 336 -20 336 -20 248 -20 c 0,0,1
189 137 m 0,102,103
 230 137 230 137 273 219 c 128,-1,104
 316 301 316 301 316 381 c 0,105,106
 316 400 316 400 307.5 415 c 128,-1,107
 299 430 299 430 287 430 c 0,108,109
 246 430 246 430 183.5 378 c 128,-1,110
 121 326 121 326 121 293 c 0,111,112
 121 242 121 242 143.5 189.5 c 128,-1,113
 166 137 166 137 189 137 c 0,102,103
707 127 m 0,114,115
 748 127 748 127 786 203 c 128,-1,116
 824 279 824 279 824 361 c 0,117,118
 824 422 824 422 808.5 470 c 128,-1,119
 793 518 793 518 766 547 c 1,120,121
 705 504 705 504 672 436.5 c 128,-1,122
 639 369 639 369 639 293 c 0,123,124
 639 244 639 244 663 185.5 c 128,-1,125
 687 127 687 127 707 127 c 0,114,115
EndSplineSet
Ligature2: "'psts' Post Base Substitutions lookup 8 subtable" tm_nnna tm_ikaar
EndChar

StartChar: tm_p_ikaar
Encoding: 65553 -1 130
Width: 1332
GlyphClass: 2
Flags: W
LayerCount: 2
Fore
SplineSet
260 0 m 2,0,1
 195 0 195 0 144.5 74 c 128,-1,2
 94 148 94 148 94 244 c 0,3,4
 94 402 94 402 101.5 507.5 c 128,-1,5
 109 613 109 613 123 664 c 0,6,7
 139 717 139 717 157.5 749 c 128,-1,8
 176 781 176 781 191 781 c 2,9,-1
 318 781 l 2,10,11
 330 781 330 781 339 772.5 c 128,-1,12
 348 764 348 764 348 752 c 0,13,14
 348 744 348 744 343 729.5 c 128,-1,15
 338 715 338 715 328 693 c 0,16,17
 299 629 299 629 284.5 514.5 c 128,-1,18
 270 400 270 400 270 244 c 0,19,20
 270 160 270 160 305 109.5 c 128,-1,21
 340 59 340 59 396 59 c 2,22,-1
 689 59 l 2,23,24
 746 59 746 59 786 99 c 128,-1,25
 826 139 826 139 826 195 c 2,26,-1
 826 400 l 2,27,28
 826 445 826 445 823 482.5 c 128,-1,29
 820 520 820 520 816 547 c 1,30,31
 803 537 803 537 783.5 532 c 128,-1,32
 764 527 764 527 738 527 c 0,33,34
 648 527 648 527 585.5 616 c 128,-1,35
 523 705 523 705 523 830 c 0,36,37
 523 990 523 990 642.5 1095.5 c 128,-1,38
 762 1201 762 1201 943 1201 c 0,39,40
 1096 1201 1096 1201 1205 1103.5 c 128,-1,41
 1314 1006 1314 1006 1314 869 c 0,42,43
 1314 740 1314 740 1229.5 546 c 128,-1,44
 1145 352 1145 352 1090 352 c 0,45,46
 1078 352 1078 352 1069.5 360.5 c 128,-1,47
 1061 369 1061 369 1061 381 c 0,48,49
 1061 387 1061 387 1071.5 404.5 c 128,-1,50
 1082 422 1082 422 1090 439 c 0,51,52
 1137 506 1137 506 1162 600.5 c 128,-1,53
 1187 695 1187 695 1187 811 c 0,54,55
 1187 912 1187 912 1107 983.5 c 128,-1,56
 1027 1055 1027 1055 914 1055 c 0,57,58
 785 1055 785 1055 693.5 977.5 c 128,-1,59
 602 900 602 900 602 791 c 0,60,61
 602 711 602 711 642 653.5 c 128,-1,62
 682 596 682 596 738 596 c 0,63,64
 758 596 758 596 775.5 600.5 c 128,-1,65
 793 605 793 605 807 615 c 1,66,67
 797 643 797 643 792 667 c 128,-1,68
 787 691 787 691 787 713 c 0,69,70
 785 740 785 740 799.5 760.5 c 128,-1,71
 814 781 814 781 836 781 c 2,72,-1
 914 781 l 2,73,74
 937 781 937 781 957 756.5 c 128,-1,75
 977 732 977 732 982 693 c 0,76,77
 992 639 992 639 997 567.5 c 128,-1,78
 1002 496 1002 496 1002 410 c 2,79,-1
 1002 195 l 2,80,81
 1002 115 1002 115 959 57.5 c 128,-1,82
 916 0 916 0 855 0 c 2,83,-1
 260 0 l 2,0,1
EndSplineSet
Ligature2: "'psts' Post Base Substitutions lookup 8 subtable" tm_pa tm_ikaar
EndChar

StartChar: tm_m_ikaar
Encoding: 65554 -1 131
Width: 1305
GlyphClass: 2
Flags: W
LayerCount: 2
Fore
SplineSet
172 0 m 2,0,1
 145 0 145 0 124.5 40 c 128,-1,2
 104 80 104 80 104 137 c 2,3,-1
 104 381 l 2,4,5
 104 529 104 529 134 655 c 128,-1,6
 164 781 164 781 201 781 c 2,7,-1
 318 781 l 2,8,9
 330 781 330 781 339 772.5 c 128,-1,10
 348 764 348 764 348 752 c 0,11,12
 348 744 348 744 343 727.5 c 128,-1,13
 338 711 338 711 328 684 c 0,14,15
 305 617 305 617 292 541 c 128,-1,16
 279 465 279 465 279 381 c 2,17,-1
 279 107 l 2,18,19
 279 88 279 88 294 73.5 c 128,-1,20
 309 59 309 59 328 59 c 2,21,-1
 553 59 l 1,22,-1
 553 469 l 2,23,24
 553 615 553 615 596 703 c 128,-1,25
 639 791 639 791 709 791 c 1,26,27
 695 816 695 816 687.5 850.5 c 128,-1,28
 680 885 680 885 680 928 c 0,29,30
 680 1053 680 1053 760 1127 c 128,-1,31
 840 1201 840 1201 973 1201 c 0,32,33
 1096 1201 1096 1201 1176 1107.5 c 128,-1,34
 1256 1014 1256 1014 1256 869 c 0,35,36
 1256 684 1256 684 1231.5 527.5 c 128,-1,37
 1207 371 1207 371 1178 371 c 0,38,39
 1162 371 1162 371 1150.5 380 c 128,-1,40
 1139 389 1139 389 1139 400 c 0,41,42
 1139 408 1139 408 1145.5 428.5 c 128,-1,43
 1152 449 1152 449 1158 469 c 0,44,45
 1168 502 1168 502 1173 558.5 c 128,-1,46
 1178 615 1178 615 1178 693 c 0,47,48
 1178 869 1178 869 1108.5 966.5 c 128,-1,49
 1039 1064 1039 1064 914 1064 c 0,50,51
 846 1064 846 1064 797 1018.5 c 128,-1,52
 748 973 748 973 748 908 c 0,53,54
 748 867 748 867 753 838 c 128,-1,55
 758 809 758 809 768 791 c 1,56,57
 877 791 877 791 988.5 604.5 c 128,-1,58
 1100 418 1100 418 1100 234 c 0,59,60
 1100 129 1100 129 1035.5 64.5 c 128,-1,61
 971 0 971 0 865 0 c 2,62,-1
 172 0 l 2,0,1
729 59 m 1,63,-1
 885 59 l 2,64,65
 949 59 949 59 995 110.5 c 128,-1,66
 1041 162 1041 162 1041 234 c 0,67,68
 1041 369 1041 369 961 536 c 128,-1,69
 881 703 881 703 816 703 c 0,70,71
 777 703 777 703 753 631 c 128,-1,72
 729 559 729 559 729 439 c 2,73,-1
 729 59 l 1,63,-1
EndSplineSet
Ligature2: "'psts' Post Base Substitutions lookup 8 subtable" tm_ma tm_ikaar
EndChar

StartChar: tm_y_ikaar
Encoding: 65555 -1 132
Width: 1541
GlyphClass: 2
Flags: W
LayerCount: 2
Fore
SplineSet
576 0 m 2,0,1
 525 0 525 0 486 70.5 c 128,-1,2
 447 141 447 141 439 244 c 1,3,4
 375 131 375 131 309.5 65.5 c 128,-1,5
 244 0 244 0 195 0 c 0,6,7
 158 0 158 0 128 110.5 c 128,-1,8
 98 221 98 221 98 352 c 0,9,10
 98 547 98 547 121.5 664 c 128,-1,11
 145 781 145 781 195 781 c 2,12,-1
 293 781 l 2,13,14
 309 781 309 781 320.5 772.5 c 128,-1,15
 332 764 332 764 332 752 c 0,16,17
 332 744 332 744 327 729.5 c 128,-1,18
 322 715 322 715 312 693 c 0,19,20
 289 639 289 639 276.5 553 c 128,-1,21
 264 467 264 467 264 352 c 0,22,23
 264 301 264 301 276.5 248 c 128,-1,24
 289 195 289 195 303 195 c 0,25,26
 316 195 316 195 339.5 228.5 c 128,-1,27
 363 262 363 262 371 273 c 2,28,-1
 439 410 l 1,29,-1
 439 459 l 2,30,31
 439 602 439 602 459 691.5 c 128,-1,32
 479 781 479 781 518 781 c 2,33,-1
 635 781 l 2,34,35
 646 781 646 781 655 772.5 c 128,-1,36
 664 764 664 764 664 752 c 0,37,38
 664 744 664 744 662 729.5 c 128,-1,39
 660 715 660 715 654 684 c 1,40,41
 635 631 635 631 625 574.5 c 128,-1,42
 615 518 615 518 615 459 c 2,43,-1
 615 225 l 2,44,45
 615 148 615 148 652 103.5 c 128,-1,46
 689 59 689 59 752 59 c 2,47,-1
 928 59 l 2,48,49
 973 59 973 59 999 125 c 128,-1,50
 1025 191 1025 191 1025 303 c 0,51,52
 1025 369 1025 369 1020.5 430.5 c 128,-1,53
 1016 492 1016 492 1006 547 c 1,54,55
 992 537 992 537 977.5 532 c 128,-1,56
 963 527 963 527 947 527 c 0,57,58
 857 527 857 527 794.5 616 c 128,-1,59
 732 705 732 705 732 830 c 0,60,61
 732 990 732 990 851.5 1095.5 c 128,-1,62
 971 1201 971 1201 1152 1201 c 0,63,64
 1305 1201 1305 1201 1414 1103.5 c 128,-1,65
 1523 1006 1523 1006 1523 869 c 0,66,67
 1523 740 1523 740 1438.5 546 c 128,-1,68
 1354 352 1354 352 1299 352 c 0,69,70
 1287 352 1287 352 1278.5 360.5 c 128,-1,71
 1270 369 1270 369 1270 381 c 0,72,73
 1270 387 1270 387 1280.5 404.5 c 128,-1,74
 1291 422 1291 422 1299 439 c 0,75,76
 1346 506 1346 506 1371 600.5 c 128,-1,77
 1396 695 1396 695 1396 811 c 0,78,79
 1396 912 1396 912 1316 983.5 c 128,-1,80
 1236 1055 1236 1055 1123 1055 c 0,81,82
 994 1055 994 1055 902.5 977.5 c 128,-1,83
 811 900 811 900 811 791 c 0,84,85
 811 711 811 711 851 653.5 c 128,-1,86
 891 596 891 596 947 596 c 0,87,88
 957 596 957 596 969.5 600.5 c 128,-1,89
 982 605 982 605 996 615 c 1,90,91
 986 643 986 643 981.5 667 c 128,-1,92
 977 691 977 691 977 713 c 0,93,94
 973 740 973 740 984.5 760.5 c 128,-1,95
 996 781 996 781 1016 781 c 2,96,-1
 1133 781 l 2,97,98
 1158 781 1158 781 1179.5 630.5 c 128,-1,99
 1201 480 1201 480 1201 303 c 0,100,101
 1201 178 1201 178 1167 89 c 128,-1,102
 1133 0 1133 0 1084 0 c 2,103,-1
 576 0 l 2,0,1
EndSplineSet
Ligature2: "'psts' Post Base Substitutions lookup 8 subtable" tm_ya tm_ikaar
EndChar

StartChar: tm_r_ikaar
Encoding: 65556 -1 133
Width: 918
GlyphClass: 2
Flags: W
LayerCount: 2
Fore
SplineSet
277 -322 m 0,0,1
 269 -322 269 -322 263.5 -313.5 c 128,-1,2
 258 -305 258 -305 258 -293 c 0,3,4
 258 -283 258 -283 267.5 -267.5 c 128,-1,5
 277 -252 277 -252 297 -234 c 1,6,7
 357 -160 357 -160 381 -94 c 128,-1,8
 405 -28 405 -28 413.5 77 c 128,-1,9
 422 182 422 182 421 218.5 c 128,-1,10
 420 255 420 255 414.5 313.5 c 128,-1,11
 409 372 409 372 380 472 c 0,12,13
 346 588 346 588 317 610 c 1,14,15
 277 588 277 588 242 473 c 0,16,17
 199 332 199 332 199 166 c 2,18,-1
 199 49 l 2,19,20
 199 29 199 29 193 14.5 c 128,-1,21
 187 0 187 0 179 0 c 2,22,-1
 90 0 l 2,23,24
 78 0 78 0 69.5 14.5 c 128,-1,25
 61 29 61 29 61 49 c 0,26,27
 61 293 61 293 139 478.5 c 128,-1,28
 217 664 217 664 354 742 c 1,29,30
 324 793 324 793 309.5 842 c 128,-1,31
 295 891 295 891 295 937 c 0,32,33
 295 1055 295 1055 387 1138 c 128,-1,34
 479 1221 479 1221 607 1221 c 0,35,36
 740 1221 740 1221 820 1138 c 128,-1,37
 900 1055 900 1055 900 918 c 0,38,39
 900 762 900 762 825 547 c 128,-1,40
 750 332 750 332 695 332 c 0,41,42
 684 332 684 332 675 338 c 128,-1,43
 666 344 666 344 666 352 c 0,44,45
 666 365 666 365 674 382.5 c 128,-1,46
 682 400 682 400 695 420 c 0,47,48
 744 504 744 504 768.5 595.5 c 128,-1,49
 793 687 793 687 793 781 c 0,50,51
 793 896 793 896 728.5 965.5 c 128,-1,52
 664 1035 664 1035 559 1035 c 0,53,54
 482 1035 482 1035 427.5 986 c 128,-1,55
 373 937 373 937 373 869 c 0,56,57
 373 840 373 840 383 814.5 c 128,-1,58
 393 789 393 789 412 771 c 1,59,60
 451 785 451 785 506 793 c 128,-1,61
 561 801 561 801 627 801 c 0,62,63
 639 801 639 801 647 792 c 0,64,65
 653 786 653 786 655 779 c 0,66,67
 670 723 670 723 658 723 c 0,68,69
 599 723 599 723 557 713 c 128,-1,70
 515 703 515 703 492 684 c 1,71,72
 545 611 545 611 572 478 c 0,73,74
 589 393 589 393 595 288 c 2,75,-1
 597 256 l 2,76,77
 599 212 599 212 599 166 c 0,78,79
 599 148 599 148 596 128 c 0,80,81
 595 83 595 83 559 0 c 1,82,83
 521 -68 521 -68 463 -137 c 0,84,85
 441 -162 441 -162 376.5 -242 c 128,-1,86
 312 -322 312 -322 277 -322 c 0,0,1
EndSplineSet
Ligature2: "'psts' Post Base Substitutions lookup 8 subtable" tm_ra tm_ikaar
EndChar

StartChar: tm_rr_ikaar
Encoding: 65557 -1 134
Width: 1301
GlyphClass: 2
Flags: W
LayerCount: 2
Fore
SplineSet
57 -381 m 0,0,1
 37 -381 37 -381 22.5 -369 c 128,-1,2
 8 -357 8 -357 8 -342 c 0,3,4
 8 -330 8 -330 22.5 -321.5 c 128,-1,5
 37 -313 37 -313 57 -313 c 0,6,7
 328 -313 328 -313 558.5 -116.5 c 128,-1,8
 789 80 789 80 789 312 c 0,9,10
 789 432 789 432 762.5 523.5 c 128,-1,11
 736 615 736 615 701 615 c 0,12,13
 668 615 668 615 632 554.5 c 128,-1,14
 596 494 596 494 555 381 c 1,15,16
 559 334 559 334 561.5 251 c 128,-1,17
 564 168 564 168 564 49 c 0,18,19
 564 29 564 29 552.5 14.5 c 128,-1,20
 541 0 541 0 525 0 c 2,21,-1
 418 0 l 2,22,23
 406 0 406 0 397.5 14.5 c 128,-1,24
 389 29 389 29 389 49 c 2,25,-1
 389 254 l 2,26,27
 389 385 389 385 358.5 495 c 128,-1,28
 328 605 328 605 291 605 c 0,29,30
 240 605 240 605 192.5 430.5 c 128,-1,31
 145 256 145 256 145 68 c 0,32,33
 145 39 145 39 139 19.5 c 128,-1,34
 133 0 133 0 125 0 c 2,35,-1
 57 0 l 1,36,37
 57 174 57 174 97 333 c 128,-1,38
 137 492 137 492 213 625 c 0,39,40
 254 697 254 697 296 739 c 128,-1,41
 338 781 338 781 369 781 c 0,42,43
 414 781 414 781 458 695 c 128,-1,44
 502 609 502 609 525 479 c 1,45,46
 570 604 570 604 624 683 c 128,-1,47
 678 762 678 762 730 781 c 1,48,49
 707 816 707 816 694.5 861 c 128,-1,50
 682 906 682 906 682 957 c 0,51,52
 682 1074 682 1074 773.5 1157 c 128,-1,53
 865 1240 865 1240 994 1240 c 0,54,55
 1127 1240 1127 1240 1207 1157 c 128,-1,56
 1287 1074 1287 1074 1287 937 c 0,57,58
 1287 781 1287 781 1212 566.5 c 128,-1,59
 1137 352 1137 352 1082 352 c 0,60,61
 1070 352 1070 352 1061.5 357.5 c 128,-1,62
 1053 363 1053 363 1053 371 c 0,63,64
 1053 385 1053 385 1060.5 402.5 c 128,-1,65
 1068 420 1068 420 1082 439 c 0,66,67
 1131 523 1131 523 1155.5 615 c 128,-1,68
 1180 707 1180 707 1180 801 c 0,69,70
 1180 916 1180 916 1115.5 985.5 c 128,-1,71
 1051 1055 1051 1055 945 1055 c 0,72,73
 869 1055 869 1055 814.5 1009 c 128,-1,74
 760 963 760 963 760 898 c 0,75,76
 760 865 760 865 769.5 837 c 128,-1,77
 779 809 779 809 799 791 c 1,78,79
 861 791 861 791 913 662 c 128,-1,80
 965 533 965 533 965 381 c 0,81,82
 965 113 965 113 670 -134 c 128,-1,83
 375 -381 375 -381 57 -381 c 0,0,1
EndSplineSet
Ligature2: "'psts' Post Base Substitutions lookup 8 subtable" tm_rra tm_ikaar
EndChar

StartChar: tm_l_ikaar
Encoding: 65558 -1 135
Width: 1480
GlyphClass: 2
Flags: W
LayerCount: 2
Fore
SplineSet
697 0 m 0,0,1
 621 0 621 0 576 37 c 128,-1,2
 531 74 531 74 531 137 c 0,3,4
 531 221 531 221 575 381 c 128,-1,5
 619 541 619 541 619 625 c 0,6,7
 619 674 619 674 582 703 c 128,-1,8
 545 732 545 732 482 732 c 0,9,10
 377 732 377 732 259 627.5 c 128,-1,11
 141 523 141 523 141 430 c 1,12,13
 205 473 205 473 259.5 495.5 c 128,-1,14
 314 518 314 518 355 518 c 0,15,16
 404 518 404 518 438.5 472 c 128,-1,17
 473 426 473 426 473 361 c 0,18,19
 473 230 473 230 399.5 120 c 128,-1,20
 326 10 326 10 238 10 c 0,21,22
 170 10 170 10 116 104.5 c 128,-1,23
 62 199 62 199 62 322 c 0,24,25
 62 402 62 402 89.5 477.5 c 128,-1,26
 117 553 117 553 170 615 c 0,27,28
 236 693 236 693 323 737 c 128,-1,29
 410 781 410 781 502 781 c 2,30,-1
 648 781 l 2,31,32
 709 781 709 781 752 735 c 128,-1,33
 795 689 795 689 795 625 c 0,34,35
 795 541 795 541 751 381 c 128,-1,36
 707 221 707 221 707 137 c 0,37,38
 707 117 707 117 724.5 102.5 c 128,-1,39
 742 88 742 88 766 88 c 0,40,41
 863 88 863 88 970.5 253 c 128,-1,42
 1078 418 1078 418 1078 566 c 0,43,44
 1078 598 1078 598 1075 619.5 c 128,-1,45
 1072 641 1072 641 1068 654 c 1,46,47
 1049 645 1049 645 1034.5 640 c 128,-1,48
 1020 635 1020 635 1010 635 c 0,49,50
 934 635 934 635 879 709 c 128,-1,51
 824 783 824 783 824 889 c 0,52,53
 824 1023 824 1023 921 1112 c 128,-1,54
 1018 1201 1018 1201 1166 1201 c 0,55,56
 1291 1201 1291 1201 1380 1115 c 128,-1,57
 1469 1029 1469 1029 1469 908 c 0,58,59
 1469 770 1469 770 1384 561 c 128,-1,60
 1299 352 1299 352 1244 352 c 0,61,62
 1232 352 1232 352 1223.5 360.5 c 128,-1,63
 1215 369 1215 369 1215 381 c 0,64,65
 1215 387 1215 387 1219 396.5 c 128,-1,66
 1223 406 1223 406 1234 430 c 1,67,68
 1301 521 1301 521 1336 619 c 128,-1,69
 1371 717 1371 717 1371 811 c 0,70,71
 1371 912 1371 912 1302.5 983.5 c 128,-1,72
 1234 1055 1234 1055 1137 1055 c 0,73,74
 1039 1055 1039 1055 970.5 997 c 128,-1,75
 902 939 902 939 902 859 c 0,76,77
 902 795 902 795 933.5 749 c 128,-1,78
 965 703 965 703 1010 703 c 0,79,80
 1021 703 1021 703 1033 706 c 128,-1,81
 1045 709 1045 709 1059 713 c 1,82,83
 1055 738 1055 738 1050 754.5 c 128,-1,84
 1045 771 1045 771 1039 781 c 0,85,86
 1029 799 1029 799 1024.5 810.5 c 128,-1,87
 1020 822 1020 822 1020 830 c 0,88,89
 1020 846 1020 846 1034.5 857.5 c 128,-1,90
 1049 869 1049 869 1068 869 c 0,91,92
 1105 869 1105 869 1130.5 814.5 c 128,-1,93
 1156 760 1156 760 1156 684 c 0,94,95
 1156 430 1156 430 1011.5 215 c 128,-1,96
 867 0 867 0 697 0 c 0,0,1
180 137 m 0,97,98
 211 137 211 137 254 219 c 128,-1,99
 297 301 297 301 297 361 c 0,100,101
 297 385 297 385 285 402.5 c 128,-1,102
 273 420 273 420 258 420 c 0,103,104
 213 420 213 420 167 367 c 128,-1,105
 121 314 121 314 121 264 c 0,106,107
 121 227 121 227 141.5 182 c 128,-1,108
 162 137 162 137 180 137 c 0,97,98
EndSplineSet
Ligature2: "'psts' Post Base Substitutions lookup 8 subtable" tm_la tm_ikaar
EndChar

